<?xml version="1.0" encoding="us-ascii" standalone="no"?><svg xmlns="http://www.w3.org/2000/svg" xmlns:xlink="http://www.w3.org/1999/xlink" contentStyleType="text/css" height="1024px" preserveAspectRatio="none" style="width:2997px;height:1024px;background:#FFFFFF;" version="1.1" viewBox="0 0 2997 1024" width="2997px" zoomAndPan="magnify"><defs/><g><!--cluster interfaces--><g id="cluster_interfaces"><path d="M865,15.0137 L937,15.0137 A3.75,3.75 0 0 1 939.5,17.5137 L946.5,39.6348 L1364,39.6348 A2.5,2.5 0 0 1 1366.5,42.1348 L1366.5,132.5137 A2.5,2.5 0 0 1 1364,135.0137 L865,135.0137 A2.5,2.5 0 0 1 862.5,132.5137 L862.5,17.5137 A2.5,2.5 0 0 1 865,15.0137 " fill="none" style="stroke:#000000;stroke-width:1.5;"/><line style="stroke:#000000;stroke-width:1.5;" x1="862.5" x2="946.5" y1="39.6348" y2="39.6348"/><text fill="#000000" font-family="sans-serif" font-size="14" font-weight="bold" lengthAdjust="spacing" textLength="71" x="866.5" y="32.1211">interfaces</text></g><!--cluster animals--><g id="cluster_animals"><path d="M1393,6.0137 L1447,6.0137 A3.75,3.75 0 0 1 1449.5,8.5137 L1456.5,30.6348 L2123,30.6348 A2.5,2.5 0 0 1 2125.5,33.1348 L2125.5,359.5137 A2.5,2.5 0 0 1 2123,362.0137 L1393,362.0137 A2.5,2.5 0 0 1 1390.5,359.5137 L1390.5,8.5137 A2.5,2.5 0 0 1 1393,6.0137 " fill="none" style="stroke:#000000;stroke-width:1.5;"/><line style="stroke:#000000;stroke-width:1.5;" x1="1390.5" x2="1456.5" y1="30.6348" y2="30.6348"/><text fill="#000000" font-family="sans-serif" font-size="14" font-weight="bold" lengthAdjust="spacing" textLength="53" x="1394.5" y="23.1211">animals</text></g><!--cluster aviaries--><g id="cluster_aviaries"><path d="M2201,159.0137 L2258,159.0137 A3.75,3.75 0 0 1 2260.5,161.5137 L2267.5,183.6348 L2843,183.6348 A2.5,2.5 0 0 1 2845.5,186.1348 L2845.5,608.0137 A2.5,2.5 0 0 1 2843,610.5137 L2201,610.5137 A2.5,2.5 0 0 1 2198.5,608.0137 L2198.5,161.5137 A2.5,2.5 0 0 1 2201,159.0137 " fill="none" style="stroke:#000000;stroke-width:1.5;"/><line style="stroke:#000000;stroke-width:1.5;" x1="2198.5" x2="2267.5" y1="183.6348" y2="183.6348"/><text fill="#000000" font-family="sans-serif" font-size="14" font-weight="bold" lengthAdjust="spacing" textLength="56" x="2202.5" y="176.1211">aviaries</text></g><!--cluster creators--><g id="cluster_creators"><path d="M505,390.0137 L565,390.0137 A3.75,3.75 0 0 1 567.5,392.5137 L574.5,414.6348 L2172,414.6348 A2.5,2.5 0 0 1 2174.5,417.1348 L2174.5,1015.0137 A2.5,2.5 0 0 1 2172,1017.5137 L505,1017.5137 A2.5,2.5 0 0 1 502.5,1015.0137 L502.5,392.5137 A2.5,2.5 0 0 1 505,390.0137 " fill="none" style="stroke:#000000;stroke-width:1.5;"/><line style="stroke:#000000;stroke-width:1.5;" x1="502.5" x2="574.5" y1="414.6348" y2="414.6348"/><text fill="#000000" font-family="sans-serif" font-size="14" font-weight="bold" lengthAdjust="spacing" textLength="59" x="506.5" y="407.1211">creators</text></g><!--cluster animals--><g id="cluster_animals"><path d="M1236,654.5137 L1290,654.5137 A3.75,3.75 0 0 1 1292.5,657.0137 L1299.5,679.1348 L2148,679.1348 A2.5,2.5 0 0 1 2150.5,681.6348 L2150.5,991.0137 A2.5,2.5 0 0 1 2148,993.5137 L1236,993.5137 A2.5,2.5 0 0 1 1233.5,991.0137 L1233.5,657.0137 A2.5,2.5 0 0 1 1236,654.5137 " fill="none" style="stroke:#000000;stroke-width:1.5;"/><line style="stroke:#000000;stroke-width:1.5;" x1="1233.5" x2="1299.5" y1="679.1348" y2="679.1348"/><text fill="#000000" font-family="sans-serif" font-size="14" font-weight="bold" lengthAdjust="spacing" textLength="53" x="1237.5" y="671.6211">animals</text></g><!--cluster aviaries--><g id="cluster_aviaries"><path d="M529,435.0137 L586,435.0137 A3.75,3.75 0 0 1 588.5,437.5137 L595.5,459.6348 L1207,459.6348 A2.5,2.5 0 0 1 1209.5,462.1348 L1209.5,818.0137 A2.5,2.5 0 0 1 1207,820.5137 L529,820.5137 A2.5,2.5 0 0 1 526.5,818.0137 L526.5,437.5137 A2.5,2.5 0 0 1 529,435.0137 " fill="none" style="stroke:#000000;stroke-width:1.5;"/><line style="stroke:#000000;stroke-width:1.5;" x1="526.5" x2="595.5" y1="459.6348" y2="459.6348"/><text fill="#000000" font-family="sans-serif" font-size="14" font-weight="bold" lengthAdjust="spacing" textLength="56" x="530.5" y="452.1211">aviaries</text></g><!--class IFlying--><g id="elem_IFlying"><rect codeLine="4" fill="#F1F1F1" height="66.6211" id="IFlying" rx="2.5" ry="2.5" style="stroke:#181818;stroke-width:0.5;" width="121" x="1059" y="52.0137"/><ellipse cx="1095.15" cy="68.0137" fill="#B4A7E5" rx="11" ry="11" style="stroke:#181818;stroke-width:1.0;"/><path d="M1096.1031,64.6543 L1096.1031,71.3105 L1097.8219,71.3105 Q1098.4313,71.3105 1098.6969,71.5449 Q1098.9625,71.7793 1098.9625,72.1699 Q1098.9625,72.5449 1098.6969,72.7793 Q1098.4313,73.0137 1097.8219,73.0137 L1092.6813,73.0137 Q1092.0719,73.0137 1091.8063,72.7793 Q1091.5406,72.5449 1091.5406,72.1543 Q1091.5406,71.7793 1091.8063,71.5449 Q1092.0719,71.3105 1092.6813,71.3105 L1094.4,71.3105 L1094.4,64.6543 L1092.6813,64.6543 Q1092.0719,64.6543 1091.8063,64.4199 Q1091.5406,64.1855 1091.5406,63.7949 Q1091.5406,63.4199 1091.8063,63.1855 Q1092.0719,62.9512 1092.6813,62.9512 L1097.8219,62.9512 Q1098.4313,62.9512 1098.6969,63.1855 Q1098.9625,63.4199 1098.9625,63.7949 Q1098.9625,64.1855 1098.6969,64.4199 Q1098.4313,64.6543 1097.8219,64.6543 L1096.1031,64.6543 Z " fill="#000000"/><text fill="#000000" font-family="sans-serif" font-size="14" font-style="italic" lengthAdjust="spacing" textLength="42" x="1113.85" y="73.8105">IFlying</text><line style="stroke:#181818;stroke-width:0.5;" x1="1060" x2="1179" y1="84.0137" y2="84.0137"/><line style="stroke:#181818;stroke-width:0.5;" x1="1060" x2="1179" y1="92.0137" y2="92.0137"/><ellipse cx="1070" cy="106.8242" fill="#84BE84" rx="3" ry="3" style="stroke:#038048;stroke-width:1.0;"/><text fill="#000000" font-family="sans-serif" font-size="14" font-style="italic" lengthAdjust="spacing" textLength="95" x="1079" y="111.1211">Flying() : string</text></g><!--class ISwimming--><g id="elem_ISwimming"><rect codeLine="8" fill="#F1F1F1" height="66.6211" id="ISwimming" rx="2.5" ry="2.5" style="stroke:#181818;stroke-width:0.5;" width="145" x="879" y="52.0137"/><ellipse cx="915.15" cy="68.0137" fill="#B4A7E5" rx="11" ry="11" style="stroke:#181818;stroke-width:1.0;"/><path d="M916.1031,64.6543 L916.1031,71.3105 L917.8219,71.3105 Q918.4313,71.3105 918.6969,71.5449 Q918.9625,71.7793 918.9625,72.1699 Q918.9625,72.5449 918.6969,72.7793 Q918.4313,73.0137 917.8219,73.0137 L912.6813,73.0137 Q912.0719,73.0137 911.8063,72.7793 Q911.5406,72.5449 911.5406,72.1543 Q911.5406,71.7793 911.8063,71.5449 Q912.0719,71.3105 912.6813,71.3105 L914.4,71.3105 L914.4,64.6543 L912.6813,64.6543 Q912.0719,64.6543 911.8063,64.4199 Q911.5406,64.1855 911.5406,63.7949 Q911.5406,63.4199 911.8063,63.1855 Q912.0719,62.9512 912.6813,62.9512 L917.8219,62.9512 Q918.4313,62.9512 918.6969,63.1855 Q918.9625,63.4199 918.9625,63.7949 Q918.9625,64.1855 918.6969,64.4199 Q918.4313,64.6543 917.8219,64.6543 L916.1031,64.6543 Z " fill="#000000"/><text fill="#000000" font-family="sans-serif" font-size="14" font-style="italic" lengthAdjust="spacing" textLength="66" x="933.85" y="73.8105">ISwimming</text><line style="stroke:#181818;stroke-width:0.5;" x1="880" x2="1023" y1="84.0137" y2="84.0137"/><line style="stroke:#181818;stroke-width:0.5;" x1="880" x2="1023" y1="92.0137" y2="92.0137"/><ellipse cx="890" cy="106.8242" fill="#84BE84" rx="3" ry="3" style="stroke:#038048;stroke-width:1.0;"/><text fill="#000000" font-family="sans-serif" font-size="14" font-style="italic" lengthAdjust="spacing" textLength="119" x="899" y="111.1211">Swimming() : string</text></g><!--class IWalking--><g id="elem_IWalking"><rect codeLine="12" fill="#F1F1F1" height="66.6211" id="IWalking" rx="2.5" ry="2.5" style="stroke:#181818;stroke-width:0.5;" width="135" x="1215" y="52.0137"/><ellipse cx="1251.15" cy="68.0137" fill="#B4A7E5" rx="11" ry="11" style="stroke:#181818;stroke-width:1.0;"/><path d="M1252.1031,64.6543 L1252.1031,71.3105 L1253.8219,71.3105 Q1254.4313,71.3105 1254.6969,71.5449 Q1254.9625,71.7793 1254.9625,72.1699 Q1254.9625,72.5449 1254.6969,72.7793 Q1254.4313,73.0137 1253.8219,73.0137 L1248.6813,73.0137 Q1248.0719,73.0137 1247.8063,72.7793 Q1247.5406,72.5449 1247.5406,72.1543 Q1247.5406,71.7793 1247.8063,71.5449 Q1248.0719,71.3105 1248.6813,71.3105 L1250.4,71.3105 L1250.4,64.6543 L1248.6813,64.6543 Q1248.0719,64.6543 1247.8063,64.4199 Q1247.5406,64.1855 1247.5406,63.7949 Q1247.5406,63.4199 1247.8063,63.1855 Q1248.0719,62.9512 1248.6813,62.9512 L1253.8219,62.9512 Q1254.4313,62.9512 1254.6969,63.1855 Q1254.9625,63.4199 1254.9625,63.7949 Q1254.9625,64.1855 1254.6969,64.4199 Q1254.4313,64.6543 1253.8219,64.6543 L1252.1031,64.6543 Z " fill="#000000"/><text fill="#000000" font-family="sans-serif" font-size="14" font-style="italic" lengthAdjust="spacing" textLength="56" x="1269.85" y="73.8105">IWalking</text><line style="stroke:#181818;stroke-width:0.5;" x1="1216" x2="1349" y1="84.0137" y2="84.0137"/><line style="stroke:#181818;stroke-width:0.5;" x1="1216" x2="1349" y1="92.0137" y2="92.0137"/><ellipse cx="1226" cy="106.8242" fill="#84BE84" rx="3" ry="3" style="stroke:#038048;stroke-width:1.0;"/><text fill="#000000" font-family="sans-serif" font-size="14" font-style="italic" lengthAdjust="spacing" textLength="109" x="1235" y="111.1211">Walking() : string</text></g><!--class Animal--><g id="elem_Animal"><rect codeLine="18" fill="#F1F1F1" height="85.2422" id="Animal" rx="2.5" ry="2.5" style="stroke:#181818;stroke-width:0.5;" width="151" x="1958" y="43.0137"/><ellipse cx="2008.25" cy="59.0137" fill="#A9DCDF" rx="11" ry="11" style="stroke:#181818;stroke-width:1.0;"/><path d="M2010.4375,60.7793 L2006.2969,60.7793 L2005.875,61.8105 L2006.2969,61.8105 Q2006.9063,61.8105 2007.1719,62.0449 Q2007.4375,62.2793 2007.4375,62.6699 Q2007.4375,63.0449 2007.1719,63.2793 Q2006.9063,63.5137 2006.2969,63.5137 L2004,63.5137 Q2003.3906,63.5137 2003.1406,63.2793 Q2002.875,63.0449 2002.875,62.6543 Q2002.875,62.2793 2003.1563,62.0449 Q2003.4219,61.7949 2004.0469,61.8105 L2006.7188,55.1543 L2005.6094,55.1543 Q2005,55.1543 2004.7344,54.9199 Q2004.4688,54.6855 2004.4688,54.2949 Q2004.4688,53.9199 2004.7344,53.6855 Q2005,53.4512 2005.6094,53.4512 L2009.2813,53.4512 L2012.6719,61.8105 Q2013.2656,61.8105 2013.4531,61.9512 Q2013.8438,62.2168 2013.8438,62.6699 Q2013.8438,63.0449 2013.5781,63.2793 Q2013.3281,63.5137 2012.7188,63.5137 L2010.4219,63.5137 Q2009.8125,63.5137 2009.5469,63.2793 Q2009.2813,63.0449 2009.2813,62.6543 Q2009.2813,62.2793 2009.5469,62.0449 Q2009.8125,61.8105 2010.4219,61.8105 L2010.8438,61.8105 L2010.4375,60.7793 Z M2009.7188,59.0762 L2008.3594,55.7012 L2006.9844,59.0762 L2009.7188,59.0762 Z " fill="#000000"/><text fill="#000000" font-family="sans-serif" font-size="14" font-style="italic" lengthAdjust="spacing" textLength="42" x="2028.75" y="64.8105">Animal</text><line style="stroke:#181818;stroke-width:0.5;" x1="1959" x2="2108" y1="75.0137" y2="75.0137"/><ellipse cx="1969" cy="89.8242" fill="none" rx="3" ry="3" style="stroke:#038048;stroke-width:1.0;"/><text fill="#000000" font-family="sans-serif" font-size="14" lengthAdjust="spacing" textLength="73" x="1978" y="94.1211">kind : string</text><line style="stroke:#181818;stroke-width:0.5;" x1="1959" x2="2108" y1="101.6348" y2="101.6348"/><polygon fill="#FFFF44" points="1969,111.4453,1973,115.4453,1969,119.4453,1965,115.4453" style="stroke:#B38D22;stroke-width:1.0;"/><text fill="#000000" font-family="sans-serif" font-size="14" lengthAdjust="spacing" textLength="125" x="1978" y="120.7422">Animal(kind : string)</text></g><!--class Bird--><g id="elem_Bird"><rect codeLine="27" fill="#F1F1F1" height="122.4844" id="Bird" rx="2.5" ry="2.5" style="stroke:#181818;stroke-width:0.5;" width="134" x="1587.5" y="224.0137"/><ellipse cx="1637.75" cy="240.0137" fill="#ADD1B2" rx="11" ry="11" style="stroke:#181818;stroke-width:1.0;"/><path d="M1640.5156,235.8887 Q1640.6719,235.6699 1640.8594,235.5605 Q1641.0469,235.4512 1641.2656,235.4512 Q1641.6406,235.4512 1641.875,235.7168 Q1642.1094,235.9668 1642.1094,236.5762 L1642.1094,238.0293 Q1642.1094,238.6387 1641.875,238.9043 Q1641.6406,239.1699 1641.2656,239.1699 Q1640.9219,239.1699 1640.7188,238.9668 Q1640.5156,238.7793 1640.4063,238.2637 Q1640.3594,237.9043 1640.1719,237.7168 Q1639.8438,237.3418 1639.2344,237.123 Q1638.625,236.9043 1638,236.9043 Q1637.2344,236.9043 1636.5938,237.2324 Q1635.9688,237.5605 1635.4688,238.3105 Q1634.9844,239.0605 1634.9844,240.0918 L1634.9844,241.1855 Q1634.9844,242.4199 1635.875,243.248 Q1636.7656,244.0605 1638.3594,244.0605 Q1639.2969,244.0605 1639.9531,243.8105 Q1640.3438,243.6543 1640.7656,243.2168 Q1641.0313,242.9512 1641.1719,242.873 Q1641.3281,242.7949 1641.5313,242.7949 Q1641.8594,242.7949 1642.1094,243.0605 Q1642.375,243.3105 1642.375,243.6543 Q1642.375,243.998 1642.0313,244.4043 Q1641.5313,244.9824 1640.7344,245.3105 Q1639.6563,245.7637 1638.3594,245.7637 Q1636.8438,245.7637 1635.6406,245.1387 Q1634.6563,244.6387 1633.9688,243.5762 Q1633.2813,242.498 1633.2813,241.2168 L1633.2813,240.0605 Q1633.2813,238.7324 1633.8906,237.5918 Q1634.5156,236.4355 1635.6094,235.8262 Q1636.7031,235.2012 1637.9375,235.2012 Q1638.6719,235.2012 1639.3125,235.373 Q1639.9688,235.5293 1640.5156,235.8887 Z " fill="#000000"/><text fill="#000000" font-family="sans-serif" font-size="14" lengthAdjust="spacing" textLength="25" x="1658.25" y="245.8105">Bird</text><line style="stroke:#181818;stroke-width:0.5;" x1="1588.5" x2="1720.5" y1="256.0137" y2="256.0137"/><line style="stroke:#181818;stroke-width:0.5;" x1="1588.5" x2="1720.5" y1="264.0137" y2="264.0137"/><ellipse cx="1598.5" cy="278.8242" fill="#84BE84" rx="3" ry="3" style="stroke:#038048;stroke-width:1.0;"/><text fill="#000000" font-family="sans-serif" font-size="14" lengthAdjust="spacing" textLength="108" x="1607.5" y="283.1211">Bird(kind : string)</text><text fill="#000000" font-family="sans-serif" font-size="14" lengthAdjust="spacing" textLength="4" x="1607.5" y="301.7422">&#160;</text><ellipse cx="1598.5" cy="316.0664" fill="#84BE84" rx="3" ry="3" style="stroke:#038048;stroke-width:1.0;"/><text fill="#000000" font-family="sans-serif" font-size="14" lengthAdjust="spacing" textLength="95" x="1607.5" y="320.3633">Flying() : string</text><ellipse cx="1598.5" cy="334.6875" fill="#84BE84" rx="3" ry="3" style="stroke:#038048;stroke-width:1.0;"/><text fill="#000000" font-family="sans-serif" font-size="14" lengthAdjust="spacing" textLength="107" x="1607.5" y="338.9844">Walking() : string</text></g><!--class Fish--><g id="elem_Fish"><rect codeLine="36" fill="#F1F1F1" height="103.8633" id="Fish" rx="2.5" ry="2.5" style="stroke:#181818;stroke-width:0.5;" width="145" x="1407" y="233.0137"/><ellipse cx="1461.75" cy="249.0137" fill="#ADD1B2" rx="11" ry="11" style="stroke:#181818;stroke-width:1.0;"/><path d="M1464.5156,244.8887 Q1464.6719,244.6699 1464.8594,244.5605 Q1465.0469,244.4512 1465.2656,244.4512 Q1465.6406,244.4512 1465.875,244.7168 Q1466.1094,244.9668 1466.1094,245.5762 L1466.1094,247.0293 Q1466.1094,247.6387 1465.875,247.9043 Q1465.6406,248.1699 1465.2656,248.1699 Q1464.9219,248.1699 1464.7188,247.9668 Q1464.5156,247.7793 1464.4063,247.2637 Q1464.3594,246.9043 1464.1719,246.7168 Q1463.8438,246.3418 1463.2344,246.123 Q1462.625,245.9043 1462,245.9043 Q1461.2344,245.9043 1460.5938,246.2324 Q1459.9688,246.5605 1459.4688,247.3105 Q1458.9844,248.0605 1458.9844,249.0918 L1458.9844,250.1855 Q1458.9844,251.4199 1459.875,252.248 Q1460.7656,253.0605 1462.3594,253.0605 Q1463.2969,253.0605 1463.9531,252.8105 Q1464.3438,252.6543 1464.7656,252.2168 Q1465.0313,251.9512 1465.1719,251.873 Q1465.3281,251.7949 1465.5313,251.7949 Q1465.8594,251.7949 1466.1094,252.0605 Q1466.375,252.3105 1466.375,252.6543 Q1466.375,252.998 1466.0313,253.4043 Q1465.5313,253.9824 1464.7344,254.3105 Q1463.6563,254.7637 1462.3594,254.7637 Q1460.8438,254.7637 1459.6406,254.1387 Q1458.6563,253.6387 1457.9688,252.5762 Q1457.2813,251.498 1457.2813,250.2168 L1457.2813,249.0605 Q1457.2813,247.7324 1457.8906,246.5918 Q1458.5156,245.4355 1459.6094,244.8262 Q1460.7031,244.2012 1461.9375,244.2012 Q1462.6719,244.2012 1463.3125,244.373 Q1463.9688,244.5293 1464.5156,244.8887 Z " fill="#000000"/><text fill="#000000" font-family="sans-serif" font-size="14" lengthAdjust="spacing" textLength="27" x="1482.25" y="254.8105">Fish</text><line style="stroke:#181818;stroke-width:0.5;" x1="1408" x2="1551" y1="265.0137" y2="265.0137"/><line style="stroke:#181818;stroke-width:0.5;" x1="1408" x2="1551" y1="273.0137" y2="273.0137"/><ellipse cx="1418" cy="287.8242" fill="#84BE84" rx="3" ry="3" style="stroke:#038048;stroke-width:1.0;"/><text fill="#000000" font-family="sans-serif" font-size="14" lengthAdjust="spacing" textLength="110" x="1427" y="292.1211">Fish(kind : string)</text><text fill="#000000" font-family="sans-serif" font-size="14" lengthAdjust="spacing" textLength="4" x="1427" y="310.7422">&#160;</text><ellipse cx="1418" cy="325.0664" fill="#84BE84" rx="3" ry="3" style="stroke:#038048;stroke-width:1.0;"/><text fill="#000000" font-family="sans-serif" font-size="14" lengthAdjust="spacing" textLength="119" x="1427" y="329.3633">Swimming() : string</text></g><!--class Mammalia--><g id="elem_Mammalia"><rect codeLine="44" fill="#F1F1F1" height="103.8633" id="Mammalia" rx="2.5" ry="2.5" style="stroke:#181818;stroke-width:0.5;" width="172" x="1937.5" y="233.0137"/><ellipse cx="1987.75" cy="249.0137" fill="#ADD1B2" rx="11" ry="11" style="stroke:#181818;stroke-width:1.0;"/><path d="M1990.5156,244.8887 Q1990.6719,244.6699 1990.8594,244.5605 Q1991.0469,244.4512 1991.2656,244.4512 Q1991.6406,244.4512 1991.875,244.7168 Q1992.1094,244.9668 1992.1094,245.5762 L1992.1094,247.0293 Q1992.1094,247.6387 1991.875,247.9043 Q1991.6406,248.1699 1991.2656,248.1699 Q1990.9219,248.1699 1990.7188,247.9668 Q1990.5156,247.7793 1990.4063,247.2637 Q1990.3594,246.9043 1990.1719,246.7168 Q1989.8438,246.3418 1989.2344,246.123 Q1988.625,245.9043 1988,245.9043 Q1987.2344,245.9043 1986.5938,246.2324 Q1985.9688,246.5605 1985.4688,247.3105 Q1984.9844,248.0605 1984.9844,249.0918 L1984.9844,250.1855 Q1984.9844,251.4199 1985.875,252.248 Q1986.7656,253.0605 1988.3594,253.0605 Q1989.2969,253.0605 1989.9531,252.8105 Q1990.3438,252.6543 1990.7656,252.2168 Q1991.0313,251.9512 1991.1719,251.873 Q1991.3281,251.7949 1991.5313,251.7949 Q1991.8594,251.7949 1992.1094,252.0605 Q1992.375,252.3105 1992.375,252.6543 Q1992.375,252.998 1992.0313,253.4043 Q1991.5313,253.9824 1990.7344,254.3105 Q1989.6563,254.7637 1988.3594,254.7637 Q1986.8438,254.7637 1985.6406,254.1387 Q1984.6563,253.6387 1983.9688,252.5762 Q1983.2813,251.498 1983.2813,250.2168 L1983.2813,249.0605 Q1983.2813,247.7324 1983.8906,246.5918 Q1984.5156,245.4355 1985.6094,244.8262 Q1986.7031,244.2012 1987.9375,244.2012 Q1988.6719,244.2012 1989.3125,244.373 Q1989.9688,244.5293 1990.5156,244.8887 Z " fill="#000000"/><text fill="#000000" font-family="sans-serif" font-size="14" lengthAdjust="spacing" textLength="63" x="2008.25" y="254.8105">Mammalia</text><line style="stroke:#181818;stroke-width:0.5;" x1="1938.5" x2="2108.5" y1="265.0137" y2="265.0137"/><line style="stroke:#181818;stroke-width:0.5;" x1="1938.5" x2="2108.5" y1="273.0137" y2="273.0137"/><ellipse cx="1948.5" cy="287.8242" fill="#84BE84" rx="3" ry="3" style="stroke:#038048;stroke-width:1.0;"/><text fill="#000000" font-family="sans-serif" font-size="14" lengthAdjust="spacing" textLength="146" x="1957.5" y="292.1211">Mammalia(kind : string)</text><text fill="#000000" font-family="sans-serif" font-size="14" lengthAdjust="spacing" textLength="4" x="1957.5" y="310.7422">&#160;</text><ellipse cx="1948.5" cy="325.0664" fill="#84BE84" rx="3" ry="3" style="stroke:#038048;stroke-width:1.0;"/><text fill="#000000" font-family="sans-serif" font-size="14" lengthAdjust="spacing" textLength="107" x="1957.5" y="329.3633">Walking() : string</text></g><!--class Insect--><g id="elem_Insect"><rect codeLine="53" fill="#F1F1F1" height="122.4844" id="Insect" rx="2.5" ry="2.5" style="stroke:#181818;stroke-width:0.5;" width="146" x="1756.5" y="224.0137"/><ellipse cx="1806.75" cy="240.0137" fill="#ADD1B2" rx="11" ry="11" style="stroke:#181818;stroke-width:1.0;"/><path d="M1809.5156,235.8887 Q1809.6719,235.6699 1809.8594,235.5605 Q1810.0469,235.4512 1810.2656,235.4512 Q1810.6406,235.4512 1810.875,235.7168 Q1811.1094,235.9668 1811.1094,236.5762 L1811.1094,238.0293 Q1811.1094,238.6387 1810.875,238.9043 Q1810.6406,239.1699 1810.2656,239.1699 Q1809.9219,239.1699 1809.7188,238.9668 Q1809.5156,238.7793 1809.4063,238.2637 Q1809.3594,237.9043 1809.1719,237.7168 Q1808.8438,237.3418 1808.2344,237.123 Q1807.625,236.9043 1807,236.9043 Q1806.2344,236.9043 1805.5938,237.2324 Q1804.9688,237.5605 1804.4688,238.3105 Q1803.9844,239.0605 1803.9844,240.0918 L1803.9844,241.1855 Q1803.9844,242.4199 1804.875,243.248 Q1805.7656,244.0605 1807.3594,244.0605 Q1808.2969,244.0605 1808.9531,243.8105 Q1809.3438,243.6543 1809.7656,243.2168 Q1810.0313,242.9512 1810.1719,242.873 Q1810.3281,242.7949 1810.5313,242.7949 Q1810.8594,242.7949 1811.1094,243.0605 Q1811.375,243.3105 1811.375,243.6543 Q1811.375,243.998 1811.0313,244.4043 Q1810.5313,244.9824 1809.7344,245.3105 Q1808.6563,245.7637 1807.3594,245.7637 Q1805.8438,245.7637 1804.6406,245.1387 Q1803.6563,244.6387 1802.9688,243.5762 Q1802.2813,242.498 1802.2813,241.2168 L1802.2813,240.0605 Q1802.2813,238.7324 1802.8906,237.5918 Q1803.5156,236.4355 1804.6094,235.8262 Q1805.7031,235.2012 1806.9375,235.2012 Q1807.6719,235.2012 1808.3125,235.373 Q1808.9688,235.5293 1809.5156,235.8887 Z " fill="#000000"/><text fill="#000000" font-family="sans-serif" font-size="14" lengthAdjust="spacing" textLength="37" x="1827.25" y="245.8105">Insect</text><line style="stroke:#181818;stroke-width:0.5;" x1="1757.5" x2="1901.5" y1="256.0137" y2="256.0137"/><line style="stroke:#181818;stroke-width:0.5;" x1="1757.5" x2="1901.5" y1="264.0137" y2="264.0137"/><ellipse cx="1767.5" cy="278.8242" fill="#84BE84" rx="3" ry="3" style="stroke:#038048;stroke-width:1.0;"/><text fill="#000000" font-family="sans-serif" font-size="14" lengthAdjust="spacing" textLength="120" x="1776.5" y="283.1211">Insect(kind : string)</text><text fill="#000000" font-family="sans-serif" font-size="14" lengthAdjust="spacing" textLength="4" x="1776.5" y="301.7422">&#160;</text><ellipse cx="1767.5" cy="316.0664" fill="#84BE84" rx="3" ry="3" style="stroke:#038048;stroke-width:1.0;"/><text fill="#000000" font-family="sans-serif" font-size="14" lengthAdjust="spacing" textLength="95" x="1776.5" y="320.3633">Flying() : string</text><ellipse cx="1767.5" cy="334.6875" fill="#84BE84" rx="3" ry="3" style="stroke:#038048;stroke-width:1.0;"/><text fill="#000000" font-family="sans-serif" font-size="14" lengthAdjust="spacing" textLength="107" x="1776.5" y="338.9844">Walking() : string</text></g><!--class Aviary--><g id="elem_Aviary"><rect codeLine="63" fill="#F1F1F1" height="178.3477" id="Aviary" rx="2.5" ry="2.5" style="stroke:#181818;stroke-width:0.5;" width="237" x="2216" y="196.0137"/><ellipse cx="2311.25" cy="212.0137" fill="#A9DCDF" rx="11" ry="11" style="stroke:#181818;stroke-width:1.0;"/><path d="M2313.4375,213.7793 L2309.2969,213.7793 L2308.875,214.8105 L2309.2969,214.8105 Q2309.9063,214.8105 2310.1719,215.0449 Q2310.4375,215.2793 2310.4375,215.6699 Q2310.4375,216.0449 2310.1719,216.2793 Q2309.9063,216.5137 2309.2969,216.5137 L2307,216.5137 Q2306.3906,216.5137 2306.1406,216.2793 Q2305.875,216.0449 2305.875,215.6543 Q2305.875,215.2793 2306.1563,215.0449 Q2306.4219,214.7949 2307.0469,214.8105 L2309.7188,208.1543 L2308.6094,208.1543 Q2308,208.1543 2307.7344,207.9199 Q2307.4688,207.6855 2307.4688,207.2949 Q2307.4688,206.9199 2307.7344,206.6855 Q2308,206.4512 2308.6094,206.4512 L2312.2813,206.4512 L2315.6719,214.8105 Q2316.2656,214.8105 2316.4531,214.9512 Q2316.8438,215.2168 2316.8438,215.6699 Q2316.8438,216.0449 2316.5781,216.2793 Q2316.3281,216.5137 2315.7188,216.5137 L2313.4219,216.5137 Q2312.8125,216.5137 2312.5469,216.2793 Q2312.2813,216.0449 2312.2813,215.6543 Q2312.2813,215.2793 2312.5469,215.0449 Q2312.8125,214.8105 2313.4219,214.8105 L2313.8438,214.8105 L2313.4375,213.7793 Z M2312.7188,212.0762 L2311.3594,208.7012 L2309.9844,212.0762 L2312.7188,212.0762 Z " fill="#000000"/><text fill="#000000" font-family="sans-serif" font-size="14" font-style="italic" lengthAdjust="spacing" textLength="38" x="2331.75" y="217.8105">Aviary</text><line style="stroke:#181818;stroke-width:0.5;" x1="2217" x2="2452" y1="228.0137" y2="228.0137"/><ellipse cx="2227" cy="242.8242" fill="none" rx="3" ry="3" style="stroke:#038048;stroke-width:1.0;"/><text fill="#000000" font-family="sans-serif" font-size="14" lengthAdjust="spacing" textLength="82" x="2236" y="247.1211">name : string</text><ellipse cx="2227" cy="261.4453" fill="none" rx="3" ry="3" style="stroke:#038048;stroke-width:1.0;"/><text fill="#000000" font-family="sans-serif" font-size="14" lengthAdjust="spacing" textLength="92" x="2236" y="265.7422">totalCount : int</text><ellipse cx="2227" cy="280.0664" fill="none" rx="3" ry="3" style="stroke:#038048;stroke-width:1.0;"/><text fill="#000000" font-family="sans-serif" font-size="14" lengthAdjust="spacing" textLength="110" x="2236" y="284.3633">animals : Animal[]</text><line style="stroke:#181818;stroke-width:0.5;" x1="2217" x2="2452" y1="291.877" y2="291.877"/><polygon fill="#FFFF44" points="2227,301.6875,2231,305.6875,2227,309.6875,2223,305.6875" style="stroke:#B38D22;stroke-width:1.0;"/><text fill="#000000" font-family="sans-serif" font-size="14" lengthAdjust="spacing" textLength="201" x="2236" y="310.9844">Aviary(name : string, count : int)</text><text fill="#000000" font-family="sans-serif" font-size="14" lengthAdjust="spacing" textLength="4" x="2236" y="329.6055">&#160;</text><ellipse cx="2227" cy="343.9297" fill="#84BE84" rx="3" ry="3" style="stroke:#038048;stroke-width:1.0;"/><text fill="#000000" font-family="sans-serif" font-size="14" font-style="italic" lengthAdjust="spacing" textLength="211" x="2236" y="348.2266">AddAnimal(animal : Animal) : bool</text><polygon fill="#FFFF44" points="2227,357.5508,2231,361.5508,2227,365.5508,2223,361.5508" style="stroke:#B38D22;stroke-width:1.0;"/><text fill="#000000" font-family="sans-serif" font-size="14" lengthAdjust="spacing" textLength="89" x="2236" y="366.8477">IsFree() : bool</text></g><!--class AquaAviary--><g id="elem_AquaAviary"><rect codeLine="77" fill="#F1F1F1" height="103.8633" id="AquaAviary" rx="2.5" ry="2.5" style="stroke:#181818;stroke-width:0.5;" width="290" x="2214.5" y="490.5137"/><ellipse cx="2319.25" cy="506.5137" fill="#ADD1B2" rx="11" ry="11" style="stroke:#181818;stroke-width:1.0;"/><path d="M2322.0156,502.3887 Q2322.1719,502.1699 2322.3594,502.0605 Q2322.5469,501.9512 2322.7656,501.9512 Q2323.1406,501.9512 2323.375,502.2168 Q2323.6094,502.4668 2323.6094,503.0762 L2323.6094,504.5293 Q2323.6094,505.1387 2323.375,505.4043 Q2323.1406,505.6699 2322.7656,505.6699 Q2322.4219,505.6699 2322.2188,505.4668 Q2322.0156,505.2793 2321.9063,504.7637 Q2321.8594,504.4043 2321.6719,504.2168 Q2321.3438,503.8418 2320.7344,503.623 Q2320.125,503.4043 2319.5,503.4043 Q2318.7344,503.4043 2318.0938,503.7324 Q2317.4688,504.0605 2316.9688,504.8105 Q2316.4844,505.5605 2316.4844,506.5918 L2316.4844,507.6855 Q2316.4844,508.9199 2317.375,509.748 Q2318.2656,510.5605 2319.8594,510.5605 Q2320.7969,510.5605 2321.4531,510.3105 Q2321.8438,510.1543 2322.2656,509.7168 Q2322.5313,509.4512 2322.6719,509.373 Q2322.8281,509.2949 2323.0313,509.2949 Q2323.3594,509.2949 2323.6094,509.5605 Q2323.875,509.8105 2323.875,510.1543 Q2323.875,510.498 2323.5313,510.9043 Q2323.0313,511.4824 2322.2344,511.8105 Q2321.1563,512.2637 2319.8594,512.2637 Q2318.3438,512.2637 2317.1406,511.6387 Q2316.1563,511.1387 2315.4688,510.0762 Q2314.7813,508.998 2314.7813,507.7168 L2314.7813,506.5605 Q2314.7813,505.2324 2315.3906,504.0918 Q2316.0156,502.9355 2317.1094,502.3262 Q2318.2031,501.7012 2319.4375,501.7012 Q2320.1719,501.7012 2320.8125,501.873 Q2321.4688,502.0293 2322.0156,502.3887 Z " fill="#000000"/><text fill="#000000" font-family="sans-serif" font-size="14" lengthAdjust="spacing" textLength="72" x="2339.75" y="512.3105">AquaAviary</text><line style="stroke:#181818;stroke-width:0.5;" x1="2215.5" x2="2503.5" y1="522.5137" y2="522.5137"/><line style="stroke:#181818;stroke-width:0.5;" x1="2215.5" x2="2503.5" y1="530.5137" y2="530.5137"/><ellipse cx="2225.5" cy="545.3242" fill="#84BE84" rx="3" ry="3" style="stroke:#038048;stroke-width:1.0;"/><text fill="#000000" font-family="sans-serif" font-size="14" lengthAdjust="spacing" textLength="264" x="2234.5" y="549.6211">AquaAviary(name : string, totalCount : int)</text><text fill="#000000" font-family="sans-serif" font-size="14" lengthAdjust="spacing" textLength="4" x="2234.5" y="568.2422">&#160;</text><ellipse cx="2225.5" cy="582.5664" fill="#84BE84" rx="3" ry="3" style="stroke:#038048;stroke-width:1.0;"/><text fill="#000000" font-family="sans-serif" font-size="14" lengthAdjust="spacing" textLength="211" x="2234.5" y="586.8633">AddAnimal(animal : Animal) : bool</text></g><!--class LandAviary--><g id="elem_LandAviary"><rect codeLine="86" fill="#F1F1F1" height="85.2422" id="LandAviary" rx="2.5" ry="2.5" style="stroke:#181818;stroke-width:0.5;" width="289" x="2540" y="500.0137"/><ellipse cx="2644.75" cy="516.0137" fill="#ADD1B2" rx="11" ry="11" style="stroke:#181818;stroke-width:1.0;"/><path d="M2647.5156,511.8887 Q2647.6719,511.6699 2647.8594,511.5605 Q2648.0469,511.4512 2648.2656,511.4512 Q2648.6406,511.4512 2648.875,511.7168 Q2649.1094,511.9668 2649.1094,512.5762 L2649.1094,514.0293 Q2649.1094,514.6387 2648.875,514.9043 Q2648.6406,515.1699 2648.2656,515.1699 Q2647.9219,515.1699 2647.7188,514.9668 Q2647.5156,514.7793 2647.4063,514.2637 Q2647.3594,513.9043 2647.1719,513.7168 Q2646.8438,513.3418 2646.2344,513.123 Q2645.625,512.9043 2645,512.9043 Q2644.2344,512.9043 2643.5938,513.2324 Q2642.9688,513.5605 2642.4688,514.3105 Q2641.9844,515.0605 2641.9844,516.0918 L2641.9844,517.1855 Q2641.9844,518.4199 2642.875,519.248 Q2643.7656,520.0605 2645.3594,520.0605 Q2646.2969,520.0605 2646.9531,519.8105 Q2647.3438,519.6543 2647.7656,519.2168 Q2648.0313,518.9512 2648.1719,518.873 Q2648.3281,518.7949 2648.5313,518.7949 Q2648.8594,518.7949 2649.1094,519.0605 Q2649.375,519.3105 2649.375,519.6543 Q2649.375,519.998 2649.0313,520.4043 Q2648.5313,520.9824 2647.7344,521.3105 Q2646.6563,521.7637 2645.3594,521.7637 Q2643.8438,521.7637 2642.6406,521.1387 Q2641.6563,520.6387 2640.9688,519.5762 Q2640.2813,518.498 2640.2813,517.2168 L2640.2813,516.0605 Q2640.2813,514.7324 2640.8906,513.5918 Q2641.5156,512.4355 2642.6094,511.8262 Q2643.7031,511.2012 2644.9375,511.2012 Q2645.6719,511.2012 2646.3125,511.373 Q2646.9688,511.5293 2647.5156,511.8887 Z " fill="#000000"/><text fill="#000000" font-family="sans-serif" font-size="14" lengthAdjust="spacing" textLength="71" x="2665.25" y="521.8105">LandAviary</text><line style="stroke:#181818;stroke-width:0.5;" x1="2541" x2="2828" y1="532.0137" y2="532.0137"/><line style="stroke:#181818;stroke-width:0.5;" x1="2541" x2="2828" y1="540.0137" y2="540.0137"/><ellipse cx="2551" cy="554.8242" fill="#84BE84" rx="3" ry="3" style="stroke:#038048;stroke-width:1.0;"/><text fill="#000000" font-family="sans-serif" font-size="14" lengthAdjust="spacing" textLength="263" x="2560" y="559.1211">LandAviary(name : string, totalCount : int)</text><ellipse cx="2551" cy="573.4453" fill="#84BE84" rx="3" ry="3" style="stroke:#038048;stroke-width:1.0;"/><text fill="#000000" font-family="sans-serif" font-size="14" lengthAdjust="spacing" textLength="211" x="2560" y="577.7422">AddAnimal(animal : Animal) : bool</text></g><!--class ICreator--><g id="elem_ICreator"><rect codeLine="94" fill="#F1F1F1" height="79.2031" id="ICreator" rx="2.5" ry="2.5" style="stroke:#181818;stroke-width:0.5;" width="100" x="1745.5" y="503.0137"/><ellipse cx="1767.7" cy="525.3047" fill="#B4A7E5" rx="11" ry="11" style="stroke:#181818;stroke-width:1.0;"/><path d="M1768.6531,521.9453 L1768.6531,528.6016 L1770.3719,528.6016 Q1770.9813,528.6016 1771.2469,528.8359 Q1771.5125,529.0703 1771.5125,529.4609 Q1771.5125,529.8359 1771.2469,530.0703 Q1770.9813,530.3047 1770.3719,530.3047 L1765.2313,530.3047 Q1764.6219,530.3047 1764.3563,530.0703 Q1764.0906,529.8359 1764.0906,529.4453 Q1764.0906,529.0703 1764.3563,528.8359 Q1764.6219,528.6016 1765.2313,528.6016 L1766.95,528.6016 L1766.95,521.9453 L1765.2313,521.9453 Q1764.6219,521.9453 1764.3563,521.7109 Q1764.0906,521.4766 1764.0906,521.0859 Q1764.0906,520.7109 1764.3563,520.4766 Q1764.6219,520.2422 1765.2313,520.2422 L1770.3719,520.2422 Q1770.9813,520.2422 1771.2469,520.4766 Q1771.5125,520.7109 1771.5125,521.0859 Q1771.5125,521.4766 1771.2469,521.7109 Q1770.9813,521.9453 1770.3719,521.9453 L1768.6531,521.9453 Z " fill="#000000"/><text fill="#000000" font-family="sans-serif" font-size="12" font-style="italic" lengthAdjust="spacing" textLength="21" x="1798.8" y="520.9629">&#171;T&#187;</text><text fill="#000000" font-family="sans-serif" font-size="14" font-style="italic" lengthAdjust="spacing" textLength="52" x="1783.3" y="539.082">ICreator</text><line style="stroke:#181818;stroke-width:0.5;" x1="1746.5" x2="1844.5" y1="547.5957" y2="547.5957"/><line style="stroke:#181818;stroke-width:0.5;" x1="1746.5" x2="1844.5" y1="555.5957" y2="555.5957"/><ellipse cx="1756.5" cy="570.4063" fill="#84BE84" rx="3" ry="3" style="stroke:#038048;stroke-width:1.0;"/><text fill="#000000" font-family="sans-serif" font-size="14" lengthAdjust="spacing" textLength="74" x="1765.5" y="574.7031">Create() : T</text></g><!--class AnimalCreator--><g id="elem_AnimalCreator"><rect codeLine="100" fill="#F1F1F1" height="122.4844" id="AnimalCreator" rx="2.5" ry="2.5" style="stroke:#181818;stroke-width:0.5;" width="199" x="1696" y="691.5137"/><ellipse cx="1746.25" cy="707.5137" fill="#A9DCDF" rx="11" ry="11" style="stroke:#181818;stroke-width:1.0;"/><path d="M1748.4375,709.2793 L1744.2969,709.2793 L1743.875,710.3105 L1744.2969,710.3105 Q1744.9063,710.3105 1745.1719,710.5449 Q1745.4375,710.7793 1745.4375,711.1699 Q1745.4375,711.5449 1745.1719,711.7793 Q1744.9063,712.0137 1744.2969,712.0137 L1742,712.0137 Q1741.3906,712.0137 1741.1406,711.7793 Q1740.875,711.5449 1740.875,711.1543 Q1740.875,710.7793 1741.1563,710.5449 Q1741.4219,710.2949 1742.0469,710.3105 L1744.7188,703.6543 L1743.6094,703.6543 Q1743,703.6543 1742.7344,703.4199 Q1742.4688,703.1855 1742.4688,702.7949 Q1742.4688,702.4199 1742.7344,702.1855 Q1743,701.9512 1743.6094,701.9512 L1747.2813,701.9512 L1750.6719,710.3105 Q1751.2656,710.3105 1751.4531,710.4512 Q1751.8438,710.7168 1751.8438,711.1699 Q1751.8438,711.5449 1751.5781,711.7793 Q1751.3281,712.0137 1750.7188,712.0137 L1748.4219,712.0137 Q1747.8125,712.0137 1747.5469,711.7793 Q1747.2813,711.5449 1747.2813,711.1543 Q1747.2813,710.7793 1747.5469,710.5449 Q1747.8125,710.3105 1748.4219,710.3105 L1748.8438,710.3105 L1748.4375,709.2793 Z M1747.7188,707.5762 L1746.3594,704.2012 L1744.9844,707.5762 L1747.7188,707.5762 Z " fill="#000000"/><text fill="#000000" font-family="sans-serif" font-size="14" font-style="italic" lengthAdjust="spacing" textLength="90" x="1766.75" y="713.3105">AnimalCreator</text><line style="stroke:#181818;stroke-width:0.5;" x1="1697" x2="1894" y1="723.5137" y2="723.5137"/><polygon fill="none" points="1707,733.3242,1711,737.3242,1707,741.3242,1703,737.3242" style="stroke:#B38D22;stroke-width:1.0;"/><text fill="#000000" font-family="sans-serif" font-size="14" lengthAdjust="spacing" textLength="73" x="1716" y="742.6211">kind : string</text><line style="stroke:#181818;stroke-width:0.5;" x1="1697" x2="1894" y1="750.1348" y2="750.1348"/><polygon fill="#FFFF44" points="1707,759.9453,1711,763.9453,1707,767.9453,1703,763.9453" style="stroke:#B38D22;stroke-width:1.0;"/><text fill="#000000" font-family="sans-serif" font-size="14" lengthAdjust="spacing" textLength="173" x="1716" y="769.2422">AnimalCreator(kind : string)</text><text fill="#000000" font-family="sans-serif" font-size="14" lengthAdjust="spacing" textLength="4" x="1716" y="787.8633">&#160;</text><ellipse cx="1707" cy="802.1875" fill="#84BE84" rx="3" ry="3" style="stroke:#038048;stroke-width:1.0;"/><text fill="#000000" font-family="sans-serif" font-size="14" font-style="italic" lengthAdjust="spacing" textLength="107" x="1716" y="806.4844">Create() : Animal</text></g><!--class BirdCreator--><g id="elem_BirdCreator"><rect codeLine="111" fill="#F1F1F1" height="103.8633" id="BirdCreator" rx="2.5" ry="2.5" style="stroke:#181818;stroke-width:0.5;" width="182" x="1249.5" y="873.5137"/><ellipse cx="1299.75" cy="889.5137" fill="#ADD1B2" rx="11" ry="11" style="stroke:#181818;stroke-width:1.0;"/><path d="M1302.5156,885.3887 Q1302.6719,885.1699 1302.8594,885.0605 Q1303.0469,884.9512 1303.2656,884.9512 Q1303.6406,884.9512 1303.875,885.2168 Q1304.1094,885.4668 1304.1094,886.0762 L1304.1094,887.5293 Q1304.1094,888.1387 1303.875,888.4043 Q1303.6406,888.6699 1303.2656,888.6699 Q1302.9219,888.6699 1302.7188,888.4668 Q1302.5156,888.2793 1302.4063,887.7637 Q1302.3594,887.4043 1302.1719,887.2168 Q1301.8438,886.8418 1301.2344,886.623 Q1300.625,886.4043 1300,886.4043 Q1299.2344,886.4043 1298.5938,886.7324 Q1297.9688,887.0605 1297.4688,887.8105 Q1296.9844,888.5605 1296.9844,889.5918 L1296.9844,890.6855 Q1296.9844,891.9199 1297.875,892.748 Q1298.7656,893.5605 1300.3594,893.5605 Q1301.2969,893.5605 1301.9531,893.3105 Q1302.3438,893.1543 1302.7656,892.7168 Q1303.0313,892.4512 1303.1719,892.373 Q1303.3281,892.2949 1303.5313,892.2949 Q1303.8594,892.2949 1304.1094,892.5605 Q1304.375,892.8105 1304.375,893.1543 Q1304.375,893.498 1304.0313,893.9043 Q1303.5313,894.4824 1302.7344,894.8105 Q1301.6563,895.2637 1300.3594,895.2637 Q1298.8438,895.2637 1297.6406,894.6387 Q1296.6563,894.1387 1295.9688,893.0762 Q1295.2813,891.998 1295.2813,890.7168 L1295.2813,889.5605 Q1295.2813,888.2324 1295.8906,887.0918 Q1296.5156,885.9355 1297.6094,885.3262 Q1298.7031,884.7012 1299.9375,884.7012 Q1300.6719,884.7012 1301.3125,884.873 Q1301.9688,885.0293 1302.5156,885.3887 Z " fill="#000000"/><text fill="#000000" font-family="sans-serif" font-size="14" lengthAdjust="spacing" textLength="73" x="1320.25" y="895.3105">BirdCreator</text><line style="stroke:#181818;stroke-width:0.5;" x1="1250.5" x2="1430.5" y1="905.5137" y2="905.5137"/><line style="stroke:#181818;stroke-width:0.5;" x1="1250.5" x2="1430.5" y1="913.5137" y2="913.5137"/><ellipse cx="1260.5" cy="928.3242" fill="#84BE84" rx="3" ry="3" style="stroke:#038048;stroke-width:1.0;"/><text fill="#000000" font-family="sans-serif" font-size="14" lengthAdjust="spacing" textLength="156" x="1269.5" y="932.6211">BirdCreator(kind : string)</text><text fill="#000000" font-family="sans-serif" font-size="14" lengthAdjust="spacing" textLength="4" x="1269.5" y="951.2422">&#160;</text><ellipse cx="1260.5" cy="965.5664" fill="#84BE84" rx="3" ry="3" style="stroke:#038048;stroke-width:1.0;"/><text fill="#000000" font-family="sans-serif" font-size="14" lengthAdjust="spacing" textLength="107" x="1269.5" y="969.8633">Create() : Animal</text></g><!--class FishCreator--><g id="elem_FishCreator"><rect codeLine="119" fill="#F1F1F1" height="103.8633" id="FishCreator" rx="2.5" ry="2.5" style="stroke:#181818;stroke-width:0.5;" width="184" x="1466.5" y="873.5137"/><ellipse cx="1516.75" cy="889.5137" fill="#ADD1B2" rx="11" ry="11" style="stroke:#181818;stroke-width:1.0;"/><path d="M1519.5156,885.3887 Q1519.6719,885.1699 1519.8594,885.0605 Q1520.0469,884.9512 1520.2656,884.9512 Q1520.6406,884.9512 1520.875,885.2168 Q1521.1094,885.4668 1521.1094,886.0762 L1521.1094,887.5293 Q1521.1094,888.1387 1520.875,888.4043 Q1520.6406,888.6699 1520.2656,888.6699 Q1519.9219,888.6699 1519.7188,888.4668 Q1519.5156,888.2793 1519.4063,887.7637 Q1519.3594,887.4043 1519.1719,887.2168 Q1518.8438,886.8418 1518.2344,886.623 Q1517.625,886.4043 1517,886.4043 Q1516.2344,886.4043 1515.5938,886.7324 Q1514.9688,887.0605 1514.4688,887.8105 Q1513.9844,888.5605 1513.9844,889.5918 L1513.9844,890.6855 Q1513.9844,891.9199 1514.875,892.748 Q1515.7656,893.5605 1517.3594,893.5605 Q1518.2969,893.5605 1518.9531,893.3105 Q1519.3438,893.1543 1519.7656,892.7168 Q1520.0313,892.4512 1520.1719,892.373 Q1520.3281,892.2949 1520.5313,892.2949 Q1520.8594,892.2949 1521.1094,892.5605 Q1521.375,892.8105 1521.375,893.1543 Q1521.375,893.498 1521.0313,893.9043 Q1520.5313,894.4824 1519.7344,894.8105 Q1518.6563,895.2637 1517.3594,895.2637 Q1515.8438,895.2637 1514.6406,894.6387 Q1513.6563,894.1387 1512.9688,893.0762 Q1512.2813,891.998 1512.2813,890.7168 L1512.2813,889.5605 Q1512.2813,888.2324 1512.8906,887.0918 Q1513.5156,885.9355 1514.6094,885.3262 Q1515.7031,884.7012 1516.9375,884.7012 Q1517.6719,884.7012 1518.3125,884.873 Q1518.9688,885.0293 1519.5156,885.3887 Z " fill="#000000"/><text fill="#000000" font-family="sans-serif" font-size="14" lengthAdjust="spacing" textLength="75" x="1537.25" y="895.3105">FishCreator</text><line style="stroke:#181818;stroke-width:0.5;" x1="1467.5" x2="1649.5" y1="905.5137" y2="905.5137"/><line style="stroke:#181818;stroke-width:0.5;" x1="1467.5" x2="1649.5" y1="913.5137" y2="913.5137"/><ellipse cx="1477.5" cy="928.3242" fill="#84BE84" rx="3" ry="3" style="stroke:#038048;stroke-width:1.0;"/><text fill="#000000" font-family="sans-serif" font-size="14" lengthAdjust="spacing" textLength="158" x="1486.5" y="932.6211">FishCreator(kind : string)</text><text fill="#000000" font-family="sans-serif" font-size="14" lengthAdjust="spacing" textLength="4" x="1486.5" y="951.2422">&#160;</text><ellipse cx="1477.5" cy="965.5664" fill="#84BE84" rx="3" ry="3" style="stroke:#038048;stroke-width:1.0;"/><text fill="#000000" font-family="sans-serif" font-size="14" lengthAdjust="spacing" textLength="107" x="1486.5" y="969.8633">Create() : Animal</text></g><!--class MammaliaCreator--><g id="elem_MammaliaCreator"><rect codeLine="127" fill="#F1F1F1" height="103.8633" id="MammaliaCreator" rx="2.5" ry="2.5" style="stroke:#181818;stroke-width:0.5;" width="220" x="1685.5" y="873.5137"/><ellipse cx="1735.75" cy="889.5137" fill="#ADD1B2" rx="11" ry="11" style="stroke:#181818;stroke-width:1.0;"/><path d="M1738.5156,885.3887 Q1738.6719,885.1699 1738.8594,885.0605 Q1739.0469,884.9512 1739.2656,884.9512 Q1739.6406,884.9512 1739.875,885.2168 Q1740.1094,885.4668 1740.1094,886.0762 L1740.1094,887.5293 Q1740.1094,888.1387 1739.875,888.4043 Q1739.6406,888.6699 1739.2656,888.6699 Q1738.9219,888.6699 1738.7188,888.4668 Q1738.5156,888.2793 1738.4063,887.7637 Q1738.3594,887.4043 1738.1719,887.2168 Q1737.8438,886.8418 1737.2344,886.623 Q1736.625,886.4043 1736,886.4043 Q1735.2344,886.4043 1734.5938,886.7324 Q1733.9688,887.0605 1733.4688,887.8105 Q1732.9844,888.5605 1732.9844,889.5918 L1732.9844,890.6855 Q1732.9844,891.9199 1733.875,892.748 Q1734.7656,893.5605 1736.3594,893.5605 Q1737.2969,893.5605 1737.9531,893.3105 Q1738.3438,893.1543 1738.7656,892.7168 Q1739.0313,892.4512 1739.1719,892.373 Q1739.3281,892.2949 1739.5313,892.2949 Q1739.8594,892.2949 1740.1094,892.5605 Q1740.375,892.8105 1740.375,893.1543 Q1740.375,893.498 1740.0313,893.9043 Q1739.5313,894.4824 1738.7344,894.8105 Q1737.6563,895.2637 1736.3594,895.2637 Q1734.8438,895.2637 1733.6406,894.6387 Q1732.6563,894.1387 1731.9688,893.0762 Q1731.2813,891.998 1731.2813,890.7168 L1731.2813,889.5605 Q1731.2813,888.2324 1731.8906,887.0918 Q1732.5156,885.9355 1733.6094,885.3262 Q1734.7031,884.7012 1735.9375,884.7012 Q1736.6719,884.7012 1737.3125,884.873 Q1737.9688,885.0293 1738.5156,885.3887 Z " fill="#000000"/><text fill="#000000" font-family="sans-serif" font-size="14" lengthAdjust="spacing" textLength="111" x="1756.25" y="895.3105">MammaliaCreator</text><line style="stroke:#181818;stroke-width:0.5;" x1="1686.5" x2="1904.5" y1="905.5137" y2="905.5137"/><line style="stroke:#181818;stroke-width:0.5;" x1="1686.5" x2="1904.5" y1="913.5137" y2="913.5137"/><ellipse cx="1696.5" cy="928.3242" fill="#84BE84" rx="3" ry="3" style="stroke:#038048;stroke-width:1.0;"/><text fill="#000000" font-family="sans-serif" font-size="14" lengthAdjust="spacing" textLength="194" x="1705.5" y="932.6211">MammaliaCreator(kind : string)</text><text fill="#000000" font-family="sans-serif" font-size="14" lengthAdjust="spacing" textLength="4" x="1705.5" y="951.2422">&#160;</text><ellipse cx="1696.5" cy="965.5664" fill="#84BE84" rx="3" ry="3" style="stroke:#038048;stroke-width:1.0;"/><text fill="#000000" font-family="sans-serif" font-size="14" lengthAdjust="spacing" textLength="107" x="1705.5" y="969.8633">Create() : Animal</text></g><!--class InsectCreator--><g id="elem_InsectCreator"><rect codeLine="135" fill="#F1F1F1" height="103.8633" id="InsectCreator" rx="2.5" ry="2.5" style="stroke:#181818;stroke-width:0.5;" width="194" x="1940.5" y="873.5137"/><ellipse cx="1990.75" cy="889.5137" fill="#ADD1B2" rx="11" ry="11" style="stroke:#181818;stroke-width:1.0;"/><path d="M1993.5156,885.3887 Q1993.6719,885.1699 1993.8594,885.0605 Q1994.0469,884.9512 1994.2656,884.9512 Q1994.6406,884.9512 1994.875,885.2168 Q1995.1094,885.4668 1995.1094,886.0762 L1995.1094,887.5293 Q1995.1094,888.1387 1994.875,888.4043 Q1994.6406,888.6699 1994.2656,888.6699 Q1993.9219,888.6699 1993.7188,888.4668 Q1993.5156,888.2793 1993.4063,887.7637 Q1993.3594,887.4043 1993.1719,887.2168 Q1992.8438,886.8418 1992.2344,886.623 Q1991.625,886.4043 1991,886.4043 Q1990.2344,886.4043 1989.5938,886.7324 Q1988.9688,887.0605 1988.4688,887.8105 Q1987.9844,888.5605 1987.9844,889.5918 L1987.9844,890.6855 Q1987.9844,891.9199 1988.875,892.748 Q1989.7656,893.5605 1991.3594,893.5605 Q1992.2969,893.5605 1992.9531,893.3105 Q1993.3438,893.1543 1993.7656,892.7168 Q1994.0313,892.4512 1994.1719,892.373 Q1994.3281,892.2949 1994.5313,892.2949 Q1994.8594,892.2949 1995.1094,892.5605 Q1995.375,892.8105 1995.375,893.1543 Q1995.375,893.498 1995.0313,893.9043 Q1994.5313,894.4824 1993.7344,894.8105 Q1992.6563,895.2637 1991.3594,895.2637 Q1989.8438,895.2637 1988.6406,894.6387 Q1987.6563,894.1387 1986.9688,893.0762 Q1986.2813,891.998 1986.2813,890.7168 L1986.2813,889.5605 Q1986.2813,888.2324 1986.8906,887.0918 Q1987.5156,885.9355 1988.6094,885.3262 Q1989.7031,884.7012 1990.9375,884.7012 Q1991.6719,884.7012 1992.3125,884.873 Q1992.9688,885.0293 1993.5156,885.3887 Z " fill="#000000"/><text fill="#000000" font-family="sans-serif" font-size="14" lengthAdjust="spacing" textLength="85" x="2011.25" y="895.3105">InsectCreator</text><line style="stroke:#181818;stroke-width:0.5;" x1="1941.5" x2="2133.5" y1="905.5137" y2="905.5137"/><line style="stroke:#181818;stroke-width:0.5;" x1="1941.5" x2="2133.5" y1="913.5137" y2="913.5137"/><ellipse cx="1951.5" cy="928.3242" fill="#84BE84" rx="3" ry="3" style="stroke:#038048;stroke-width:1.0;"/><text fill="#000000" font-family="sans-serif" font-size="14" lengthAdjust="spacing" textLength="168" x="1960.5" y="932.6211">InsectCreator(kind : string)</text><text fill="#000000" font-family="sans-serif" font-size="14" lengthAdjust="spacing" textLength="4" x="1960.5" y="951.2422">&#160;</text><ellipse cx="1951.5" cy="965.5664" fill="#84BE84" rx="3" ry="3" style="stroke:#038048;stroke-width:1.0;"/><text fill="#000000" font-family="sans-serif" font-size="14" lengthAdjust="spacing" textLength="107" x="1960.5" y="969.8633">Create() : Animal</text></g><!--class AviaryCreator--><g id="elem_AviaryCreator"><rect codeLine="144" fill="#F1F1F1" height="141.1055" id="AviaryCreator" rx="2.5" ry="2.5" style="stroke:#181818;stroke-width:0.5;" width="275" x="902" y="472.0137"/><ellipse cx="992.25" cy="488.0137" fill="#A9DCDF" rx="11" ry="11" style="stroke:#181818;stroke-width:1.0;"/><path d="M994.4375,489.7793 L990.2969,489.7793 L989.875,490.8105 L990.2969,490.8105 Q990.9063,490.8105 991.1719,491.0449 Q991.4375,491.2793 991.4375,491.6699 Q991.4375,492.0449 991.1719,492.2793 Q990.9063,492.5137 990.2969,492.5137 L988,492.5137 Q987.3906,492.5137 987.1406,492.2793 Q986.875,492.0449 986.875,491.6543 Q986.875,491.2793 987.1563,491.0449 Q987.4219,490.7949 988.0469,490.8105 L990.7188,484.1543 L989.6094,484.1543 Q989,484.1543 988.7344,483.9199 Q988.4688,483.6855 988.4688,483.2949 Q988.4688,482.9199 988.7344,482.6855 Q989,482.4512 989.6094,482.4512 L993.2813,482.4512 L996.6719,490.8105 Q997.2656,490.8105 997.4531,490.9512 Q997.8438,491.2168 997.8438,491.6699 Q997.8438,492.0449 997.5781,492.2793 Q997.3281,492.5137 996.7188,492.5137 L994.4219,492.5137 Q993.8125,492.5137 993.5469,492.2793 Q993.2813,492.0449 993.2813,491.6543 Q993.2813,491.2793 993.5469,491.0449 Q993.8125,490.8105 994.4219,490.8105 L994.8438,490.8105 L994.4375,489.7793 Z M993.7188,488.0762 L992.3594,484.7012 L990.9844,488.0762 L993.7188,488.0762 Z " fill="#000000"/><text fill="#000000" font-family="sans-serif" font-size="14" font-style="italic" lengthAdjust="spacing" textLength="86" x="1012.75" y="493.8105">AviaryCreator</text><line style="stroke:#181818;stroke-width:0.5;" x1="903" x2="1176" y1="504.0137" y2="504.0137"/><polygon fill="none" points="913,513.8242,917,517.8242,913,521.8242,909,517.8242" style="stroke:#B38D22;stroke-width:1.0;"/><text fill="#000000" font-family="sans-serif" font-size="14" lengthAdjust="spacing" textLength="82" x="922" y="523.1211">name : string</text><polygon fill="none" points="913,532.4453,917,536.4453,913,540.4453,909,536.4453" style="stroke:#B38D22;stroke-width:1.0;"/><text fill="#000000" font-family="sans-serif" font-size="14" lengthAdjust="spacing" textLength="62" x="922" y="541.7422">count : int</text><line style="stroke:#181818;stroke-width:0.5;" x1="903" x2="1176" y1="549.2559" y2="549.2559"/><polygon fill="#FFFF44" points="913,559.0664,917,563.0664,913,567.0664,909,563.0664" style="stroke:#B38D22;stroke-width:1.0;"/><text fill="#000000" font-family="sans-serif" font-size="14" lengthAdjust="spacing" textLength="249" x="922" y="568.3633">AviaryCreator(name : string, count : int)</text><text fill="#000000" font-family="sans-serif" font-size="14" lengthAdjust="spacing" textLength="4" x="922" y="586.9844">&#160;</text><ellipse cx="913" cy="601.3086" fill="#84BE84" rx="3" ry="3" style="stroke:#038048;stroke-width:1.0;"/><text fill="#000000" font-family="sans-serif" font-size="14" font-style="italic" lengthAdjust="spacing" textLength="103" x="922" y="605.6055">Create() : Aviary</text></g><!--class LandAviaryCreator--><g id="elem_LandAviaryCreator"><rect codeLine="156" fill="#F1F1F1" height="103.8633" id="LandAviaryCreator" rx="2.5" ry="2.5" style="stroke:#181818;stroke-width:0.5;" width="307" x="886" y="700.5137"/><ellipse cx="975.75" cy="716.5137" fill="#ADD1B2" rx="11" ry="11" style="stroke:#181818;stroke-width:1.0;"/><path d="M978.5156,712.3887 Q978.6719,712.1699 978.8594,712.0605 Q979.0469,711.9512 979.2656,711.9512 Q979.6406,711.9512 979.875,712.2168 Q980.1094,712.4668 980.1094,713.0762 L980.1094,714.5293 Q980.1094,715.1387 979.875,715.4043 Q979.6406,715.6699 979.2656,715.6699 Q978.9219,715.6699 978.7188,715.4668 Q978.5156,715.2793 978.4063,714.7637 Q978.3594,714.4043 978.1719,714.2168 Q977.8438,713.8418 977.2344,713.623 Q976.625,713.4043 976,713.4043 Q975.2344,713.4043 974.5938,713.7324 Q973.9688,714.0605 973.4688,714.8105 Q972.9844,715.5605 972.9844,716.5918 L972.9844,717.6855 Q972.9844,718.9199 973.875,719.748 Q974.7656,720.5605 976.3594,720.5605 Q977.2969,720.5605 977.9531,720.3105 Q978.3438,720.1543 978.7656,719.7168 Q979.0313,719.4512 979.1719,719.373 Q979.3281,719.2949 979.5313,719.2949 Q979.8594,719.2949 980.1094,719.5605 Q980.375,719.8105 980.375,720.1543 Q980.375,720.498 980.0313,720.9043 Q979.5313,721.4824 978.7344,721.8105 Q977.6563,722.2637 976.3594,722.2637 Q974.8438,722.2637 973.6406,721.6387 Q972.6563,721.1387 971.9688,720.0762 Q971.2813,718.998 971.2813,717.7168 L971.2813,716.5605 Q971.2813,715.2324 971.8906,714.0918 Q972.5156,712.9355 973.6094,712.3262 Q974.7031,711.7012 975.9375,711.7012 Q976.6719,711.7012 977.3125,711.873 Q977.9688,712.0293 978.5156,712.3887 Z " fill="#000000"/><text fill="#000000" font-family="sans-serif" font-size="14" lengthAdjust="spacing" textLength="119" x="996.25" y="722.3105">LandAviaryCreator</text><line style="stroke:#181818;stroke-width:0.5;" x1="887" x2="1192" y1="732.5137" y2="732.5137"/><line style="stroke:#181818;stroke-width:0.5;" x1="887" x2="1192" y1="740.5137" y2="740.5137"/><ellipse cx="897" cy="755.3242" fill="#84BE84" rx="3" ry="3" style="stroke:#038048;stroke-width:1.0;"/><text fill="#000000" font-family="sans-serif" font-size="14" lengthAdjust="spacing" textLength="281" x="906" y="759.6211">LandAviaryCreator(name : string, count : int)</text><text fill="#000000" font-family="sans-serif" font-size="14" lengthAdjust="spacing" textLength="4" x="906" y="778.2422">&#160;</text><ellipse cx="897" cy="792.5664" fill="#84BE84" rx="3" ry="3" style="stroke:#038048;stroke-width:1.0;"/><text fill="#000000" font-family="sans-serif" font-size="14" lengthAdjust="spacing" textLength="104" x="906" y="796.8633">Create() : Aviary</text></g><!--class AquaAviaryCreator--><g id="elem_AquaAviaryCreator"><rect codeLine="165" fill="#F1F1F1" height="103.8633" id="AquaAviaryCreator" rx="2.5" ry="2.5" style="stroke:#181818;stroke-width:0.5;" width="308" x="542.5" y="700.5137"/><ellipse cx="632.25" cy="716.5137" fill="#ADD1B2" rx="11" ry="11" style="stroke:#181818;stroke-width:1.0;"/><path d="M635.0156,712.3887 Q635.1719,712.1699 635.3594,712.0605 Q635.5469,711.9512 635.7656,711.9512 Q636.1406,711.9512 636.375,712.2168 Q636.6094,712.4668 636.6094,713.0762 L636.6094,714.5293 Q636.6094,715.1387 636.375,715.4043 Q636.1406,715.6699 635.7656,715.6699 Q635.4219,715.6699 635.2188,715.4668 Q635.0156,715.2793 634.9063,714.7637 Q634.8594,714.4043 634.6719,714.2168 Q634.3438,713.8418 633.7344,713.623 Q633.125,713.4043 632.5,713.4043 Q631.7344,713.4043 631.0938,713.7324 Q630.4688,714.0605 629.9688,714.8105 Q629.4844,715.5605 629.4844,716.5918 L629.4844,717.6855 Q629.4844,718.9199 630.375,719.748 Q631.2656,720.5605 632.8594,720.5605 Q633.7969,720.5605 634.4531,720.3105 Q634.8438,720.1543 635.2656,719.7168 Q635.5313,719.4512 635.6719,719.373 Q635.8281,719.2949 636.0313,719.2949 Q636.3594,719.2949 636.6094,719.5605 Q636.875,719.8105 636.875,720.1543 Q636.875,720.498 636.5313,720.9043 Q636.0313,721.4824 635.2344,721.8105 Q634.1563,722.2637 632.8594,722.2637 Q631.3438,722.2637 630.1406,721.6387 Q629.1563,721.1387 628.4688,720.0762 Q627.7813,718.998 627.7813,717.7168 L627.7813,716.5605 Q627.7813,715.2324 628.3906,714.0918 Q629.0156,712.9355 630.1094,712.3262 Q631.2031,711.7012 632.4375,711.7012 Q633.1719,711.7012 633.8125,711.873 Q634.4688,712.0293 635.0156,712.3887 Z " fill="#000000"/><text fill="#000000" font-family="sans-serif" font-size="14" lengthAdjust="spacing" textLength="120" x="652.75" y="722.3105">AquaAviaryCreator</text><line style="stroke:#181818;stroke-width:0.5;" x1="543.5" x2="849.5" y1="732.5137" y2="732.5137"/><line style="stroke:#181818;stroke-width:0.5;" x1="543.5" x2="849.5" y1="740.5137" y2="740.5137"/><ellipse cx="553.5" cy="755.3242" fill="#84BE84" rx="3" ry="3" style="stroke:#038048;stroke-width:1.0;"/><text fill="#000000" font-family="sans-serif" font-size="14" lengthAdjust="spacing" textLength="282" x="562.5" y="759.6211">AquaAviaryCreator(name : string, count : int)</text><text fill="#000000" font-family="sans-serif" font-size="14" lengthAdjust="spacing" textLength="4" x="562.5" y="778.2422">&#160;</text><ellipse cx="553.5" cy="792.5664" fill="#84BE84" rx="3" ry="3" style="stroke:#038048;stroke-width:1.0;"/><text fill="#000000" font-family="sans-serif" font-size="14" lengthAdjust="spacing" textLength="104" x="562.5" y="796.8633">Create() : Aviary</text></g><!--class AnimalType--><g id="elem_AnimalType"><rect codeLine="174" fill="#F1F1F1" height="122.4844" id="AnimalType" rx="2.5" ry="2.5" style="stroke:#181818;stroke-width:0.5;" width="106" x="263.5" y="224.0137"/><ellipse cx="278.5" cy="240.0137" fill="#EB937F" rx="11" ry="11" style="stroke:#181818;stroke-width:1.0;"/><path d="M277.3594,240.8105 L277.3594,243.3105 L281.6875,243.3105 L281.6875,242.3887 Q281.6875,241.7793 281.9219,241.5137 Q282.1719,241.248 282.5469,241.248 Q282.9219,241.248 283.1563,241.5137 Q283.3906,241.7793 283.3906,242.3887 L283.3906,245.0137 L275.3906,245.0137 Q274.7656,245.0137 274.5,244.7793 Q274.25,244.5449 274.25,244.1543 Q274.25,243.7793 274.5156,243.5449 Q274.7813,243.3105 275.3906,243.3105 L275.6563,243.3105 L275.6563,236.6543 L275.3906,236.6543 Q274.7656,236.6543 274.5,236.4199 Q274.25,236.1855 274.25,235.7949 Q274.25,235.4199 274.5,235.1855 Q274.7656,234.9512 275.3906,234.9512 L283.0156,234.9512 L283.0156,237.5449 Q283.0156,238.1543 282.7813,238.4199 Q282.5625,238.6699 282.1719,238.6699 Q281.7969,238.6699 281.5625,238.4199 Q281.3281,238.1543 281.3281,237.5449 L281.3281,236.6543 L277.3594,236.6543 L277.3594,239.1074 L278.8438,239.1074 Q278.8438,238.4512 278.9688,238.2637 Q279.2344,237.8574 279.7031,237.8574 Q280.0781,237.8574 280.3125,238.123 Q280.5469,238.373 280.5469,238.9824 L280.5469,240.9512 Q280.5469,241.498 280.4219,241.6855 Q280.1563,242.0762 279.7031,242.0762 Q279.2344,242.0762 278.9688,241.6699 Q278.8438,241.4824 278.8438,240.8105 L277.3594,240.8105 Z " fill="#000000"/><text fill="#000000" font-family="sans-serif" font-size="14" lengthAdjust="spacing" textLength="74" x="292.5" y="245.8105">AnimalType</text><line style="stroke:#181818;stroke-width:0.5;" x1="264.5" x2="368.5" y1="256.0137" y2="256.0137"/><text fill="#000000" font-family="sans-serif" font-size="14" lengthAdjust="spacing" textLength="25" x="269.5" y="275.1211">Bird</text><text fill="#000000" font-family="sans-serif" font-size="14" lengthAdjust="spacing" textLength="27" x="269.5" y="293.7422">Fish</text><text fill="#000000" font-family="sans-serif" font-size="14" lengthAdjust="spacing" textLength="37" x="269.5" y="312.3633">Insect</text><text fill="#000000" font-family="sans-serif" font-size="14" lengthAdjust="spacing" textLength="63" x="269.5" y="330.9844">Mammalia</text><line style="stroke:#181818;stroke-width:0.5;" x1="264.5" x2="368.5" y1="338.498" y2="338.498"/></g><!--class AviaryType--><g id="elem_AviaryType"><rect codeLine="181" fill="#F1F1F1" height="85.2422" id="AviaryType" rx="2.5" ry="2.5" style="stroke:#181818;stroke-width:0.5;" width="103" x="125" y="242.5137"/><ellipse cx="140" cy="258.5137" fill="#EB937F" rx="11" ry="11" style="stroke:#181818;stroke-width:1.0;"/><path d="M138.8594,259.3105 L138.8594,261.8105 L143.1875,261.8105 L143.1875,260.8887 Q143.1875,260.2793 143.4219,260.0137 Q143.6719,259.748 144.0469,259.748 Q144.4219,259.748 144.6563,260.0137 Q144.8906,260.2793 144.8906,260.8887 L144.8906,263.5137 L136.8906,263.5137 Q136.2656,263.5137 136,263.2793 Q135.75,263.0449 135.75,262.6543 Q135.75,262.2793 136.0156,262.0449 Q136.2813,261.8105 136.8906,261.8105 L137.1563,261.8105 L137.1563,255.1543 L136.8906,255.1543 Q136.2656,255.1543 136,254.9199 Q135.75,254.6855 135.75,254.2949 Q135.75,253.9199 136,253.6855 Q136.2656,253.4512 136.8906,253.4512 L144.5156,253.4512 L144.5156,256.0449 Q144.5156,256.6543 144.2813,256.9199 Q144.0625,257.1699 143.6719,257.1699 Q143.2969,257.1699 143.0625,256.9199 Q142.8281,256.6543 142.8281,256.0449 L142.8281,255.1543 L138.8594,255.1543 L138.8594,257.6074 L140.3438,257.6074 Q140.3438,256.9512 140.4688,256.7637 Q140.7344,256.3574 141.2031,256.3574 Q141.5781,256.3574 141.8125,256.623 Q142.0469,256.873 142.0469,257.4824 L142.0469,259.4512 Q142.0469,259.998 141.9219,260.1855 Q141.6563,260.5762 141.2031,260.5762 Q140.7344,260.5762 140.4688,260.1699 Q140.3438,259.9824 140.3438,259.3105 L138.8594,259.3105 Z " fill="#000000"/><text fill="#000000" font-family="sans-serif" font-size="14" lengthAdjust="spacing" textLength="71" x="154" y="264.3105">AviaryType</text><line style="stroke:#181818;stroke-width:0.5;" x1="126" x2="227" y1="274.5137" y2="274.5137"/><text fill="#000000" font-family="sans-serif" font-size="14" lengthAdjust="spacing" textLength="33" x="131" y="293.6211">Aqua</text><text fill="#000000" font-family="sans-serif" font-size="14" lengthAdjust="spacing" textLength="32" x="131" y="312.2422">Land</text><line style="stroke:#181818;stroke-width:0.5;" x1="126" x2="227" y1="319.7559" y2="319.7559"/></g><!--class Zoo--><g id="elem_Zoo"><rect codeLine="192" fill="#F1F1F1" height="178.3477" id="Zoo" rx="2.5" ry="2.5" style="stroke:#181818;stroke-width:0.5;" width="479" x="7" y="453.5137"/><ellipse cx="230.25" cy="469.5137" fill="#ADD1B2" rx="11" ry="11" style="stroke:#181818;stroke-width:1.0;"/><path d="M233.0156,465.3887 Q233.1719,465.1699 233.3594,465.0605 Q233.5469,464.9512 233.7656,464.9512 Q234.1406,464.9512 234.375,465.2168 Q234.6094,465.4668 234.6094,466.0762 L234.6094,467.5293 Q234.6094,468.1387 234.375,468.4043 Q234.1406,468.6699 233.7656,468.6699 Q233.4219,468.6699 233.2188,468.4668 Q233.0156,468.2793 232.9063,467.7637 Q232.8594,467.4043 232.6719,467.2168 Q232.3438,466.8418 231.7344,466.623 Q231.125,466.4043 230.5,466.4043 Q229.7344,466.4043 229.0938,466.7324 Q228.4688,467.0605 227.9688,467.8105 Q227.4844,468.5605 227.4844,469.5918 L227.4844,470.6855 Q227.4844,471.9199 228.375,472.748 Q229.2656,473.5605 230.8594,473.5605 Q231.7969,473.5605 232.4531,473.3105 Q232.8438,473.1543 233.2656,472.7168 Q233.5313,472.4512 233.6719,472.373 Q233.8281,472.2949 234.0313,472.2949 Q234.3594,472.2949 234.6094,472.5605 Q234.875,472.8105 234.875,473.1543 Q234.875,473.498 234.5313,473.9043 Q234.0313,474.4824 233.2344,474.8105 Q232.1563,475.2637 230.8594,475.2637 Q229.3438,475.2637 228.1406,474.6387 Q227.1563,474.1387 226.4688,473.0762 Q225.7813,471.998 225.7813,470.7168 L225.7813,469.5605 Q225.7813,468.2324 226.3906,467.0918 Q227.0156,465.9355 228.1094,465.3262 Q229.2031,464.7012 230.4375,464.7012 Q231.1719,464.7012 231.8125,464.873 Q232.4688,465.0293 233.0156,465.3887 Z " fill="#000000"/><text fill="#000000" font-family="sans-serif" font-size="14" lengthAdjust="spacing" textLength="24" x="250.75" y="475.3105">Zoo</text><line style="stroke:#181818;stroke-width:0.5;" x1="8" x2="485" y1="485.5137" y2="485.5137"/><ellipse cx="18" cy="500.3242" fill="none" rx="3" ry="3" style="stroke:#038048;stroke-width:1.0;"/><text fill="#000000" font-family="sans-serif" font-size="14" lengthAdjust="spacing" textLength="104" x="27" y="504.6211">totalAviaries : int</text><ellipse cx="18" cy="518.9453" fill="none" rx="3" ry="3" style="stroke:#038048;stroke-width:1.0;"/><text fill="#000000" font-family="sans-serif" font-size="14" lengthAdjust="spacing" textLength="108" x="27" y="523.2422">aviaries : Aviary[]</text><ellipse cx="18" cy="537.5664" fill="none" rx="3" ry="3" style="stroke:#038048;stroke-width:1.0;"/><text fill="#000000" font-family="sans-serif" font-size="14" lengthAdjust="spacing" textLength="110" x="27" y="541.8633">animals : Animal[]</text><line style="stroke:#181818;stroke-width:0.5;" x1="8" x2="485" y1="549.377" y2="549.377"/><ellipse cx="18" cy="564.1875" fill="#84BE84" rx="3" ry="3" style="stroke:#038048;stroke-width:1.0;"/><text fill="#000000" font-family="sans-serif" font-size="14" lengthAdjust="spacing" textLength="34" x="27" y="568.4844">Zoo()</text><text fill="#000000" font-family="sans-serif" font-size="14" lengthAdjust="spacing" textLength="4" x="27" y="587.1055">&#160;</text><ellipse cx="18" cy="601.4297" fill="#84BE84" rx="3" ry="3" style="stroke:#038048;stroke-width:1.0;"/><text fill="#000000" font-family="sans-serif" font-size="14" lengthAdjust="spacing" textLength="453" x="27" y="605.7266">AddAnimal(kind : string, animalType : AnimalType, aviary : Aviary) : bool</text><ellipse cx="18" cy="620.0508" fill="#84BE84" rx="3" ry="3" style="stroke:#038048;stroke-width:1.0;"/><text fill="#000000" font-family="sans-serif" font-size="14" lengthAdjust="spacing" textLength="426" x="27" y="624.3477">AddAviary(name : string, count : int, aviaryType : AviaryType) : bool</text></g><!--reverse link Animal to Bird--><g id="link_Animal_Bird"><path codeLine="24" d="M1939.7697,88.6182 C1876.3197,92.8382 1804,106.0237 1739.5,151.0137 C1713.65,169.0437 1693.87,197.7137 1679.93,223.8237 " fill="none" id="Animal-backto-Bird" style="stroke:#181818;stroke-width:1.0;"/><polygon fill="none" points="1957.73,87.4237,1939.3715,82.6314,1940.1679,94.605,1957.73,87.4237" style="stroke:#181818;stroke-width:1.0;"/></g><!--reverse link IFlying to Bird--><g id="link_IFlying_Bird"><path codeLine="25" d="M1169.3128,130.0459 C1181.8328,139.5759 1182.28,137.9037 1197.5,143.0137 C1217.09,149.5937 1551.48,140.8937 1569.5,151.0137 C1597.81,166.9137 1618.13,196.5937 1631.78,223.8837 " fill="none" id="IFlying-backto-Bird" style="stroke:#181818;stroke-width:1.0;stroke-dasharray:7.0,7.0;"/><polygon fill="none" points="1154.99,119.1437,1165.6787,134.8202,1172.9468,125.2716,1154.99,119.1437" style="stroke:#181818;stroke-width:1.0;"/></g><!--reverse link IWalking to Bird--><g id="link_IWalking_Bird"><path codeLine="26" d="M1349.4298,127.699 C1366.8098,137.159 1370.99,137.7537 1390.5,143.0137 C1409.72,148.1937 1552.26,141.0637 1569.5,151.0137 C1597.51,167.1737 1617.75,196.6937 1631.45,223.8237 " fill="none" id="IWalking-backto-Bird" style="stroke:#181818;stroke-width:1.0;stroke-dasharray:7.0,7.0;"/><polygon fill="none" points="1333.62,119.0937,1346.5613,132.9689,1352.2982,122.4291,1333.62,119.0937" style="stroke:#181818;stroke-width:1.0;"/></g><!--reverse link Animal to Fish--><g id="link_Animal_Fish"><path codeLine="34" d="M1939.9149,90.6395 C1825.6949,96.6495 1633.72,111.8537 1570.5,151.0137 C1539.58,170.1637 1516.6,204.1637 1501.46,232.9937 " fill="none" id="Animal-backto-Fish" style="stroke:#181818;stroke-width:1.0;"/><polygon fill="none" points="1957.89,89.6937,1939.5996,84.6478,1940.2301,96.6312,1957.89,89.6937" style="stroke:#181818;stroke-width:1.0;"/></g><!--reverse link ISwimming to Fish--><g id="link_ISwimming_Fish"><path codeLine="35" d="M1014.069,128.8835 C1027.479,137.3135 1027.12,136.3137 1041.5,143.0137 C1164.96,200.5337 1318.25,243.9837 1406.88,266.5837 " fill="none" id="ISwimming-backto-Fish" style="stroke:#181818;stroke-width:1.0;stroke-dasharray:7.0,7.0;"/><polygon fill="none" points="998.83,119.3037,1010.8758,133.9631,1017.2623,123.8038,998.83,119.3037" style="stroke:#181818;stroke-width:1.0;"/></g><!--reverse link Animal to Mammalia--><g id="link_Animal_Mammalia"><path codeLine="42" d="M2030.4711,146.3707 C2028.9311,176.8307 2027.74,200.2637 2026.1,232.7137 " fill="none" id="Animal-backto-Mammalia" style="stroke:#181818;stroke-width:1.0;"/><polygon fill="none" points="2031.38,128.3937,2024.4788,146.0677,2036.4635,146.6737,2031.38,128.3937" style="stroke:#181818;stroke-width:1.0;"/></g><!--reverse link IWalking to Mammalia--><g id="link_IWalking_Mammalia"><path codeLine="43" d="M1348.7673,127.7802 C1366.2773,137.3702 1370.71,137.9937 1390.5,143.0137 C1419.04,150.2537 1894.16,137.8537 1920.5,151.0137 C1954.98,168.2437 1981.29,203.0737 1998.68,232.7637 " fill="none" id="IWalking-backto-Mammalia" style="stroke:#181818;stroke-width:1.0;stroke-dasharray:7.0,7.0;"/><polygon fill="none" points="1332.98,119.1337,1345.8851,133.0426,1351.6494,122.5177,1332.98,119.1337" style="stroke:#181818;stroke-width:1.0;"/></g><!--reverse link Animal to Insect--><g id="link_Animal_Insect"><path codeLine="50" d="M1942.5541,132.7601 C1929.3541,140.9101 1931.63,140.7537 1920.5,151.0137 C1897.87,171.8737 1877.89,199.3637 1862.45,223.9337 " fill="none" id="Animal-backto-Insect" style="stroke:#181818;stroke-width:1.0;"/><polygon fill="none" points="1957.87,123.3037,1939.402,127.6548,1945.7062,137.8654,1957.87,123.3037" style="stroke:#181818;stroke-width:1.0;"/></g><!--reverse link IFlying to Insect--><g id="link_IFlying_Insect"><path codeLine="51" d="M1169.2872,130.1131 C1181.8072,139.6531 1182.27,137.9537 1197.5,143.0137 C1226.08,152.5137 1713,136.7037 1739.5,151.0137 C1768.57,166.7137 1790.01,196.3837 1804.66,223.7137 " fill="none" id="IFlying-backto-Insect" style="stroke:#181818;stroke-width:1.0;stroke-dasharray:7.0,7.0;"/><polygon fill="none" points="1154.97,119.2037,1165.6508,134.8856,1172.9237,125.3407,1154.97,119.2037" style="stroke:#181818;stroke-width:1.0;"/></g><!--reverse link IWalking to Insect--><g id="link_IWalking_Insect"><path codeLine="52" d="M1348.7894,127.6864 C1366.3094,137.2764 1370.73,137.9137 1390.5,143.0137 C1409.28,147.8537 1722.47,141.7237 1739.5,151.0137 C1768.5,166.8337 1789.94,196.5037 1804.6,223.8137 " fill="none" id="IWalking-backto-Insect" style="stroke:#181818;stroke-width:1.0;stroke-dasharray:7.0,7.0;"/><polygon fill="none" points="1333,119.0437,1345.9085,132.9495,1351.6703,122.4232,1333,119.0437" style="stroke:#181818;stroke-width:1.0;"/></g><!--link Animal to Aviary--><g id="link_Animal_Aviary"><path codeLine="62" d="M2114.6004,114.1081 C2140.7504,124.4381 2164.03,135.4437 2188.5,151.0137 C2208.75,163.8937 2219.7955,171.7872 2238.3055,187.9272 " fill="none" id="Animal-Aviary" style="stroke:#181818;stroke-width:1.0;"/><polygon fill="#181818" points="2109.02,111.9037,2115.921,118.9305,2113.6703,113.7407,2118.8602,111.49,2109.02,111.9037" style="stroke:#181818;stroke-width:1.0;"/><polygon fill="none" points="2247.35,195.8137,2245.4566,188.8556,2238.3055,187.9272,2240.1989,194.8853,2247.35,195.8137" style="stroke:#181818;stroke-width:1.0;"/></g><!--reverse link Aviary to AquaAviary--><g id="link_Aviary_AquaAviary"><path codeLine="74" d="M2344.8945,392.218 C2348.6945,431.018 2351.26,457.2837 2354.51,490.4937 " fill="none" id="Aviary-backto-AquaAviary" style="stroke:#181818;stroke-width:1.0;"/><polygon fill="none" points="2343.14,374.3037,2338.9231,392.8028,2350.8659,391.6331,2343.14,374.3037" style="stroke:#181818;stroke-width:1.0;"/></g><!--reverse link Animal to AquaAviary--><g id="link_Animal_AquaAviary"><path codeLine="75" d="M2115.1095,86.3826 C2227.5995,87.8626 2424.71,97.9637 2470.5,151.0137 C2555.59,249.5837 2460.05,409.2637 2400.28,490.5137 " fill="none" id="Animal-backto-AquaAviary" style="stroke:#181818;stroke-width:1.0;"/><polygon fill="#181818" points="2109.11,86.3037,2118.0566,90.4217,2114.1096,86.3694,2118.1618,82.4224,2109.11,86.3037" style="stroke:#181818;stroke-width:1.0;"/></g><!--reverse link Aviary to LandAviary--><g id="link_Aviary_LandAviary"><path codeLine="83" d="M2468.9814,348.0373 C2492.7614,360.6873 2501.1,366.5737 2522.5,382.0137 C2570.52,416.6437 2617.88,465.4537 2648.87,499.9337 " fill="none" id="Aviary-backto-LandAviary" style="stroke:#181818;stroke-width:1.0;"/><polygon fill="none" points="2453.09,339.5837,2466.1635,353.3344,2471.7993,342.7401,2453.09,339.5837" style="stroke:#181818;stroke-width:1.0;"/></g><!--reverse link Animal to LandAviary--><g id="link_Animal_LandAviary"><path codeLine="84" d="M2115.2773,88.0641 C2233.9373,91.6341 2450.47,104.3537 2512.5,151.0137 C2627.65,237.6237 2667.11,418.0437 2679.43,499.7237 " fill="none" id="Animal-backto-LandAviary" style="stroke:#181818;stroke-width:1.0;"/><polygon fill="#181818" points="2109.28,87.8837,2118.1556,92.1525,2114.2777,88.034,2118.3962,84.1561,2109.28,87.8837" style="stroke:#181818;stroke-width:1.0;"/></g><!--reverse link ICreator to AnimalCreator--><g id="link_ICreator_AnimalCreator"><path codeLine="98" d="M1795.5,600.1537 C1795.5,630.8137 1795.5,656.2237 1795.5,691.4237 " fill="none" id="ICreator-backto-AnimalCreator" style="stroke:#181818;stroke-width:1.0;stroke-dasharray:7.0,7.0;"/><polygon fill="none" points="1795.5,582.1537,1789.5,600.1537,1801.5,600.1537,1795.5,582.1537" style="stroke:#181818;stroke-width:1.0;"/></g><!--link Animal to AnimalCreator--><g id="link_Animal_AnimalCreator"><path codeLine="99" d="M2115.0198,86.8621 C2307.0098,88.4121 2796.11,97.5437 2845.5,151.0137 C2990.4,307.8837 2987.68,472.1637 2845.5,631.5137 C2782.78,701.8037 2156.9084,736.0163 1907.0784,747.0063 " fill="none" id="Animal-AnimalCreator" style="stroke:#181818;stroke-width:1.0;"/><polygon fill="#181818" points="2109.02,86.8137,2117.9874,90.8862,2114.0198,86.854,2118.052,82.8865,2109.02,86.8137" style="stroke:#181818;stroke-width:1.0;"/><polygon fill="none" points="1895.09,747.5337,1901.26,751.2661,1907.0784,747.0063,1900.9084,743.2739,1895.09,747.5337" style="stroke:#181818;stroke-width:1.0;"/></g><!--reverse link AnimalCreator to BirdCreator--><g id="link_AnimalCreator_BirdCreator"><path codeLine="109" d="M1678.5713,790.6777 C1608.9013,813.4577 1531.23,840.3237 1449.5,873.5137 C1443.69,875.8737 1437.75,878.3737 1431.78,880.9637 " fill="none" id="AnimalCreator-backto-BirdCreator" style="stroke:#181818;stroke-width:1.0;"/><polygon fill="none" points="1695.68,785.0837,1676.7066,784.9748,1680.436,796.3806,1695.68,785.0837" style="stroke:#181818;stroke-width:1.0;"/></g><!--reverse link AnimalCreator to FishCreator--><g id="link_AnimalCreator_FishCreator"><path codeLine="117" d="M1697.6807,824.0927 C1670.6007,843.6227 1655.42,854.5837 1629.34,873.4037 " fill="none" id="AnimalCreator-backto-FishCreator" style="stroke:#181818;stroke-width:1.0;"/><polygon fill="none" points="1712.28,813.5637,1694.171,819.2262,1701.1903,828.9591,1712.28,813.5637" style="stroke:#181818;stroke-width:1.0;"/></g><!--reverse link AnimalCreator to MammaliaCreator--><g id="link_AnimalCreator_MammaliaCreator"><path codeLine="125" d="M1795.5,831.8037 C1795.5,851.2237 1795.5,854.5537 1795.5,873.2637 " fill="none" id="AnimalCreator-backto-MammaliaCreator" style="stroke:#181818;stroke-width:1.0;"/><polygon fill="none" points="1795.5,813.8037,1789.5,831.8037,1801.5,831.8037,1795.5,813.8037" style="stroke:#181818;stroke-width:1.0;"/></g><!--reverse link AnimalCreator to InsectCreator--><g id="link_AnimalCreator_InsectCreator"><path codeLine="133" d="M1895.1823,823.9484 C1922.8323,843.4784 1938.53,854.5837 1965.17,873.4037 " fill="none" id="AnimalCreator-backto-InsectCreator" style="stroke:#181818;stroke-width:1.0;"/><polygon fill="none" points="1880.48,813.5637,1891.7208,828.8491,1898.6439,819.0476,1880.48,813.5637" style="stroke:#181818;stroke-width:1.0;"/></g><!--link Aviary to AviaryCreator--><g id="link_Aviary_AviaryCreator"><path codeLine="143" d="M2210.1866,366.6671 C2201.2066,370.4771 2197.61,371.4437 2188.5,374.0137 C2161.58,381.6137 1206.98,370.4637 1181.5,382.0137 C1140.14,400.7637 1112.8805,428.3761 1088.3705,462.2061 " fill="none" id="Aviary-AviaryCreator" style="stroke:#181818;stroke-width:1.0;"/><polygon fill="#181818" points="2215.71,364.3237,2205.8626,364.1566,2211.1071,366.2766,2208.9872,371.5211,2215.71,364.3237" style="stroke:#181818;stroke-width:1.0;"/><polygon fill="none" points="1081.33,471.9237,1088.0894,469.4117,1088.3705,462.2061,1081.611,464.718,1081.33,471.9237" style="stroke:#181818;stroke-width:1.0;"/></g><!--reverse link AviaryCreator to LandAviaryCreator--><g id="link_AviaryCreator_LandAviaryCreator"><path codeLine="154" d="M1039.5,631.0637 C1039.5,659.6437 1039.5,674.1337 1039.5,700.4637 " fill="none" id="AviaryCreator-backto-LandAviaryCreator" style="stroke:#181818;stroke-width:1.0;"/><polygon fill="none" points="1039.5,613.0637,1033.5,631.0637,1045.5,631.0637,1039.5,613.0637" style="stroke:#181818;stroke-width:1.0;"/></g><!--reverse link AviaryCreator to AquaAviaryCreator--><g id="link_AviaryCreator_AquaAviaryCreator"><path codeLine="163" d="M908.1266,622.5303 C889.7066,633.6403 886.28,635.7337 868.5,646.5137 C839.63,664.0237 808.09,683.2437 779.99,700.4137 " fill="none" id="AviaryCreator-backto-AquaAviaryCreator" style="stroke:#181818;stroke-width:1.0;"/><polygon fill="none" points="923.54,613.2337,905.0277,617.3925,911.2254,627.6681,923.54,613.2337" style="stroke:#181818;stroke-width:1.0;"/></g><!--link Aviary to Zoo--><g id="link_Aviary_Zoo"><path codeLine="186" d="M2210.1966,366.6971 C2201.2166,370.5071 2197.62,371.4537 2188.5,374.0137 C2144.05,386.4937 571.1,370.0837 526.5,382.0137 C471.64,396.6837 426.5139,418.5437 379.6539,447.1337 " fill="none" id="Aviary-Zoo" style="stroke:#181818;stroke-width:1.0;"/><polygon fill="#181818" points="2215.72,364.3537,2205.8726,364.1866,2211.1171,366.3066,2208.9972,371.5511,2215.72,364.3537" style="stroke:#181818;stroke-width:1.0;"/><polygon fill="none" points="369.41,453.3837,376.6153,453.6733,379.6539,447.1337,372.4486,446.844,369.41,453.3837" style="stroke:#181818;stroke-width:1.0;"/></g><!--link Animal to Zoo--><g id="link_Animal_Zoo"><path codeLine="187" d="M2113.5564,131.6988 C2120.8564,138.5788 2122.89,142.2537 2127.5,151.0137 C2173.68,238.7037 2197.41,303.7537 2127.5,374.0137 C2111.82,389.7737 547.98,376.2637 526.5,382.0137 C471.64,396.6837 426.5143,418.5543 379.6643,447.1343 " fill="none" id="Animal-Zoo" style="stroke:#181818;stroke-width:1.0;"/><polygon fill="#181818" points="2109.19,127.5837,2112.9961,136.6674,2112.8287,131.013,2118.483,130.8455,2109.19,127.5837" style="stroke:#181818;stroke-width:1.0;"/><polygon fill="none" points="369.42,453.3837,376.6253,453.6738,379.6643,447.1343,372.459,446.8442,369.42,453.3837" style="stroke:#181818;stroke-width:1.0;"/></g><!--reverse link AnimalType to Zoo--><g id="link_AnimalType_Zoo"><path codeLine="188" d="M298.4144,352.0304 C289.6844,383.8904 280.38,417.8437 270.71,453.1337 " fill="none" id="AnimalType-backto-Zoo" style="stroke:#181818;stroke-width:1.0;"/><polygon fill="#181818" points="300,346.2437,293.7638,353.8666,298.6787,351.0659,301.4794,355.9808,300,346.2437" style="stroke:#181818;stroke-width:1.0;"/></g><!--reverse link AviaryType to Zoo--><g id="link_AviaryType_Zoo"><path codeLine="189" d="M189.4856,333.4204 C198.7856,367.3604 210.66,410.6837 222.33,453.2937 " fill="none" id="AviaryType-backto-Zoo" style="stroke:#181818;stroke-width:1.0;"/><polygon fill="#181818" points="187.9,327.6337,186.4206,337.3708,189.2214,332.4559,194.1362,335.2566,187.9,327.6337" style="stroke:#181818;stroke-width:1.0;"/></g><!--SRC=[lLTBQ-Cm4BxdLmXwI49Uzs0AsK8Wq3rjO66NFQYscvhwaRMTNKAQ_xvwQqQI6tVJDeTWpoUDvXjfvfE7JssxRvQBnJwdPNieydbS5OiufqqpIpAwgsan6Enf_4ntASdADgqVQPmsv3GWx6SCPBFEZrcvKtR-cv0JVMZQciRjcKXqD2PBmapiKGmxYt_NqxU_ML6yualZ_Rnzf_dpAyuKxFiwMzgqp0gQQyvwBX598Yi18lVCOOBTcS3uxqRD6Q5nOvU3SXozp6RaIrOdmgZJ7BtCvy2gIMAp392_el2u8RGs2dBIiMKIwynQCFfrrZp9ECtMYa2DNGRANr6WtD0Zq1xd0KRpbHRiEQE1p2581gLDA31jx17SspArAPiqRlsTXdOKCG1alDA0efMcZzfnM2T_CbfdfZbeOhDPHLOSEWRhHo0eu98MQIY6jcffVbSTofQXhCG1f4jqgLRz-IjOTsAj4V8_9R7r64mBw1Qh956rAnSqw_6qF5HL3XRRDEiwJKS8WTikUOjjN_q-K90XcpWN6O8AOhlle2gXneYIQiqkVpUjmIJqOzx1xvwMIPYVWmpjwMRq753IiqP4pvhxqxk29ZZrSPtIjge3adWd4H95szjR5Ar0vDdOWiI51KTKlV75grw6f4nc3Agtu8YWTBc3JYW_DnrgXl86LKsvwsettZnKNo0lqfiPUlOF9LhFwgJBPoW4C5B2wA9M8xMZanCUmDv0wbecNFiy9a8X8wMSOIO0yPW0x1EPQB7qs1XfZO3qXbavgCVCmIzgtVimayBgyL8I71bv3dD2cCS8eU_41tJd3ic6ZTlAzgKs4Xpajf6mg4ii3cXwgC70XNgfUFzkOsMcQ__XugwiUMS0g1HMil1PwCRTS-6D_DyyN4lUtYSyyk06WcyfOVBTk4lU6_bHv8N0f-MXK8MqFUvJ5Otvkh9VDVOERZuWp7JX7Kpd5CG3tqW-39RRZweQG1Mtxy83lp09atMgJKDdXrZQfHbtBMMMUMTFCYPrirxfNc0BSM8RXCwKkbbtNhaLofoFnj1WRrQecKsL7y5c2T8zbKiVpSBe1YRzNRhEQn_QkNanliw3Vm00]--></g></svg>