<?xml version="1.0" encoding="us-ascii" standalone="no"?><svg xmlns="http://www.w3.org/2000/svg" xmlns:xlink="http://www.w3.org/1999/xlink" contentStyleType="text/css" height="411.5px" preserveAspectRatio="none" style="width:2212px;height:411px;background:#FFFFFF;" version="1.1" viewBox="0 0 2212 411" width="2212px" zoomAndPan="magnify"><defs/><g><!--cluster models--><g id="cluster_models"><path d="M4.25,3.0068 L30.25,3.0068 A1.875,1.875 0 0 1 31.5,4.2568 L35,15.3174 L913.75,15.3174 A1.25,1.25 0 0 1 915,16.5674 L915,306.5068 A1.25,1.25 0 0 1 913.75,307.7568 L4.25,307.7568 A1.25,1.25 0 0 1 3,306.5068 L3,4.2568 A1.25,1.25 0 0 1 4.25,3.0068 " fill="none" style="stroke:#000000;stroke-width:0.75;"/><line style="stroke:#000000;stroke-width:0.75;" x1="3" x2="35" y1="15.3174" y2="15.3174"/><text fill="#000000" font-family="sans-serif" font-size="7" font-weight="bold" lengthAdjust="spacing" textLength="25.5" x="5" y="11.5605">models</text></g><!--cluster interfaces--><g id="cluster_interfaces"><path d="M652.25,25.5068 L688.25,25.5068 A1.875,1.875 0 0 1 689.5,26.7568 L693,37.8174 L901.75,37.8174 A1.25,1.25 0 0 1 903,39.0674 L903,84.2568 A1.25,1.25 0 0 1 901.75,85.5068 L652.25,85.5068 A1.25,1.25 0 0 1 651,84.2568 L651,26.7568 A1.25,1.25 0 0 1 652.25,25.5068 " fill="none" style="stroke:#000000;stroke-width:0.75;"/><line style="stroke:#000000;stroke-width:0.75;" x1="651" x2="693" y1="37.8174" y2="37.8174"/><text fill="#000000" font-family="sans-serif" font-size="7" font-weight="bold" lengthAdjust="spacing" textLength="35.5" x="653" y="34.0605">interfaces</text></g><!--cluster animals--><g id="cluster_animals"><path d="M299.25,25.5068 L326.25,25.5068 A1.875,1.875 0 0 1 327.5,26.7568 L331,37.8174 L637.75,37.8174 A1.25,1.25 0 0 1 639,39.0674 L639,189.2568 A1.25,1.25 0 0 1 637.75,190.5068 L299.25,190.5068 A1.25,1.25 0 0 1 298,189.2568 L298,26.7568 A1.25,1.25 0 0 1 299.25,25.5068 " fill="none" style="stroke:#000000;stroke-width:0.75;"/><line style="stroke:#000000;stroke-width:0.75;" x1="298" x2="331" y1="37.8174" y2="37.8174"/><text fill="#000000" font-family="sans-serif" font-size="7" font-weight="bold" lengthAdjust="spacing" textLength="26.5" x="300" y="34.0605">animals</text></g><!--cluster aviaries--><g id="cluster_aviaries"><path d="M16.25,107.5068 L44.75,107.5068 A1.875,1.875 0 0 1 46,108.7568 L49.5,119.8174 L284.75,119.8174 A1.25,1.25 0 0 1 286,121.0674 L286,294.5068 A1.25,1.25 0 0 1 284.75,295.7568 L16.25,295.7568 A1.25,1.25 0 0 1 15,294.5068 L15,108.7568 A1.25,1.25 0 0 1 16.25,107.5068 " fill="none" style="stroke:#000000;stroke-width:0.75;"/><line style="stroke:#000000;stroke-width:0.75;" x1="15" x2="49.5" y1="119.8174" y2="119.8174"/><text fill="#000000" font-family="sans-serif" font-size="7" font-weight="bold" lengthAdjust="spacing" textLength="28" x="17" y="116.0605">aviaries</text></g><!--cluster loggers--><g id="cluster_loggers"><path d="M1888.25,16.2568 L1915.75,16.2568 A1.875,1.875 0 0 1 1917,17.5068 L1920.5,28.5674 L2207.25,28.5674 A1.25,1.25 0 0 1 2208.5,29.8174 L2208.5,212.5068 A1.25,1.25 0 0 1 2207.25,213.7568 L1888.25,213.7568 A1.25,1.25 0 0 1 1887,212.5068 L1887,17.5068 A1.25,1.25 0 0 1 1888.25,16.2568 " fill="none" style="stroke:#000000;stroke-width:0.75;"/><line style="stroke:#000000;stroke-width:0.75;" x1="1887" x2="1920.5" y1="28.5674" y2="28.5674"/><text fill="#000000" font-family="sans-serif" font-size="7" font-weight="bold" lengthAdjust="spacing" textLength="27" x="1889" y="24.8105">loggers</text></g><!--cluster creators--><g id="cluster_creators"><path d="M928.25,118.2568 L958.25,118.2568 A1.875,1.875 0 0 1 959.5,119.5068 L963,130.5674 L1605.75,130.5674 A1.25,1.25 0 0 1 1607,131.8174 L1607,407.0068 A1.25,1.25 0 0 1 1605.75,408.2568 L928.25,408.2568 A1.25,1.25 0 0 1 927,407.0068 L927,119.5068 A1.25,1.25 0 0 1 928.25,118.2568 " fill="none" style="stroke:#000000;stroke-width:0.75;"/><line style="stroke:#000000;stroke-width:0.75;" x1="927" x2="963" y1="130.5674" y2="130.5674"/><text fill="#000000" font-family="sans-serif" font-size="7" font-weight="bold" lengthAdjust="spacing" textLength="29.5" x="929" y="126.8105">creators</text></g><!--cluster animals--><g id="cluster_animals"><path d="M1137.75,231.2568 L1164.75,231.2568 A1.875,1.875 0 0 1 1166,232.5068 L1169.5,243.5674 L1593.75,243.5674 A1.25,1.25 0 0 1 1595,244.8174 L1595,395.0068 A1.25,1.25 0 0 1 1593.75,396.2568 L1137.75,396.2568 A1.25,1.25 0 0 1 1136.5,395.0068 L1136.5,232.5068 A1.25,1.25 0 0 1 1137.75,231.2568 " fill="none" style="stroke:#000000;stroke-width:0.75;"/><line style="stroke:#000000;stroke-width:0.75;" x1="1136.5" x2="1169.5" y1="243.5674" y2="243.5674"/><text fill="#000000" font-family="sans-serif" font-size="7" font-weight="bold" lengthAdjust="spacing" textLength="26.5" x="1138.5" y="239.8105">animals</text></g><!--cluster aviaries--><g id="cluster_aviaries"><path d="M940.25,226.5068 L968.75,226.5068 A1.875,1.875 0 0 1 970,227.7568 L973.5,238.8174 L1123.25,238.8174 A1.25,1.25 0 0 1 1124.5,240.0674 L1124.5,385.7568 A1.25,1.25 0 0 1 1123.25,387.0068 L940.25,387.0068 A1.25,1.25 0 0 1 939,385.7568 L939,227.7568 A1.25,1.25 0 0 1 940.25,226.5068 " fill="none" style="stroke:#000000;stroke-width:0.75;"/><line style="stroke:#000000;stroke-width:0.75;" x1="939" x2="973.5" y1="238.8174" y2="238.8174"/><text fill="#000000" font-family="sans-serif" font-size="7" font-weight="bold" lengthAdjust="spacing" textLength="28" x="941" y="235.0605">aviaries</text></g><!--cluster zoo--><g id="cluster_zoo"><path d="M1620.25,107.5068 L1633.25,107.5068 A1.875,1.875 0 0 1 1634.5,108.7568 L1638,119.8174 L1873.75,119.8174 A1.25,1.25 0 0 1 1875,121.0674 L1875,313.0068 A1.25,1.25 0 0 1 1873.75,314.2568 L1620.25,314.2568 A1.25,1.25 0 0 1 1619,313.0068 L1619,108.7568 A1.25,1.25 0 0 1 1620.25,107.5068 " fill="none" style="stroke:#000000;stroke-width:0.75;"/><line style="stroke:#000000;stroke-width:0.75;" x1="1619" x2="1638" y1="119.8174" y2="119.8174"/><text fill="#000000" font-family="sans-serif" font-size="7" font-weight="bold" lengthAdjust="spacing" textLength="12.5" x="1621" y="116.0605">zoo</text></g><!--class IFlying--><g id="elem_IFlying"><rect codeLine="5" fill="#F1F1F1" height="33.3105" id="IFlying" rx="1.25" ry="1.25" style="stroke:#181818;stroke-width:0.25;" width="60.5" x="834.25" y="44.0068"/><ellipse cx="852.325" cy="52.0068" fill="#B4A7E5" rx="5.5" ry="5.5" style="stroke:#181818;stroke-width:0.5;"/><path d="M852.8016,50.3271 L852.8016,53.6553 L853.6609,53.6553 Q853.9656,53.6553 854.0984,53.7725 Q854.2313,53.8896 854.2313,54.085 Q854.2313,54.2725 854.0984,54.3896 Q853.9656,54.5068 853.6609,54.5068 L851.0906,54.5068 Q850.7859,54.5068 850.6531,54.3896 Q850.5203,54.2725 850.5203,54.0771 Q850.5203,53.8896 850.6531,53.7725 Q850.7859,53.6553 851.0906,53.6553 L851.95,53.6553 L851.95,50.3271 L851.0906,50.3271 Q850.7859,50.3271 850.6531,50.21 Q850.5203,50.0928 850.5203,49.8975 Q850.5203,49.71 850.6531,49.5928 Q850.7859,49.4756 851.0906,49.4756 L853.6609,49.4756 Q853.9656,49.4756 854.0984,49.5928 Q854.2313,49.71 854.2313,49.8975 Q854.2313,50.0928 854.0984,50.21 Q853.9656,50.3271 853.6609,50.3271 L852.8016,50.3271 Z " fill="#000000"/><text fill="#000000" font-family="sans-serif" font-size="7" font-style="italic" lengthAdjust="spacing" textLength="21" x="861.675" y="54.9053">IFlying</text><line style="stroke:#181818;stroke-width:0.25;" x1="834.75" x2="894.25" y1="60.0068" y2="60.0068"/><line style="stroke:#181818;stroke-width:0.25;" x1="834.75" x2="894.25" y1="64.0068" y2="64.0068"/><ellipse cx="839.75" cy="71.4121" fill="#84BE84" rx="1.5" ry="1.5" style="stroke:#038048;stroke-width:0.5;"/><text fill="#000000" font-family="sans-serif" font-size="7" font-style="italic" lengthAdjust="spacing" textLength="47.5" x="844.25" y="73.5605">Flying() : string</text></g><!--class ISwimming--><g id="elem_ISwimming"><rect codeLine="9" fill="#F1F1F1" height="33.3105" id="ISwimming" rx="1.25" ry="1.25" style="stroke:#181818;stroke-width:0.25;" width="72.5" x="659.25" y="44.0068"/><ellipse cx="677.325" cy="52.0068" fill="#B4A7E5" rx="5.5" ry="5.5" style="stroke:#181818;stroke-width:0.5;"/><path d="M677.8016,50.3271 L677.8016,53.6553 L678.6609,53.6553 Q678.9656,53.6553 679.0984,53.7725 Q679.2313,53.8896 679.2313,54.085 Q679.2313,54.2725 679.0984,54.3896 Q678.9656,54.5068 678.6609,54.5068 L676.0906,54.5068 Q675.7859,54.5068 675.6531,54.3896 Q675.5203,54.2725 675.5203,54.0771 Q675.5203,53.8896 675.6531,53.7725 Q675.7859,53.6553 676.0906,53.6553 L676.95,53.6553 L676.95,50.3271 L676.0906,50.3271 Q675.7859,50.3271 675.6531,50.21 Q675.5203,50.0928 675.5203,49.8975 Q675.5203,49.71 675.6531,49.5928 Q675.7859,49.4756 676.0906,49.4756 L678.6609,49.4756 Q678.9656,49.4756 679.0984,49.5928 Q679.2313,49.71 679.2313,49.8975 Q679.2313,50.0928 679.0984,50.21 Q678.9656,50.3271 678.6609,50.3271 L677.8016,50.3271 Z " fill="#000000"/><text fill="#000000" font-family="sans-serif" font-size="7" font-style="italic" lengthAdjust="spacing" textLength="33" x="686.675" y="54.9053">ISwimming</text><line style="stroke:#181818;stroke-width:0.25;" x1="659.75" x2="731.25" y1="60.0068" y2="60.0068"/><line style="stroke:#181818;stroke-width:0.25;" x1="659.75" x2="731.25" y1="64.0068" y2="64.0068"/><ellipse cx="664.75" cy="71.4121" fill="#84BE84" rx="1.5" ry="1.5" style="stroke:#038048;stroke-width:0.5;"/><text fill="#000000" font-family="sans-serif" font-size="7" font-style="italic" lengthAdjust="spacing" textLength="59.5" x="669.25" y="73.5605">Swimming() : string</text></g><!--class IWalking--><g id="elem_IWalking"><rect codeLine="13" fill="#F1F1F1" height="33.3105" id="IWalking" rx="1.25" ry="1.25" style="stroke:#181818;stroke-width:0.25;" width="67.5" x="749.25" y="44.0068"/><ellipse cx="767.325" cy="52.0068" fill="#B4A7E5" rx="5.5" ry="5.5" style="stroke:#181818;stroke-width:0.5;"/><path d="M767.8016,50.3271 L767.8016,53.6553 L768.6609,53.6553 Q768.9656,53.6553 769.0984,53.7725 Q769.2313,53.8896 769.2313,54.085 Q769.2313,54.2725 769.0984,54.3896 Q768.9656,54.5068 768.6609,54.5068 L766.0906,54.5068 Q765.7859,54.5068 765.6531,54.3896 Q765.5203,54.2725 765.5203,54.0771 Q765.5203,53.8896 765.6531,53.7725 Q765.7859,53.6553 766.0906,53.6553 L766.95,53.6553 L766.95,50.3271 L766.0906,50.3271 Q765.7859,50.3271 765.6531,50.21 Q765.5203,50.0928 765.5203,49.8975 Q765.5203,49.71 765.6531,49.5928 Q765.7859,49.4756 766.0906,49.4756 L768.6609,49.4756 Q768.9656,49.4756 769.0984,49.5928 Q769.2313,49.71 769.2313,49.8975 Q769.2313,50.0928 769.0984,50.21 Q768.9656,50.3271 768.6609,50.3271 L767.8016,50.3271 Z " fill="#000000"/><text fill="#000000" font-family="sans-serif" font-size="7" font-style="italic" lengthAdjust="spacing" textLength="28" x="776.675" y="54.9053">IWalking</text><line style="stroke:#181818;stroke-width:0.25;" x1="749.75" x2="816.25" y1="60.0068" y2="60.0068"/><line style="stroke:#181818;stroke-width:0.25;" x1="749.75" x2="816.25" y1="64.0068" y2="64.0068"/><ellipse cx="754.75" cy="71.4121" fill="#84BE84" rx="1.5" ry="1.5" style="stroke:#038048;stroke-width:0.5;"/><text fill="#000000" font-family="sans-serif" font-size="7" font-style="italic" lengthAdjust="spacing" textLength="54.5" x="759.25" y="73.5605">Walking() : string</text></g><!--class Animal--><g id="elem_Animal"><rect codeLine="19" fill="#F1F1F1" height="33.3105" id="Animal" rx="1.25" ry="1.25" style="stroke:#181818;stroke-width:0.25;" width="49.5" x="404.75" y="44.0068"/><ellipse cx="417.875" cy="52.0068" fill="#A9DCDF" rx="5.5" ry="5.5" style="stroke:#181818;stroke-width:0.5;"/><path d="M418.9688,52.8896 L416.8984,52.8896 L416.6875,53.4053 L416.8984,53.4053 Q417.2031,53.4053 417.3359,53.5225 Q417.4688,53.6396 417.4688,53.835 Q417.4688,54.0225 417.3359,54.1396 Q417.2031,54.2568 416.8984,54.2568 L415.75,54.2568 Q415.4453,54.2568 415.3203,54.1396 Q415.1875,54.0225 415.1875,53.8271 Q415.1875,53.6396 415.3281,53.5225 Q415.4609,53.3975 415.7734,53.4053 L417.1094,50.0771 L416.5547,50.0771 Q416.25,50.0771 416.1172,49.96 Q415.9844,49.8428 415.9844,49.6475 Q415.9844,49.46 416.1172,49.3428 Q416.25,49.2256 416.5547,49.2256 L418.3906,49.2256 L420.0859,53.4053 Q420.3828,53.4053 420.4766,53.4756 Q420.6719,53.6084 420.6719,53.835 Q420.6719,54.0225 420.5391,54.1396 Q420.4141,54.2568 420.1094,54.2568 L418.9609,54.2568 Q418.6563,54.2568 418.5234,54.1396 Q418.3906,54.0225 418.3906,53.8271 Q418.3906,53.6396 418.5234,53.5225 Q418.6563,53.4053 418.9609,53.4053 L419.1719,53.4053 L418.9688,52.8896 Z M418.6094,52.0381 L417.9297,50.3506 L417.2422,52.0381 L418.6094,52.0381 Z " fill="#000000"/><text fill="#000000" font-family="sans-serif" font-size="7" font-style="italic" lengthAdjust="spacing" textLength="21" x="426.125" y="54.9053">Animal</text><line style="stroke:#181818;stroke-width:0.25;" x1="405.25" x2="453.75" y1="60.0068" y2="60.0068"/><ellipse cx="410.25" cy="67.4121" fill="none" rx="1.5" ry="1.5" style="stroke:#038048;stroke-width:0.5;"/><text fill="#000000" font-family="sans-serif" font-size="7" lengthAdjust="spacing" textLength="36.5" x="414.75" y="69.5605">kind : string</text><line style="stroke:#181818;stroke-width:0.25;" x1="405.25" x2="453.75" y1="73.3174" y2="73.3174"/></g><!--class Bird--><g id="elem_Bird"><rect codeLine="26" fill="#F1F1F1" height="42.6211" id="Bird" rx="1.25" ry="1.25" style="stroke:#181818;stroke-width:0.25;" width="66.5" x="480.25" y="140.0068"/><ellipse cx="505.125" cy="148.0068" fill="#ADD1B2" rx="5.5" ry="5.5" style="stroke:#181818;stroke-width:0.5;"/><path d="M506.5078,145.9443 Q506.5859,145.835 506.6797,145.7803 Q506.7734,145.7256 506.8828,145.7256 Q507.0703,145.7256 507.1875,145.8584 Q507.3047,145.9834 507.3047,146.2881 L507.3047,147.0146 Q507.3047,147.3193 507.1875,147.4521 Q507.0703,147.585 506.8828,147.585 Q506.7109,147.585 506.6094,147.4834 Q506.5078,147.3896 506.4531,147.1318 Q506.4297,146.9521 506.3359,146.8584 Q506.1719,146.6709 505.8672,146.5615 Q505.5625,146.4521 505.25,146.4521 Q504.8672,146.4521 504.5469,146.6162 Q504.2344,146.7803 503.9844,147.1553 Q503.7422,147.5303 503.7422,148.0459 L503.7422,148.5928 Q503.7422,149.21 504.1875,149.624 Q504.6328,150.0303 505.4297,150.0303 Q505.8984,150.0303 506.2266,149.9053 Q506.4219,149.8271 506.6328,149.6084 Q506.7656,149.4756 506.8359,149.4365 Q506.9141,149.3975 507.0156,149.3975 Q507.1797,149.3975 507.3047,149.5303 Q507.4375,149.6553 507.4375,149.8271 Q507.4375,149.999 507.2656,150.2021 Q507.0156,150.4912 506.6172,150.6553 Q506.0781,150.8818 505.4297,150.8818 Q504.6719,150.8818 504.0703,150.5693 Q503.5781,150.3193 503.2344,149.7881 Q502.8906,149.249 502.8906,148.6084 L502.8906,148.0303 Q502.8906,147.3662 503.1953,146.7959 Q503.5078,146.2178 504.0547,145.9131 Q504.6016,145.6006 505.2188,145.6006 Q505.5859,145.6006 505.9063,145.6865 Q506.2344,145.7646 506.5078,145.9443 Z " fill="#000000"/><text fill="#000000" font-family="sans-serif" font-size="7" lengthAdjust="spacing" textLength="12.5" x="515.375" y="150.9053">Bird</text><line style="stroke:#181818;stroke-width:0.25;" x1="480.75" x2="546.25" y1="156.0068" y2="156.0068"/><line style="stroke:#181818;stroke-width:0.25;" x1="480.75" x2="546.25" y1="160.0068" y2="160.0068"/><ellipse cx="485.75" cy="167.4121" fill="#84BE84" rx="1.5" ry="1.5" style="stroke:#038048;stroke-width:0.5;"/><text fill="#000000" font-family="sans-serif" font-size="7" lengthAdjust="spacing" textLength="47.5" x="490.25" y="169.5605">Flying() : string</text><ellipse cx="485.75" cy="176.7227" fill="#84BE84" rx="1.5" ry="1.5" style="stroke:#038048;stroke-width:0.5;"/><text fill="#000000" font-family="sans-serif" font-size="7" lengthAdjust="spacing" textLength="53.5" x="490.25" y="178.8711">Walking() : string</text></g><!--class Fish--><g id="elem_Fish"><rect codeLine="33" fill="#F1F1F1" height="33.3105" id="Fish" rx="1.25" ry="1.25" style="stroke:#181818;stroke-width:0.25;" width="72.5" x="306.25" y="144.5068"/><ellipse cx="333.625" cy="152.5068" fill="#ADD1B2" rx="5.5" ry="5.5" style="stroke:#181818;stroke-width:0.5;"/><path d="M335.0078,150.4443 Q335.0859,150.335 335.1797,150.2803 Q335.2734,150.2256 335.3828,150.2256 Q335.5703,150.2256 335.6875,150.3584 Q335.8047,150.4834 335.8047,150.7881 L335.8047,151.5146 Q335.8047,151.8193 335.6875,151.9521 Q335.5703,152.085 335.3828,152.085 Q335.2109,152.085 335.1094,151.9834 Q335.0078,151.8896 334.9531,151.6318 Q334.9297,151.4521 334.8359,151.3584 Q334.6719,151.1709 334.3672,151.0615 Q334.0625,150.9521 333.75,150.9521 Q333.3672,150.9521 333.0469,151.1162 Q332.7344,151.2803 332.4844,151.6553 Q332.2422,152.0303 332.2422,152.5459 L332.2422,153.0928 Q332.2422,153.71 332.6875,154.124 Q333.1328,154.5303 333.9297,154.5303 Q334.3984,154.5303 334.7266,154.4053 Q334.9219,154.3271 335.1328,154.1084 Q335.2656,153.9756 335.3359,153.9365 Q335.4141,153.8975 335.5156,153.8975 Q335.6797,153.8975 335.8047,154.0303 Q335.9375,154.1553 335.9375,154.3271 Q335.9375,154.499 335.7656,154.7021 Q335.5156,154.9912 335.1172,155.1553 Q334.5781,155.3818 333.9297,155.3818 Q333.1719,155.3818 332.5703,155.0693 Q332.0781,154.8193 331.7344,154.2881 Q331.3906,153.749 331.3906,153.1084 L331.3906,152.5303 Q331.3906,151.8662 331.6953,151.2959 Q332.0078,150.7178 332.5547,150.4131 Q333.1016,150.1006 333.7188,150.1006 Q334.0859,150.1006 334.4063,150.1865 Q334.7344,150.2646 335.0078,150.4443 Z " fill="#000000"/><text fill="#000000" font-family="sans-serif" font-size="7" lengthAdjust="spacing" textLength="13.5" x="343.875" y="155.4053">Fish</text><line style="stroke:#181818;stroke-width:0.25;" x1="306.75" x2="378.25" y1="160.5068" y2="160.5068"/><line style="stroke:#181818;stroke-width:0.25;" x1="306.75" x2="378.25" y1="164.5068" y2="164.5068"/><ellipse cx="311.75" cy="171.9121" fill="#84BE84" rx="1.5" ry="1.5" style="stroke:#038048;stroke-width:0.5;"/><text fill="#000000" font-family="sans-serif" font-size="7" lengthAdjust="spacing" textLength="59.5" x="316.25" y="174.0605">Swimming() : string</text></g><!--class Mammalia--><g id="elem_Mammalia"><rect codeLine="39" fill="#F1F1F1" height="33.3105" id="Mammalia" rx="1.25" ry="1.25" style="stroke:#181818;stroke-width:0.25;" width="66.5" x="396.25" y="144.5068"/><ellipse cx="412.3" cy="152.5068" fill="#ADD1B2" rx="5.5" ry="5.5" style="stroke:#181818;stroke-width:0.5;"/><path d="M413.6828,150.4443 Q413.7609,150.335 413.8547,150.2803 Q413.9484,150.2256 414.0578,150.2256 Q414.2453,150.2256 414.3625,150.3584 Q414.4797,150.4834 414.4797,150.7881 L414.4797,151.5146 Q414.4797,151.8193 414.3625,151.9521 Q414.2453,152.085 414.0578,152.085 Q413.8859,152.085 413.7844,151.9834 Q413.6828,151.8896 413.6281,151.6318 Q413.6047,151.4521 413.5109,151.3584 Q413.3469,151.1709 413.0422,151.0615 Q412.7375,150.9521 412.425,150.9521 Q412.0422,150.9521 411.7219,151.1162 Q411.4094,151.2803 411.1594,151.6553 Q410.9172,152.0303 410.9172,152.5459 L410.9172,153.0928 Q410.9172,153.71 411.3625,154.124 Q411.8078,154.5303 412.6047,154.5303 Q413.0734,154.5303 413.4016,154.4053 Q413.5969,154.3271 413.8078,154.1084 Q413.9406,153.9756 414.0109,153.9365 Q414.0891,153.8975 414.1906,153.8975 Q414.3547,153.8975 414.4797,154.0303 Q414.6125,154.1553 414.6125,154.3271 Q414.6125,154.499 414.4406,154.7021 Q414.1906,154.9912 413.7922,155.1553 Q413.2531,155.3818 412.6047,155.3818 Q411.8469,155.3818 411.2453,155.0693 Q410.7531,154.8193 410.4094,154.2881 Q410.0656,153.749 410.0656,153.1084 L410.0656,152.5303 Q410.0656,151.8662 410.3703,151.2959 Q410.6828,150.7178 411.2297,150.4131 Q411.7766,150.1006 412.3938,150.1006 Q412.7609,150.1006 413.0813,150.1865 Q413.4094,150.2646 413.6828,150.4443 Z " fill="#000000"/><text fill="#000000" font-family="sans-serif" font-size="7" lengthAdjust="spacing" textLength="31.5" x="421.2" y="155.4053">Mammalia</text><line style="stroke:#181818;stroke-width:0.25;" x1="396.75" x2="462.25" y1="160.5068" y2="160.5068"/><line style="stroke:#181818;stroke-width:0.25;" x1="396.75" x2="462.25" y1="164.5068" y2="164.5068"/><ellipse cx="401.75" cy="171.9121" fill="#84BE84" rx="1.5" ry="1.5" style="stroke:#038048;stroke-width:0.5;"/><text fill="#000000" font-family="sans-serif" font-size="7" lengthAdjust="spacing" textLength="53.5" x="406.25" y="174.0605">Walking() : string</text></g><!--class Insect--><g id="elem_Insect"><rect codeLine="46" fill="#F1F1F1" height="42.6211" id="Insect" rx="1.25" ry="1.25" style="stroke:#181818;stroke-width:0.25;" width="66.5" x="564.25" y="140.0068"/><ellipse cx="586.15" cy="148.0068" fill="#ADD1B2" rx="5.5" ry="5.5" style="stroke:#181818;stroke-width:0.5;"/><path d="M587.5328,145.9443 Q587.6109,145.835 587.7047,145.7803 Q587.7984,145.7256 587.9078,145.7256 Q588.0953,145.7256 588.2125,145.8584 Q588.3297,145.9834 588.3297,146.2881 L588.3297,147.0146 Q588.3297,147.3193 588.2125,147.4521 Q588.0953,147.585 587.9078,147.585 Q587.7359,147.585 587.6344,147.4834 Q587.5328,147.3896 587.4781,147.1318 Q587.4547,146.9521 587.3609,146.8584 Q587.1969,146.6709 586.8922,146.5615 Q586.5875,146.4521 586.275,146.4521 Q585.8922,146.4521 585.5719,146.6162 Q585.2594,146.7803 585.0094,147.1553 Q584.7672,147.5303 584.7672,148.0459 L584.7672,148.5928 Q584.7672,149.21 585.2125,149.624 Q585.6578,150.0303 586.4547,150.0303 Q586.9234,150.0303 587.2516,149.9053 Q587.4469,149.8271 587.6578,149.6084 Q587.7906,149.4756 587.8609,149.4365 Q587.9391,149.3975 588.0406,149.3975 Q588.2047,149.3975 588.3297,149.5303 Q588.4625,149.6553 588.4625,149.8271 Q588.4625,149.999 588.2906,150.2021 Q588.0406,150.4912 587.6422,150.6553 Q587.1031,150.8818 586.4547,150.8818 Q585.6969,150.8818 585.0953,150.5693 Q584.6031,150.3193 584.2594,149.7881 Q583.9156,149.249 583.9156,148.6084 L583.9156,148.0303 Q583.9156,147.3662 584.2203,146.7959 Q584.5328,146.2178 585.0797,145.9131 Q585.6266,145.6006 586.2438,145.6006 Q586.6109,145.6006 586.9313,145.6865 Q587.2594,145.7646 587.5328,145.9443 Z " fill="#000000"/><text fill="#000000" font-family="sans-serif" font-size="7" lengthAdjust="spacing" textLength="18.5" x="596.35" y="150.9053">Insect</text><line style="stroke:#181818;stroke-width:0.25;" x1="564.75" x2="630.25" y1="156.0068" y2="156.0068"/><line style="stroke:#181818;stroke-width:0.25;" x1="564.75" x2="630.25" y1="160.0068" y2="160.0068"/><ellipse cx="569.75" cy="167.4121" fill="#84BE84" rx="1.5" ry="1.5" style="stroke:#038048;stroke-width:0.5;"/><text fill="#000000" font-family="sans-serif" font-size="7" lengthAdjust="spacing" textLength="47.5" x="574.25" y="169.5605">Flying() : string</text><ellipse cx="569.75" cy="176.7227" fill="#84BE84" rx="1.5" ry="1.5" style="stroke:#038048;stroke-width:0.5;"/><text fill="#000000" font-family="sans-serif" font-size="7" lengthAdjust="spacing" textLength="53.5" x="574.25" y="178.8711">Walking() : string</text></g><!--class Aviary--><g id="elem_Aviary"><rect codeLine="54" fill="#F1F1F1" height="70.5527" id="Aviary" rx="1.25" ry="1.25" style="stroke:#181818;stroke-width:0.25;" width="118.5" x="159.25" y="126.0068"/><ellipse cx="206.875" cy="134.0068" fill="#A9DCDF" rx="5.5" ry="5.5" style="stroke:#181818;stroke-width:0.5;"/><path d="M207.9688,134.8896 L205.8984,134.8896 L205.6875,135.4053 L205.8984,135.4053 Q206.2031,135.4053 206.3359,135.5225 Q206.4688,135.6396 206.4688,135.835 Q206.4688,136.0225 206.3359,136.1396 Q206.2031,136.2568 205.8984,136.2568 L204.75,136.2568 Q204.4453,136.2568 204.3203,136.1396 Q204.1875,136.0225 204.1875,135.8271 Q204.1875,135.6396 204.3281,135.5225 Q204.4609,135.3975 204.7734,135.4053 L206.1094,132.0771 L205.5547,132.0771 Q205.25,132.0771 205.1172,131.96 Q204.9844,131.8428 204.9844,131.6475 Q204.9844,131.46 205.1172,131.3428 Q205.25,131.2256 205.5547,131.2256 L207.3906,131.2256 L209.0859,135.4053 Q209.3828,135.4053 209.4766,135.4756 Q209.6719,135.6084 209.6719,135.835 Q209.6719,136.0225 209.5391,136.1396 Q209.4141,136.2568 209.1094,136.2568 L207.9609,136.2568 Q207.6563,136.2568 207.5234,136.1396 Q207.3906,136.0225 207.3906,135.8271 Q207.3906,135.6396 207.5234,135.5225 Q207.6563,135.4053 207.9609,135.4053 L208.1719,135.4053 L207.9688,134.8896 Z M207.6094,134.0381 L206.9297,132.3506 L206.2422,134.0381 L207.6094,134.0381 Z " fill="#000000"/><text fill="#000000" font-family="sans-serif" font-size="7" font-style="italic" lengthAdjust="spacing" textLength="19" x="217.125" y="136.9053">Aviary</text><line style="stroke:#181818;stroke-width:0.25;" x1="159.75" x2="277.25" y1="142.0068" y2="142.0068"/><ellipse cx="164.75" cy="149.4121" fill="none" rx="1.5" ry="1.5" style="stroke:#038048;stroke-width:0.5;"/><text fill="#000000" font-family="sans-serif" font-size="7" lengthAdjust="spacing" textLength="41" x="169.25" y="151.5605">name : string</text><ellipse cx="164.75" cy="158.7227" fill="none" rx="1.5" ry="1.5" style="stroke:#038048;stroke-width:0.5;"/><text fill="#000000" font-family="sans-serif" font-size="7" lengthAdjust="spacing" textLength="46" x="169.25" y="160.8711">totalCount : int</text><ellipse cx="164.75" cy="168.0332" fill="none" rx="1.5" ry="1.5" style="stroke:#038048;stroke-width:0.5;"/><text fill="#000000" font-family="sans-serif" font-size="7" lengthAdjust="spacing" textLength="55" x="169.25" y="170.1816">animals : Animal[]</text><line style="stroke:#181818;stroke-width:0.25;" x1="159.75" x2="277.25" y1="173.9385" y2="173.9385"/><ellipse cx="164.75" cy="181.3438" fill="#84BE84" rx="1.5" ry="1.5" style="stroke:#038048;stroke-width:0.5;"/><text fill="#000000" font-family="sans-serif" font-size="7" font-style="italic" lengthAdjust="spacing" textLength="105.5" x="169.25" y="183.4922">AddAnimal(animal : Animal) : bool</text><ellipse cx="164.75" cy="190.6543" fill="#84BE84" rx="1.5" ry="1.5" style="stroke:#038048;stroke-width:0.5;"/><text fill="#000000" font-family="sans-serif" font-size="7" lengthAdjust="spacing" textLength="44.5" x="169.25" y="192.8027">IsFree() : bool</text></g><!--class AquaAviary--><g id="elem_AquaAviary"><rect codeLine="66" fill="#F1F1F1" height="33.3105" id="AquaAviary" rx="1.25" ry="1.25" style="stroke:#181818;stroke-width:0.25;" width="118.5" x="23.25" y="254.2568"/><ellipse cx="62.375" cy="262.2568" fill="#ADD1B2" rx="5.5" ry="5.5" style="stroke:#181818;stroke-width:0.5;"/><path d="M63.7578,260.1943 Q63.8359,260.085 63.9297,260.0303 Q64.0234,259.9756 64.1328,259.9756 Q64.3203,259.9756 64.4375,260.1084 Q64.5547,260.2334 64.5547,260.5381 L64.5547,261.2646 Q64.5547,261.5693 64.4375,261.7021 Q64.3203,261.835 64.1328,261.835 Q63.9609,261.835 63.8594,261.7334 Q63.7578,261.6396 63.7031,261.3818 Q63.6797,261.2021 63.5859,261.1084 Q63.4219,260.9209 63.1172,260.8115 Q62.8125,260.7021 62.5,260.7021 Q62.1172,260.7021 61.7969,260.8662 Q61.4844,261.0303 61.2344,261.4053 Q60.9922,261.7803 60.9922,262.2959 L60.9922,262.8428 Q60.9922,263.46 61.4375,263.874 Q61.8828,264.2803 62.6797,264.2803 Q63.1484,264.2803 63.4766,264.1553 Q63.6719,264.0771 63.8828,263.8584 Q64.0156,263.7256 64.0859,263.6865 Q64.1641,263.6475 64.2656,263.6475 Q64.4297,263.6475 64.5547,263.7803 Q64.6875,263.9053 64.6875,264.0771 Q64.6875,264.249 64.5156,264.4521 Q64.2656,264.7412 63.8672,264.9053 Q63.3281,265.1318 62.6797,265.1318 Q61.9219,265.1318 61.3203,264.8193 Q60.8281,264.5693 60.4844,264.0381 Q60.1406,263.499 60.1406,262.8584 L60.1406,262.2803 Q60.1406,261.6162 60.4453,261.0459 Q60.7578,260.4678 61.3047,260.1631 Q61.8516,259.8506 62.4688,259.8506 Q62.8359,259.8506 63.1563,259.9365 Q63.4844,260.0146 63.7578,260.1943 Z " fill="#000000"/><text fill="#000000" font-family="sans-serif" font-size="7" lengthAdjust="spacing" textLength="36" x="72.625" y="265.1553">AquaAviary</text><line style="stroke:#181818;stroke-width:0.25;" x1="23.75" x2="141.25" y1="270.2568" y2="270.2568"/><line style="stroke:#181818;stroke-width:0.25;" x1="23.75" x2="141.25" y1="274.2568" y2="274.2568"/><ellipse cx="28.75" cy="281.6621" fill="#84BE84" rx="1.5" ry="1.5" style="stroke:#038048;stroke-width:0.5;"/><text fill="#000000" font-family="sans-serif" font-size="7" lengthAdjust="spacing" textLength="105.5" x="33.25" y="283.8105">AddAnimal(animal : Animal) : bool</text></g><!--class LandAviary--><g id="elem_LandAviary"><rect codeLine="73" fill="#F1F1F1" height="33.3105" id="LandAviary" rx="1.25" ry="1.25" style="stroke:#181818;stroke-width:0.25;" width="118.5" x="159.25" y="254.2568"/><ellipse cx="198.625" cy="262.2568" fill="#ADD1B2" rx="5.5" ry="5.5" style="stroke:#181818;stroke-width:0.5;"/><path d="M200.0078,260.1943 Q200.0859,260.085 200.1797,260.0303 Q200.2734,259.9756 200.3828,259.9756 Q200.5703,259.9756 200.6875,260.1084 Q200.8047,260.2334 200.8047,260.5381 L200.8047,261.2646 Q200.8047,261.5693 200.6875,261.7021 Q200.5703,261.835 200.3828,261.835 Q200.2109,261.835 200.1094,261.7334 Q200.0078,261.6396 199.9531,261.3818 Q199.9297,261.2021 199.8359,261.1084 Q199.6719,260.9209 199.3672,260.8115 Q199.0625,260.7021 198.75,260.7021 Q198.3672,260.7021 198.0469,260.8662 Q197.7344,261.0303 197.4844,261.4053 Q197.2422,261.7803 197.2422,262.2959 L197.2422,262.8428 Q197.2422,263.46 197.6875,263.874 Q198.1328,264.2803 198.9297,264.2803 Q199.3984,264.2803 199.7266,264.1553 Q199.9219,264.0771 200.1328,263.8584 Q200.2656,263.7256 200.3359,263.6865 Q200.4141,263.6475 200.5156,263.6475 Q200.6797,263.6475 200.8047,263.7803 Q200.9375,263.9053 200.9375,264.0771 Q200.9375,264.249 200.7656,264.4521 Q200.5156,264.7412 200.1172,264.9053 Q199.5781,265.1318 198.9297,265.1318 Q198.1719,265.1318 197.5703,264.8193 Q197.0781,264.5693 196.7344,264.0381 Q196.3906,263.499 196.3906,262.8584 L196.3906,262.2803 Q196.3906,261.6162 196.6953,261.0459 Q197.0078,260.4678 197.5547,260.1631 Q198.1016,259.8506 198.7188,259.8506 Q199.0859,259.8506 199.4063,259.9365 Q199.7344,260.0146 200.0078,260.1943 Z " fill="#000000"/><text fill="#000000" font-family="sans-serif" font-size="7" lengthAdjust="spacing" textLength="35.5" x="208.875" y="265.1553">LandAviary</text><line style="stroke:#181818;stroke-width:0.25;" x1="159.75" x2="277.25" y1="270.2568" y2="270.2568"/><line style="stroke:#181818;stroke-width:0.25;" x1="159.75" x2="277.25" y1="274.2568" y2="274.2568"/><ellipse cx="164.75" cy="281.6621" fill="#84BE84" rx="1.5" ry="1.5" style="stroke:#038048;stroke-width:0.5;"/><text fill="#000000" font-family="sans-serif" font-size="7" lengthAdjust="spacing" textLength="105.5" x="169.25" y="283.8105">AddAnimal(animal : Animal) : bool</text></g><!--class ILogger--><g id="elem_ILogger"><rect codeLine="80" fill="#F1F1F1" height="51.9316" id="ILogger" rx="1.25" ry="1.25" style="stroke:#181818;stroke-width:0.25;" width="115" x="1923.5" y="34.7568"/><ellipse cx="1966.625" cy="42.7568" fill="#B4A7E5" rx="5.5" ry="5.5" style="stroke:#181818;stroke-width:0.5;"/><path d="M1967.1016,41.0771 L1967.1016,44.4053 L1967.9609,44.4053 Q1968.2656,44.4053 1968.3984,44.5225 Q1968.5313,44.6396 1968.5313,44.835 Q1968.5313,45.0225 1968.3984,45.1396 Q1968.2656,45.2568 1967.9609,45.2568 L1965.3906,45.2568 Q1965.0859,45.2568 1964.9531,45.1396 Q1964.8203,45.0225 1964.8203,44.8271 Q1964.8203,44.6396 1964.9531,44.5225 Q1965.0859,44.4053 1965.3906,44.4053 L1966.25,44.4053 L1966.25,41.0771 L1965.3906,41.0771 Q1965.0859,41.0771 1964.9531,40.96 Q1964.8203,40.8428 1964.8203,40.6475 Q1964.8203,40.46 1964.9531,40.3428 Q1965.0859,40.2256 1965.3906,40.2256 L1967.9609,40.2256 Q1968.2656,40.2256 1968.3984,40.3428 Q1968.5313,40.46 1968.5313,40.6475 Q1968.5313,40.8428 1968.3984,40.96 Q1968.2656,41.0771 1967.9609,41.0771 L1967.1016,41.0771 Z " fill="#000000"/><text fill="#000000" font-family="sans-serif" font-size="7" font-style="italic" lengthAdjust="spacing" textLength="24.5" x="1976.875" y="45.6553">ILogger</text><line style="stroke:#181818;stroke-width:0.25;" x1="1924" x2="2038" y1="50.7568" y2="50.7568"/><line style="stroke:#181818;stroke-width:0.25;" x1="1924" x2="2038" y1="54.7568" y2="54.7568"/><ellipse cx="1929" cy="62.1621" fill="#84BE84" rx="1.5" ry="1.5" style="stroke:#038048;stroke-width:0.5;"/><text fill="#000000" font-family="sans-serif" font-size="7" font-style="italic" lengthAdjust="spacing" textLength="87.5" x="1933.5" y="64.3105">Info(message : string) : void</text><ellipse cx="1929" cy="71.4727" fill="#84BE84" rx="1.5" ry="1.5" style="stroke:#038048;stroke-width:0.5;"/><text fill="#000000" font-family="sans-serif" font-size="7" font-style="italic" lengthAdjust="spacing" textLength="91.5" x="1933.5" y="73.6211">Error(message : string) : void</text><ellipse cx="1929" cy="80.7832" fill="#84BE84" rx="1.5" ry="1.5" style="stroke:#038048;stroke-width:0.5;"/><text fill="#000000" font-family="sans-serif" font-size="7" font-style="italic" lengthAdjust="spacing" textLength="102" x="1933.5" y="82.9316">Success(message : string) : void</text></g><!--class LogToConsole--><g id="elem_LogToConsole"><rect codeLine="87" fill="#F1F1F1" height="61.2422" id="LogToConsole" rx="1.25" ry="1.25" style="stroke:#181818;stroke-width:0.25;" width="172" x="1895" y="130.7568"/><ellipse cx="1955.625" cy="138.7568" fill="#ADD1B2" rx="5.5" ry="5.5" style="stroke:#181818;stroke-width:0.5;"/><path d="M1957.0078,136.6943 Q1957.0859,136.585 1957.1797,136.5303 Q1957.2734,136.4756 1957.3828,136.4756 Q1957.5703,136.4756 1957.6875,136.6084 Q1957.8047,136.7334 1957.8047,137.0381 L1957.8047,137.7646 Q1957.8047,138.0693 1957.6875,138.2021 Q1957.5703,138.335 1957.3828,138.335 Q1957.2109,138.335 1957.1094,138.2334 Q1957.0078,138.1396 1956.9531,137.8818 Q1956.9297,137.7021 1956.8359,137.6084 Q1956.6719,137.4209 1956.3672,137.3115 Q1956.0625,137.2021 1955.75,137.2021 Q1955.3672,137.2021 1955.0469,137.3662 Q1954.7344,137.5303 1954.4844,137.9053 Q1954.2422,138.2803 1954.2422,138.7959 L1954.2422,139.3428 Q1954.2422,139.96 1954.6875,140.374 Q1955.1328,140.7803 1955.9297,140.7803 Q1956.3984,140.7803 1956.7266,140.6553 Q1956.9219,140.5771 1957.1328,140.3584 Q1957.2656,140.2256 1957.3359,140.1865 Q1957.4141,140.1475 1957.5156,140.1475 Q1957.6797,140.1475 1957.8047,140.2803 Q1957.9375,140.4053 1957.9375,140.5771 Q1957.9375,140.749 1957.7656,140.9521 Q1957.5156,141.2412 1957.1172,141.4053 Q1956.5781,141.6318 1955.9297,141.6318 Q1955.1719,141.6318 1954.5703,141.3193 Q1954.0781,141.0693 1953.7344,140.5381 Q1953.3906,139.999 1953.3906,139.3584 L1953.3906,138.7803 Q1953.3906,138.1162 1953.6953,137.5459 Q1954.0078,136.9678 1954.5547,136.6631 Q1955.1016,136.3506 1955.7188,136.3506 Q1956.0859,136.3506 1956.4063,136.4365 Q1956.7344,136.5146 1957.0078,136.6943 Z " fill="#000000"/><text fill="#000000" font-family="sans-serif" font-size="7" lengthAdjust="spacing" textLength="46.5" x="1965.875" y="141.6553">LogToConsole</text><line style="stroke:#181818;stroke-width:0.25;" x1="1895.5" x2="2066.5" y1="146.7568" y2="146.7568"/><line style="stroke:#181818;stroke-width:0.25;" x1="1895.5" x2="2066.5" y1="150.7568" y2="150.7568"/><rect fill="#F24D5C" height="3" style="stroke:#C82930;stroke-width:0.5;" width="3" x="1899" y="156.6621"/><text fill="#000000" font-family="sans-serif" font-size="7" lengthAdjust="spacing" textLength="159" x="1905" y="160.3105">Print(message : string, color : ConsoleColor) : void</text><ellipse cx="1900.5" cy="167.4727" fill="#84BE84" rx="1.5" ry="1.5" style="stroke:#038048;stroke-width:0.5;"/><text fill="#000000" font-family="sans-serif" font-size="7" lengthAdjust="spacing" textLength="87.5" x="1905" y="169.6211">Info(message : string) : void</text><ellipse cx="1900.5" cy="176.7832" fill="#84BE84" rx="1.5" ry="1.5" style="stroke:#038048;stroke-width:0.5;"/><text fill="#000000" font-family="sans-serif" font-size="7" lengthAdjust="spacing" textLength="92" x="1905" y="178.9316">Error(message : string) : void</text><ellipse cx="1900.5" cy="186.0938" fill="#84BE84" rx="1.5" ry="1.5" style="stroke:#038048;stroke-width:0.5;"/><text fill="#000000" font-family="sans-serif" font-size="7" lengthAdjust="spacing" textLength="102.5" x="1905" y="188.2422">Success(message : string) : void</text></g><!--class LogToFile--><g id="elem_LogToFile"><rect codeLine="95" fill="#F1F1F1" height="89.1738" id="LogToFile" rx="1.25" ry="1.25" style="stroke:#181818;stroke-width:0.25;" width="115.5" x="2084.75" y="116.7568"/><ellipse cx="2124.375" cy="124.7568" fill="#ADD1B2" rx="5.5" ry="5.5" style="stroke:#181818;stroke-width:0.5;"/><path d="M2125.7578,122.6943 Q2125.8359,122.585 2125.9297,122.5303 Q2126.0234,122.4756 2126.1328,122.4756 Q2126.3203,122.4756 2126.4375,122.6084 Q2126.5547,122.7334 2126.5547,123.0381 L2126.5547,123.7646 Q2126.5547,124.0693 2126.4375,124.2021 Q2126.3203,124.335 2126.1328,124.335 Q2125.9609,124.335 2125.8594,124.2334 Q2125.7578,124.1396 2125.7031,123.8818 Q2125.6797,123.7021 2125.5859,123.6084 Q2125.4219,123.4209 2125.1172,123.3115 Q2124.8125,123.2021 2124.5,123.2021 Q2124.1172,123.2021 2123.7969,123.3662 Q2123.4844,123.5303 2123.2344,123.9053 Q2122.9922,124.2803 2122.9922,124.7959 L2122.9922,125.3428 Q2122.9922,125.96 2123.4375,126.374 Q2123.8828,126.7803 2124.6797,126.7803 Q2125.1484,126.7803 2125.4766,126.6553 Q2125.6719,126.5771 2125.8828,126.3584 Q2126.0156,126.2256 2126.0859,126.1865 Q2126.1641,126.1475 2126.2656,126.1475 Q2126.4297,126.1475 2126.5547,126.2803 Q2126.6875,126.4053 2126.6875,126.5771 Q2126.6875,126.749 2126.5156,126.9521 Q2126.2656,127.2412 2125.8672,127.4053 Q2125.3281,127.6318 2124.6797,127.6318 Q2123.9219,127.6318 2123.3203,127.3193 Q2122.8281,127.0693 2122.4844,126.5381 Q2122.1406,125.999 2122.1406,125.3584 L2122.1406,124.7803 Q2122.1406,124.1162 2122.4453,123.5459 Q2122.7578,122.9678 2123.3047,122.6631 Q2123.8516,122.3506 2124.4688,122.3506 Q2124.8359,122.3506 2125.1563,122.4365 Q2125.4844,122.5146 2125.7578,122.6943 Z " fill="#000000"/><text fill="#000000" font-family="sans-serif" font-size="7" lengthAdjust="spacing" textLength="32" x="2134.625" y="127.6553">LogToFile</text><line style="stroke:#181818;stroke-width:0.25;" x1="2085.25" x2="2199.75" y1="132.7568" y2="132.7568"/><rect fill="none" height="3" style="stroke:#C82930;stroke-width:0.5;" width="3" x="2088.75" y="138.6621"/><text fill="#000000" font-family="sans-serif" font-size="7" lengthAdjust="spacing" textLength="37.5" x="2094.75" y="142.3105">path : string</text><line style="stroke:#181818;stroke-width:0.25;" x1="2085.25" x2="2199.75" y1="146.0674" y2="146.0674"/><ellipse cx="2090.25" cy="153.4727" fill="#84BE84" rx="1.5" ry="1.5" style="stroke:#038048;stroke-width:0.5;"/><text fill="#000000" font-family="sans-serif" font-size="7" lengthAdjust="spacing" textLength="74.5" x="2094.75" y="155.6211">LogToFile(path : string)</text><text fill="#000000" font-family="sans-serif" font-size="7" lengthAdjust="spacing" textLength="2" x="2094.75" y="164.9316">&#160;</text><rect fill="#F24D5C" height="3" style="stroke:#C82930;stroke-width:0.5;" width="3" x="2088.75" y="170.5938"/><text fill="#000000" font-family="sans-serif" font-size="7" lengthAdjust="spacing" textLength="92.5" x="2094.75" y="174.2422">Write(message : string) : void</text><ellipse cx="2090.25" cy="181.4043" fill="#84BE84" rx="1.5" ry="1.5" style="stroke:#038048;stroke-width:0.5;"/><text fill="#000000" font-family="sans-serif" font-size="7" lengthAdjust="spacing" textLength="87.5" x="2094.75" y="183.5527">Info(message : string) : void</text><ellipse cx="2090.25" cy="190.7148" fill="#84BE84" rx="1.5" ry="1.5" style="stroke:#038048;stroke-width:0.5;"/><text fill="#000000" font-family="sans-serif" font-size="7" lengthAdjust="spacing" textLength="92" x="2094.75" y="192.8633">Error(message : string) : void</text><ellipse cx="2090.25" cy="200.0254" fill="#84BE84" rx="1.5" ry="1.5" style="stroke:#038048;stroke-width:0.5;"/><text fill="#000000" font-family="sans-serif" font-size="7" lengthAdjust="spacing" textLength="102.5" x="2094.75" y="202.1738">Success(message : string) : void</text></g><!--class ICreator--><g id="elem_ICreator"><rect codeLine="109" fill="#F1F1F1" height="48.9121" id="ICreator" rx="1.25" ry="1.25" style="stroke:#181818;stroke-width:0.25;" width="65.5" x="1287.75" y="136.7568"/><ellipse cx="1305.825" cy="147.9023" fill="#B4A7E5" rx="5.5" ry="5.5" style="stroke:#181818;stroke-width:0.5;"/><path d="M1306.3016,146.2227 L1306.3016,149.5508 L1307.1609,149.5508 Q1307.4656,149.5508 1307.5984,149.668 Q1307.7313,149.7852 1307.7313,149.9805 Q1307.7313,150.168 1307.5984,150.2852 Q1307.4656,150.4023 1307.1609,150.4023 L1304.5906,150.4023 Q1304.2859,150.4023 1304.1531,150.2852 Q1304.0203,150.168 1304.0203,149.9727 Q1304.0203,149.7852 1304.1531,149.668 Q1304.2859,149.5508 1304.5906,149.5508 L1305.45,149.5508 L1305.45,146.2227 L1304.5906,146.2227 Q1304.2859,146.2227 1304.1531,146.1055 Q1304.0203,145.9883 1304.0203,145.793 Q1304.0203,145.6055 1304.1531,145.4883 Q1304.2859,145.3711 1304.5906,145.3711 L1307.1609,145.3711 Q1307.4656,145.3711 1307.5984,145.4883 Q1307.7313,145.6055 1307.7313,145.793 Q1307.7313,145.9883 1307.5984,146.1055 Q1307.4656,146.2227 1307.1609,146.2227 L1306.3016,146.2227 Z " fill="#000000"/><text fill="#000000" font-family="sans-serif" font-size="6" font-style="italic" lengthAdjust="spacing" textLength="10.5" x="1322.925" y="145.7314">&#171;T&#187;</text><text fill="#000000" font-family="sans-serif" font-size="7" font-style="italic" lengthAdjust="spacing" textLength="26" x="1315.175" y="154.791">ICreator</text><line style="stroke:#181818;stroke-width:0.25;" x1="1288.25" x2="1352.75" y1="159.0479" y2="159.0479"/><ellipse cx="1293.25" cy="166.4531" fill="none" rx="1.5" ry="1.5" style="stroke:#038048;stroke-width:0.5;"/><text fill="#000000" font-family="sans-serif" font-size="7" lengthAdjust="spacing" textLength="52.5" x="1297.75" y="168.6016">Logger : ILogger</text><line style="stroke:#181818;stroke-width:0.25;" x1="1288.25" x2="1352.75" y1="172.3584" y2="172.3584"/><ellipse cx="1293.25" cy="179.7637" fill="#84BE84" rx="1.5" ry="1.5" style="stroke:#038048;stroke-width:0.5;"/><text fill="#000000" font-family="sans-serif" font-size="7" lengthAdjust="spacing" textLength="37" x="1297.75" y="181.9121">Create() : T</text></g><!--class AnimalCreator--><g id="elem_AnimalCreator"><rect codeLine="116" fill="#F1F1F1" height="42.6211" id="AnimalCreator" rx="1.25" ry="1.25" style="stroke:#181818;stroke-width:0.25;" width="66.5" x="1287.25" y="249.7568"/><ellipse cx="1297.225" cy="257.7568" fill="#A9DCDF" rx="5.5" ry="5.5" style="stroke:#181818;stroke-width:0.5;"/><path d="M1298.3188,258.6396 L1296.2484,258.6396 L1296.0375,259.1553 L1296.2484,259.1553 Q1296.5531,259.1553 1296.6859,259.2725 Q1296.8188,259.3896 1296.8188,259.585 Q1296.8188,259.7725 1296.6859,259.8896 Q1296.5531,260.0068 1296.2484,260.0068 L1295.1,260.0068 Q1294.7953,260.0068 1294.6703,259.8896 Q1294.5375,259.7725 1294.5375,259.5771 Q1294.5375,259.3896 1294.6781,259.2725 Q1294.8109,259.1475 1295.1234,259.1553 L1296.4594,255.8271 L1295.9047,255.8271 Q1295.6,255.8271 1295.4672,255.71 Q1295.3344,255.5928 1295.3344,255.3975 Q1295.3344,255.21 1295.4672,255.0928 Q1295.6,254.9756 1295.9047,254.9756 L1297.7406,254.9756 L1299.4359,259.1553 Q1299.7328,259.1553 1299.8266,259.2256 Q1300.0219,259.3584 1300.0219,259.585 Q1300.0219,259.7725 1299.8891,259.8896 Q1299.7641,260.0068 1299.4594,260.0068 L1298.3109,260.0068 Q1298.0063,260.0068 1297.8734,259.8896 Q1297.7406,259.7725 1297.7406,259.5771 Q1297.7406,259.3896 1297.8734,259.2725 Q1298.0063,259.1553 1298.3109,259.1553 L1298.5219,259.1553 L1298.3188,258.6396 Z M1297.9594,257.7881 L1297.2797,256.1006 L1296.5922,257.7881 L1297.9594,257.7881 Z " fill="#000000"/><text fill="#000000" font-family="sans-serif" font-size="7" font-style="italic" lengthAdjust="spacing" textLength="45" x="1304.775" y="260.6553">AnimalCreator</text><line style="stroke:#181818;stroke-width:0.25;" x1="1287.75" x2="1353.25" y1="265.7568" y2="265.7568"/><ellipse cx="1292.75" cy="273.1621" fill="none" rx="1.5" ry="1.5" style="stroke:#038048;stroke-width:0.5;"/><text fill="#000000" font-family="sans-serif" font-size="7" lengthAdjust="spacing" textLength="36.5" x="1297.25" y="275.3105">kind : string</text><line style="stroke:#181818;stroke-width:0.25;" x1="1287.75" x2="1353.25" y1="279.0674" y2="279.0674"/><ellipse cx="1292.75" cy="286.4727" fill="#84BE84" rx="1.5" ry="1.5" style="stroke:#038048;stroke-width:0.5;"/><text fill="#000000" font-family="sans-serif" font-size="7" font-style="italic" lengthAdjust="spacing" textLength="53.5" x="1297.25" y="288.6211">Create() : Animal</text></g><!--class BirdCreator--><g id="elem_BirdCreator"><rect codeLine="124" fill="#F1F1F1" height="51.9316" id="BirdCreator" rx="1.25" ry="1.25" style="stroke:#181818;stroke-width:0.25;" width="91" x="1386.5" y="336.2568"/><ellipse cx="1411.625" cy="344.2568" fill="#ADD1B2" rx="5.5" ry="5.5" style="stroke:#181818;stroke-width:0.5;"/><path d="M1413.0078,342.1943 Q1413.0859,342.085 1413.1797,342.0303 Q1413.2734,341.9756 1413.3828,341.9756 Q1413.5703,341.9756 1413.6875,342.1084 Q1413.8047,342.2334 1413.8047,342.5381 L1413.8047,343.2646 Q1413.8047,343.5693 1413.6875,343.7021 Q1413.5703,343.835 1413.3828,343.835 Q1413.2109,343.835 1413.1094,343.7334 Q1413.0078,343.6396 1412.9531,343.3818 Q1412.9297,343.2021 1412.8359,343.1084 Q1412.6719,342.9209 1412.3672,342.8115 Q1412.0625,342.7021 1411.75,342.7021 Q1411.3672,342.7021 1411.0469,342.8662 Q1410.7344,343.0303 1410.4844,343.4053 Q1410.2422,343.7803 1410.2422,344.2959 L1410.2422,344.8428 Q1410.2422,345.46 1410.6875,345.874 Q1411.1328,346.2803 1411.9297,346.2803 Q1412.3984,346.2803 1412.7266,346.1553 Q1412.9219,346.0771 1413.1328,345.8584 Q1413.2656,345.7256 1413.3359,345.6865 Q1413.4141,345.6475 1413.5156,345.6475 Q1413.6797,345.6475 1413.8047,345.7803 Q1413.9375,345.9053 1413.9375,346.0771 Q1413.9375,346.249 1413.7656,346.4521 Q1413.5156,346.7412 1413.1172,346.9053 Q1412.5781,347.1318 1411.9297,347.1318 Q1411.1719,347.1318 1410.5703,346.8193 Q1410.0781,346.5693 1409.7344,346.0381 Q1409.3906,345.499 1409.3906,344.8584 L1409.3906,344.2803 Q1409.3906,343.6162 1409.6953,343.0459 Q1410.0078,342.4678 1410.5547,342.1631 Q1411.1016,341.8506 1411.7188,341.8506 Q1412.0859,341.8506 1412.4063,341.9365 Q1412.7344,342.0146 1413.0078,342.1943 Z " fill="#000000"/><text fill="#000000" font-family="sans-serif" font-size="7" lengthAdjust="spacing" textLength="36.5" x="1421.875" y="347.1553">BirdCreator</text><line style="stroke:#181818;stroke-width:0.25;" x1="1387" x2="1477" y1="352.2568" y2="352.2568"/><line style="stroke:#181818;stroke-width:0.25;" x1="1387" x2="1477" y1="356.2568" y2="356.2568"/><ellipse cx="1392" cy="363.6621" fill="#84BE84" rx="1.5" ry="1.5" style="stroke:#038048;stroke-width:0.5;"/><text fill="#000000" font-family="sans-serif" font-size="7" lengthAdjust="spacing" textLength="78" x="1396.5" y="365.8105">BirdCreator(kind : string)</text><text fill="#000000" font-family="sans-serif" font-size="7" lengthAdjust="spacing" textLength="2" x="1396.5" y="375.1211">&#160;</text><ellipse cx="1392" cy="382.2832" fill="#84BE84" rx="1.5" ry="1.5" style="stroke:#038048;stroke-width:0.5;"/><text fill="#000000" font-family="sans-serif" font-size="7" lengthAdjust="spacing" textLength="53.5" x="1396.5" y="384.4316">Create() : Animal</text></g><!--class FishCreator--><g id="elem_FishCreator"><rect codeLine="132" fill="#F1F1F1" height="51.9316" id="FishCreator" rx="1.25" ry="1.25" style="stroke:#181818;stroke-width:0.25;" width="92" x="1495" y="336.2568"/><ellipse cx="1520.125" cy="344.2568" fill="#ADD1B2" rx="5.5" ry="5.5" style="stroke:#181818;stroke-width:0.5;"/><path d="M1521.5078,342.1943 Q1521.5859,342.085 1521.6797,342.0303 Q1521.7734,341.9756 1521.8828,341.9756 Q1522.0703,341.9756 1522.1875,342.1084 Q1522.3047,342.2334 1522.3047,342.5381 L1522.3047,343.2646 Q1522.3047,343.5693 1522.1875,343.7021 Q1522.0703,343.835 1521.8828,343.835 Q1521.7109,343.835 1521.6094,343.7334 Q1521.5078,343.6396 1521.4531,343.3818 Q1521.4297,343.2021 1521.3359,343.1084 Q1521.1719,342.9209 1520.8672,342.8115 Q1520.5625,342.7021 1520.25,342.7021 Q1519.8672,342.7021 1519.5469,342.8662 Q1519.2344,343.0303 1518.9844,343.4053 Q1518.7422,343.7803 1518.7422,344.2959 L1518.7422,344.8428 Q1518.7422,345.46 1519.1875,345.874 Q1519.6328,346.2803 1520.4297,346.2803 Q1520.8984,346.2803 1521.2266,346.1553 Q1521.4219,346.0771 1521.6328,345.8584 Q1521.7656,345.7256 1521.8359,345.6865 Q1521.9141,345.6475 1522.0156,345.6475 Q1522.1797,345.6475 1522.3047,345.7803 Q1522.4375,345.9053 1522.4375,346.0771 Q1522.4375,346.249 1522.2656,346.4521 Q1522.0156,346.7412 1521.6172,346.9053 Q1521.0781,347.1318 1520.4297,347.1318 Q1519.6719,347.1318 1519.0703,346.8193 Q1518.5781,346.5693 1518.2344,346.0381 Q1517.8906,345.499 1517.8906,344.8584 L1517.8906,344.2803 Q1517.8906,343.6162 1518.1953,343.0459 Q1518.5078,342.4678 1519.0547,342.1631 Q1519.6016,341.8506 1520.2188,341.8506 Q1520.5859,341.8506 1520.9063,341.9365 Q1521.2344,342.0146 1521.5078,342.1943 Z " fill="#000000"/><text fill="#000000" font-family="sans-serif" font-size="7" lengthAdjust="spacing" textLength="37.5" x="1530.375" y="347.1553">FishCreator</text><line style="stroke:#181818;stroke-width:0.25;" x1="1495.5" x2="1586.5" y1="352.2568" y2="352.2568"/><line style="stroke:#181818;stroke-width:0.25;" x1="1495.5" x2="1586.5" y1="356.2568" y2="356.2568"/><ellipse cx="1500.5" cy="363.6621" fill="#84BE84" rx="1.5" ry="1.5" style="stroke:#038048;stroke-width:0.5;"/><text fill="#000000" font-family="sans-serif" font-size="7" lengthAdjust="spacing" textLength="79" x="1505" y="365.8105">FishCreator(kind : string)</text><text fill="#000000" font-family="sans-serif" font-size="7" lengthAdjust="spacing" textLength="2" x="1505" y="375.1211">&#160;</text><ellipse cx="1500.5" cy="382.2832" fill="#84BE84" rx="1.5" ry="1.5" style="stroke:#038048;stroke-width:0.5;"/><text fill="#000000" font-family="sans-serif" font-size="7" lengthAdjust="spacing" textLength="53.5" x="1505" y="384.4316">Create() : Animal</text></g><!--class MammaliaCreator--><g id="elem_MammaliaCreator"><rect codeLine="140" fill="#F1F1F1" height="51.9316" id="MammaliaCreator" rx="1.25" ry="1.25" style="stroke:#181818;stroke-width:0.25;" width="110" x="1144.5" y="336.2568"/><ellipse cx="1169.625" cy="344.2568" fill="#ADD1B2" rx="5.5" ry="5.5" style="stroke:#181818;stroke-width:0.5;"/><path d="M1171.0078,342.1943 Q1171.0859,342.085 1171.1797,342.0303 Q1171.2734,341.9756 1171.3828,341.9756 Q1171.5703,341.9756 1171.6875,342.1084 Q1171.8047,342.2334 1171.8047,342.5381 L1171.8047,343.2646 Q1171.8047,343.5693 1171.6875,343.7021 Q1171.5703,343.835 1171.3828,343.835 Q1171.2109,343.835 1171.1094,343.7334 Q1171.0078,343.6396 1170.9531,343.3818 Q1170.9297,343.2021 1170.8359,343.1084 Q1170.6719,342.9209 1170.3672,342.8115 Q1170.0625,342.7021 1169.75,342.7021 Q1169.3672,342.7021 1169.0469,342.8662 Q1168.7344,343.0303 1168.4844,343.4053 Q1168.2422,343.7803 1168.2422,344.2959 L1168.2422,344.8428 Q1168.2422,345.46 1168.6875,345.874 Q1169.1328,346.2803 1169.9297,346.2803 Q1170.3984,346.2803 1170.7266,346.1553 Q1170.9219,346.0771 1171.1328,345.8584 Q1171.2656,345.7256 1171.3359,345.6865 Q1171.4141,345.6475 1171.5156,345.6475 Q1171.6797,345.6475 1171.8047,345.7803 Q1171.9375,345.9053 1171.9375,346.0771 Q1171.9375,346.249 1171.7656,346.4521 Q1171.5156,346.7412 1171.1172,346.9053 Q1170.5781,347.1318 1169.9297,347.1318 Q1169.1719,347.1318 1168.5703,346.8193 Q1168.0781,346.5693 1167.7344,346.0381 Q1167.3906,345.499 1167.3906,344.8584 L1167.3906,344.2803 Q1167.3906,343.6162 1167.6953,343.0459 Q1168.0078,342.4678 1168.5547,342.1631 Q1169.1016,341.8506 1169.7188,341.8506 Q1170.0859,341.8506 1170.4063,341.9365 Q1170.7344,342.0146 1171.0078,342.1943 Z " fill="#000000"/><text fill="#000000" font-family="sans-serif" font-size="7" lengthAdjust="spacing" textLength="55.5" x="1179.875" y="347.1553">MammaliaCreator</text><line style="stroke:#181818;stroke-width:0.25;" x1="1145" x2="1254" y1="352.2568" y2="352.2568"/><line style="stroke:#181818;stroke-width:0.25;" x1="1145" x2="1254" y1="356.2568" y2="356.2568"/><ellipse cx="1150" cy="363.6621" fill="#84BE84" rx="1.5" ry="1.5" style="stroke:#038048;stroke-width:0.5;"/><text fill="#000000" font-family="sans-serif" font-size="7" lengthAdjust="spacing" textLength="97" x="1154.5" y="365.8105">MammaliaCreator(kind : string)</text><text fill="#000000" font-family="sans-serif" font-size="7" lengthAdjust="spacing" textLength="2" x="1154.5" y="375.1211">&#160;</text><ellipse cx="1150" cy="382.2832" fill="#84BE84" rx="1.5" ry="1.5" style="stroke:#038048;stroke-width:0.5;"/><text fill="#000000" font-family="sans-serif" font-size="7" lengthAdjust="spacing" textLength="53.5" x="1154.5" y="384.4316">Create() : Animal</text></g><!--class InsectCreator--><g id="elem_InsectCreator"><rect codeLine="148" fill="#F1F1F1" height="51.9316" id="InsectCreator" rx="1.25" ry="1.25" style="stroke:#181818;stroke-width:0.25;" width="97" x="1272" y="336.2568"/><ellipse cx="1297.125" cy="344.2568" fill="#ADD1B2" rx="5.5" ry="5.5" style="stroke:#181818;stroke-width:0.5;"/><path d="M1298.5078,342.1943 Q1298.5859,342.085 1298.6797,342.0303 Q1298.7734,341.9756 1298.8828,341.9756 Q1299.0703,341.9756 1299.1875,342.1084 Q1299.3047,342.2334 1299.3047,342.5381 L1299.3047,343.2646 Q1299.3047,343.5693 1299.1875,343.7021 Q1299.0703,343.835 1298.8828,343.835 Q1298.7109,343.835 1298.6094,343.7334 Q1298.5078,343.6396 1298.4531,343.3818 Q1298.4297,343.2021 1298.3359,343.1084 Q1298.1719,342.9209 1297.8672,342.8115 Q1297.5625,342.7021 1297.25,342.7021 Q1296.8672,342.7021 1296.5469,342.8662 Q1296.2344,343.0303 1295.9844,343.4053 Q1295.7422,343.7803 1295.7422,344.2959 L1295.7422,344.8428 Q1295.7422,345.46 1296.1875,345.874 Q1296.6328,346.2803 1297.4297,346.2803 Q1297.8984,346.2803 1298.2266,346.1553 Q1298.4219,346.0771 1298.6328,345.8584 Q1298.7656,345.7256 1298.8359,345.6865 Q1298.9141,345.6475 1299.0156,345.6475 Q1299.1797,345.6475 1299.3047,345.7803 Q1299.4375,345.9053 1299.4375,346.0771 Q1299.4375,346.249 1299.2656,346.4521 Q1299.0156,346.7412 1298.6172,346.9053 Q1298.0781,347.1318 1297.4297,347.1318 Q1296.6719,347.1318 1296.0703,346.8193 Q1295.5781,346.5693 1295.2344,346.0381 Q1294.8906,345.499 1294.8906,344.8584 L1294.8906,344.2803 Q1294.8906,343.6162 1295.1953,343.0459 Q1295.5078,342.4678 1296.0547,342.1631 Q1296.6016,341.8506 1297.2188,341.8506 Q1297.5859,341.8506 1297.9063,341.9365 Q1298.2344,342.0146 1298.5078,342.1943 Z " fill="#000000"/><text fill="#000000" font-family="sans-serif" font-size="7" lengthAdjust="spacing" textLength="42.5" x="1307.375" y="347.1553">InsectCreator</text><line style="stroke:#181818;stroke-width:0.25;" x1="1272.5" x2="1368.5" y1="352.2568" y2="352.2568"/><line style="stroke:#181818;stroke-width:0.25;" x1="1272.5" x2="1368.5" y1="356.2568" y2="356.2568"/><ellipse cx="1277.5" cy="363.6621" fill="#84BE84" rx="1.5" ry="1.5" style="stroke:#038048;stroke-width:0.5;"/><text fill="#000000" font-family="sans-serif" font-size="7" lengthAdjust="spacing" textLength="84" x="1282" y="365.8105">InsectCreator(kind : string)</text><text fill="#000000" font-family="sans-serif" font-size="7" lengthAdjust="spacing" textLength="2" x="1282" y="375.1211">&#160;</text><ellipse cx="1277.5" cy="382.2832" fill="#84BE84" rx="1.5" ry="1.5" style="stroke:#038048;stroke-width:0.5;"/><text fill="#000000" font-family="sans-serif" font-size="7" lengthAdjust="spacing" textLength="53.5" x="1282" y="384.4316">Create() : Animal</text></g><!--class AviaryCreator--><g id="elem_AviaryCreator"><rect codeLine="158" fill="#F1F1F1" height="51.9316" id="AviaryCreator" rx="1.25" ry="1.25" style="stroke:#181818;stroke-width:0.25;" width="64.5" x="999.75" y="245.0068"/><ellipse cx="1009.725" cy="253.0068" fill="#A9DCDF" rx="5.5" ry="5.5" style="stroke:#181818;stroke-width:0.5;"/><path d="M1010.8188,253.8896 L1008.7484,253.8896 L1008.5375,254.4053 L1008.7484,254.4053 Q1009.0531,254.4053 1009.1859,254.5225 Q1009.3188,254.6396 1009.3188,254.835 Q1009.3188,255.0225 1009.1859,255.1396 Q1009.0531,255.2568 1008.7484,255.2568 L1007.6,255.2568 Q1007.2953,255.2568 1007.1703,255.1396 Q1007.0375,255.0225 1007.0375,254.8271 Q1007.0375,254.6396 1007.1781,254.5225 Q1007.3109,254.3975 1007.6234,254.4053 L1008.9594,251.0771 L1008.4047,251.0771 Q1008.1,251.0771 1007.9672,250.96 Q1007.8344,250.8428 1007.8344,250.6475 Q1007.8344,250.46 1007.9672,250.3428 Q1008.1,250.2256 1008.4047,250.2256 L1010.2406,250.2256 L1011.9359,254.4053 Q1012.2328,254.4053 1012.3266,254.4756 Q1012.5219,254.6084 1012.5219,254.835 Q1012.5219,255.0225 1012.3891,255.1396 Q1012.2641,255.2568 1011.9594,255.2568 L1010.8109,255.2568 Q1010.5063,255.2568 1010.3734,255.1396 Q1010.2406,255.0225 1010.2406,254.8271 Q1010.2406,254.6396 1010.3734,254.5225 Q1010.5063,254.4053 1010.8109,254.4053 L1011.0219,254.4053 L1010.8188,253.8896 Z M1010.4594,253.0381 L1009.7797,251.3506 L1009.0922,253.0381 L1010.4594,253.0381 Z " fill="#000000"/><text fill="#000000" font-family="sans-serif" font-size="7" font-style="italic" lengthAdjust="spacing" textLength="43" x="1017.275" y="255.9053">AviaryCreator</text><line style="stroke:#181818;stroke-width:0.25;" x1="1000.25" x2="1063.75" y1="261.0068" y2="261.0068"/><ellipse cx="1005.25" cy="268.4121" fill="none" rx="1.5" ry="1.5" style="stroke:#038048;stroke-width:0.5;"/><text fill="#000000" font-family="sans-serif" font-size="7" lengthAdjust="spacing" textLength="41" x="1009.75" y="270.5605">name : string</text><ellipse cx="1005.25" cy="277.7227" fill="none" rx="1.5" ry="1.5" style="stroke:#038048;stroke-width:0.5;"/><text fill="#000000" font-family="sans-serif" font-size="7" lengthAdjust="spacing" textLength="31" x="1009.75" y="279.8711">count : int</text><line style="stroke:#181818;stroke-width:0.25;" x1="1000.25" x2="1063.75" y1="283.6279" y2="283.6279"/><ellipse cx="1005.25" cy="291.0332" fill="#84BE84" rx="1.5" ry="1.5" style="stroke:#038048;stroke-width:0.5;"/><text fill="#000000" font-family="sans-serif" font-size="7" font-style="italic" lengthAdjust="spacing" textLength="51.5" x="1009.75" y="293.1816">Create() : Aviary</text></g><!--class LandAviaryCreator--><g id="elem_LandAviaryCreator"><rect codeLine="168" fill="#F1F1F1" height="33.3105" id="LandAviaryCreator" rx="1.25" ry="1.25" style="stroke:#181818;stroke-width:0.25;" width="75.5" x="947.25" y="345.5068"/><ellipse cx="954.75" cy="353.5068" fill="#ADD1B2" rx="5.5" ry="5.5" style="stroke:#181818;stroke-width:0.5;"/><path d="M956.1328,351.4443 Q956.2109,351.335 956.3047,351.2803 Q956.3984,351.2256 956.5078,351.2256 Q956.6953,351.2256 956.8125,351.3584 Q956.9297,351.4834 956.9297,351.7881 L956.9297,352.5146 Q956.9297,352.8193 956.8125,352.9521 Q956.6953,353.085 956.5078,353.085 Q956.3359,353.085 956.2344,352.9834 Q956.1328,352.8896 956.0781,352.6318 Q956.0547,352.4521 955.9609,352.3584 Q955.7969,352.1709 955.4922,352.0615 Q955.1875,351.9521 954.875,351.9521 Q954.4922,351.9521 954.1719,352.1162 Q953.8594,352.2803 953.6094,352.6553 Q953.3672,353.0303 953.3672,353.5459 L953.3672,354.0928 Q953.3672,354.71 953.8125,355.124 Q954.2578,355.5303 955.0547,355.5303 Q955.5234,355.5303 955.8516,355.4053 Q956.0469,355.3271 956.2578,355.1084 Q956.3906,354.9756 956.4609,354.9365 Q956.5391,354.8975 956.6406,354.8975 Q956.8047,354.8975 956.9297,355.0303 Q957.0625,355.1553 957.0625,355.3271 Q957.0625,355.499 956.8906,355.7021 Q956.6406,355.9912 956.2422,356.1553 Q955.7031,356.3818 955.0547,356.3818 Q954.2969,356.3818 953.6953,356.0693 Q953.2031,355.8193 952.8594,355.2881 Q952.5156,354.749 952.5156,354.1084 L952.5156,353.5303 Q952.5156,352.8662 952.8203,352.2959 Q953.1328,351.7178 953.6797,351.4131 Q954.2266,351.1006 954.8438,351.1006 Q955.2109,351.1006 955.5313,351.1865 Q955.8594,351.2646 956.1328,351.4443 Z " fill="#000000"/><text fill="#000000" font-family="sans-serif" font-size="7" lengthAdjust="spacing" textLength="59.5" x="961.75" y="356.4053">LandAviaryCreator</text><line style="stroke:#181818;stroke-width:0.25;" x1="947.75" x2="1022.25" y1="361.5068" y2="361.5068"/><line style="stroke:#181818;stroke-width:0.25;" x1="947.75" x2="1022.25" y1="365.5068" y2="365.5068"/><ellipse cx="952.75" cy="372.9121" fill="#84BE84" rx="1.5" ry="1.5" style="stroke:#038048;stroke-width:0.5;"/><text fill="#000000" font-family="sans-serif" font-size="7" lengthAdjust="spacing" textLength="52" x="957.25" y="375.0605">Create() : Aviary</text></g><!--class AquaAviaryCreator--><g id="elem_AquaAviaryCreator"><rect codeLine="175" fill="#F1F1F1" height="33.3105" id="AquaAviaryCreator" rx="1.25" ry="1.25" style="stroke:#181818;stroke-width:0.25;" width="76" x="1040.5" y="345.5068"/><ellipse cx="1048" cy="353.5068" fill="#ADD1B2" rx="5.5" ry="5.5" style="stroke:#181818;stroke-width:0.5;"/><path d="M1049.3828,351.4443 Q1049.4609,351.335 1049.5547,351.2803 Q1049.6484,351.2256 1049.7578,351.2256 Q1049.9453,351.2256 1050.0625,351.3584 Q1050.1797,351.4834 1050.1797,351.7881 L1050.1797,352.5146 Q1050.1797,352.8193 1050.0625,352.9521 Q1049.9453,353.085 1049.7578,353.085 Q1049.5859,353.085 1049.4844,352.9834 Q1049.3828,352.8896 1049.3281,352.6318 Q1049.3047,352.4521 1049.2109,352.3584 Q1049.0469,352.1709 1048.7422,352.0615 Q1048.4375,351.9521 1048.125,351.9521 Q1047.7422,351.9521 1047.4219,352.1162 Q1047.1094,352.2803 1046.8594,352.6553 Q1046.6172,353.0303 1046.6172,353.5459 L1046.6172,354.0928 Q1046.6172,354.71 1047.0625,355.124 Q1047.5078,355.5303 1048.3047,355.5303 Q1048.7734,355.5303 1049.1016,355.4053 Q1049.2969,355.3271 1049.5078,355.1084 Q1049.6406,354.9756 1049.7109,354.9365 Q1049.7891,354.8975 1049.8906,354.8975 Q1050.0547,354.8975 1050.1797,355.0303 Q1050.3125,355.1553 1050.3125,355.3271 Q1050.3125,355.499 1050.1406,355.7021 Q1049.8906,355.9912 1049.4922,356.1553 Q1048.9531,356.3818 1048.3047,356.3818 Q1047.5469,356.3818 1046.9453,356.0693 Q1046.4531,355.8193 1046.1094,355.2881 Q1045.7656,354.749 1045.7656,354.1084 L1045.7656,353.5303 Q1045.7656,352.8662 1046.0703,352.2959 Q1046.3828,351.7178 1046.9297,351.4131 Q1047.4766,351.1006 1048.0938,351.1006 Q1048.4609,351.1006 1048.7813,351.1865 Q1049.1094,351.2646 1049.3828,351.4443 Z " fill="#000000"/><text fill="#000000" font-family="sans-serif" font-size="7" lengthAdjust="spacing" textLength="60" x="1055" y="356.4053">AquaAviaryCreator</text><line style="stroke:#181818;stroke-width:0.25;" x1="1041" x2="1116" y1="361.5068" y2="361.5068"/><line style="stroke:#181818;stroke-width:0.25;" x1="1041" x2="1116" y1="365.5068" y2="365.5068"/><ellipse cx="1046" cy="372.9121" fill="#84BE84" rx="1.5" ry="1.5" style="stroke:#038048;stroke-width:0.5;"/><text fill="#000000" font-family="sans-serif" font-size="7" lengthAdjust="spacing" textLength="52" x="1050.5" y="375.0605">Create() : Aviary</text></g><!--class AnimalType--><g id="elem_AnimalType"><rect codeLine="183" fill="#F1F1F1" height="70.5527" id="AnimalType" rx="1.25" ry="1.25" style="stroke:#181818;stroke-width:0.25;" width="53" x="1755.5" y="126.0068"/><ellipse cx="1763" cy="134.0068" fill="#EB937F" rx="5.5" ry="5.5" style="stroke:#181818;stroke-width:0.5;"/><path d="M1762.4297,134.4053 L1762.4297,135.6553 L1764.5938,135.6553 L1764.5938,135.1943 Q1764.5938,134.8896 1764.7109,134.7568 Q1764.8359,134.624 1765.0234,134.624 Q1765.2109,134.624 1765.3281,134.7568 Q1765.4453,134.8896 1765.4453,135.1943 L1765.4453,136.5068 L1761.4453,136.5068 Q1761.1328,136.5068 1761,136.3896 Q1760.875,136.2725 1760.875,136.0771 Q1760.875,135.8896 1761.0078,135.7725 Q1761.1406,135.6553 1761.4453,135.6553 L1761.5781,135.6553 L1761.5781,132.3271 L1761.4453,132.3271 Q1761.1328,132.3271 1761,132.21 Q1760.875,132.0928 1760.875,131.8975 Q1760.875,131.71 1761,131.5928 Q1761.1328,131.4756 1761.4453,131.4756 L1765.2578,131.4756 L1765.2578,132.7725 Q1765.2578,133.0771 1765.1406,133.21 Q1765.0313,133.335 1764.8359,133.335 Q1764.6484,133.335 1764.5313,133.21 Q1764.4141,133.0771 1764.4141,132.7725 L1764.4141,132.3271 L1762.4297,132.3271 L1762.4297,133.5537 L1763.1719,133.5537 Q1763.1719,133.2256 1763.2344,133.1318 Q1763.3672,132.9287 1763.6016,132.9287 Q1763.7891,132.9287 1763.9063,133.0615 Q1764.0234,133.1865 1764.0234,133.4912 L1764.0234,134.4756 Q1764.0234,134.749 1763.9609,134.8428 Q1763.8281,135.0381 1763.6016,135.0381 Q1763.3672,135.0381 1763.2344,134.835 Q1763.1719,134.7412 1763.1719,134.4053 L1762.4297,134.4053 Z " fill="#000000"/><text fill="#000000" font-family="sans-serif" font-size="7" lengthAdjust="spacing" textLength="37" x="1770" y="136.9053">AnimalType</text><line style="stroke:#181818;stroke-width:0.25;" x1="1756" x2="1808" y1="142.0068" y2="142.0068"/><text fill="#000000" font-family="sans-serif" font-size="7" lengthAdjust="spacing" textLength="28.5" x="1758.5" y="151.5605">Unknown</text><text fill="#000000" font-family="sans-serif" font-size="7" lengthAdjust="spacing" textLength="12.5" x="1758.5" y="160.8711">Bird</text><text fill="#000000" font-family="sans-serif" font-size="7" lengthAdjust="spacing" textLength="13.5" x="1758.5" y="170.1816">Fish</text><text fill="#000000" font-family="sans-serif" font-size="7" lengthAdjust="spacing" textLength="18.5" x="1758.5" y="179.4922">Insect</text><text fill="#000000" font-family="sans-serif" font-size="7" lengthAdjust="spacing" textLength="31.5" x="1758.5" y="188.8027">Mammalia</text><line style="stroke:#181818;stroke-width:0.25;" x1="1756" x2="1808" y1="192.5596" y2="192.5596"/></g><!--class AviaryType--><g id="elem_AviaryType"><rect codeLine="191" fill="#F1F1F1" height="51.9316" id="AviaryType" rx="1.25" ry="1.25" style="stroke:#181818;stroke-width:0.25;" width="51.5" x="1686.25" y="135.2568"/><ellipse cx="1693.75" cy="143.2568" fill="#EB937F" rx="5.5" ry="5.5" style="stroke:#181818;stroke-width:0.5;"/><path d="M1693.1797,143.6553 L1693.1797,144.9053 L1695.3438,144.9053 L1695.3438,144.4443 Q1695.3438,144.1396 1695.4609,144.0068 Q1695.5859,143.874 1695.7734,143.874 Q1695.9609,143.874 1696.0781,144.0068 Q1696.1953,144.1396 1696.1953,144.4443 L1696.1953,145.7568 L1692.1953,145.7568 Q1691.8828,145.7568 1691.75,145.6396 Q1691.625,145.5225 1691.625,145.3271 Q1691.625,145.1396 1691.7578,145.0225 Q1691.8906,144.9053 1692.1953,144.9053 L1692.3281,144.9053 L1692.3281,141.5771 L1692.1953,141.5771 Q1691.8828,141.5771 1691.75,141.46 Q1691.625,141.3428 1691.625,141.1475 Q1691.625,140.96 1691.75,140.8428 Q1691.8828,140.7256 1692.1953,140.7256 L1696.0078,140.7256 L1696.0078,142.0225 Q1696.0078,142.3271 1695.8906,142.46 Q1695.7813,142.585 1695.5859,142.585 Q1695.3984,142.585 1695.2813,142.46 Q1695.1641,142.3271 1695.1641,142.0225 L1695.1641,141.5771 L1693.1797,141.5771 L1693.1797,142.8037 L1693.9219,142.8037 Q1693.9219,142.4756 1693.9844,142.3818 Q1694.1172,142.1787 1694.3516,142.1787 Q1694.5391,142.1787 1694.6563,142.3115 Q1694.7734,142.4365 1694.7734,142.7412 L1694.7734,143.7256 Q1694.7734,143.999 1694.7109,144.0928 Q1694.5781,144.2881 1694.3516,144.2881 Q1694.1172,144.2881 1693.9844,144.085 Q1693.9219,143.9912 1693.9219,143.6553 L1693.1797,143.6553 Z " fill="#000000"/><text fill="#000000" font-family="sans-serif" font-size="7" lengthAdjust="spacing" textLength="35.5" x="1700.75" y="146.1553">AviaryType</text><line style="stroke:#181818;stroke-width:0.25;" x1="1686.75" x2="1737.25" y1="151.2568" y2="151.2568"/><text fill="#000000" font-family="sans-serif" font-size="7" lengthAdjust="spacing" textLength="28.5" x="1689.25" y="160.8105">Unknown</text><text fill="#000000" font-family="sans-serif" font-size="7" lengthAdjust="spacing" textLength="16.5" x="1689.25" y="170.1211">Aqua</text><text fill="#000000" font-family="sans-serif" font-size="7" lengthAdjust="spacing" textLength="16" x="1689.25" y="179.4316">Land</text><line style="stroke:#181818;stroke-width:0.25;" x1="1686.75" x2="1737.25" y1="183.1885" y2="183.1885"/></g><!--class Zoo--><g id="elem_Zoo"><rect codeLine="203" fill="#F1F1F1" height="70.5527" id="Zoo" rx="1.25" ry="1.25" style="stroke:#181818;stroke-width:0.25;" width="239.5" x="1627.25" y="235.7568"/><ellipse cx="1738.875" cy="243.7568" fill="#ADD1B2" rx="5.5" ry="5.5" style="stroke:#181818;stroke-width:0.5;"/><path d="M1740.2578,241.6943 Q1740.3359,241.585 1740.4297,241.5303 Q1740.5234,241.4756 1740.6328,241.4756 Q1740.8203,241.4756 1740.9375,241.6084 Q1741.0547,241.7334 1741.0547,242.0381 L1741.0547,242.7646 Q1741.0547,243.0693 1740.9375,243.2021 Q1740.8203,243.335 1740.6328,243.335 Q1740.4609,243.335 1740.3594,243.2334 Q1740.2578,243.1396 1740.2031,242.8818 Q1740.1797,242.7021 1740.0859,242.6084 Q1739.9219,242.4209 1739.6172,242.3115 Q1739.3125,242.2021 1739,242.2021 Q1738.6172,242.2021 1738.2969,242.3662 Q1737.9844,242.5303 1737.7344,242.9053 Q1737.4922,243.2803 1737.4922,243.7959 L1737.4922,244.3428 Q1737.4922,244.96 1737.9375,245.374 Q1738.3828,245.7803 1739.1797,245.7803 Q1739.6484,245.7803 1739.9766,245.6553 Q1740.1719,245.5771 1740.3828,245.3584 Q1740.5156,245.2256 1740.5859,245.1865 Q1740.6641,245.1475 1740.7656,245.1475 Q1740.9297,245.1475 1741.0547,245.2803 Q1741.1875,245.4053 1741.1875,245.5771 Q1741.1875,245.749 1741.0156,245.9521 Q1740.7656,246.2412 1740.3672,246.4053 Q1739.8281,246.6318 1739.1797,246.6318 Q1738.4219,246.6318 1737.8203,246.3193 Q1737.3281,246.0693 1736.9844,245.5381 Q1736.6406,244.999 1736.6406,244.3584 L1736.6406,243.7803 Q1736.6406,243.1162 1736.9453,242.5459 Q1737.2578,241.9678 1737.8047,241.6631 Q1738.3516,241.3506 1738.9688,241.3506 Q1739.3359,241.3506 1739.6563,241.4365 Q1739.9844,241.5146 1740.2578,241.6943 Z " fill="#000000"/><text fill="#000000" font-family="sans-serif" font-size="7" lengthAdjust="spacing" textLength="12" x="1749.125" y="246.6553">Zoo</text><line style="stroke:#181818;stroke-width:0.25;" x1="1627.75" x2="1866.25" y1="251.7568" y2="251.7568"/><ellipse cx="1632.75" cy="259.1621" fill="none" rx="1.5" ry="1.5" style="stroke:#038048;stroke-width:0.5;"/><text fill="#000000" font-family="sans-serif" font-size="7" lengthAdjust="spacing" textLength="52" x="1637.25" y="261.3105">totalAviaries : int</text><ellipse cx="1632.75" cy="268.4727" fill="none" rx="1.5" ry="1.5" style="stroke:#038048;stroke-width:0.5;"/><text fill="#000000" font-family="sans-serif" font-size="7" lengthAdjust="spacing" textLength="54" x="1637.25" y="270.6211">aviaries : Aviary[]</text><ellipse cx="1632.75" cy="277.7832" fill="none" rx="1.5" ry="1.5" style="stroke:#038048;stroke-width:0.5;"/><text fill="#000000" font-family="sans-serif" font-size="7" lengthAdjust="spacing" textLength="55" x="1637.25" y="279.9316">animals : Animal[]</text><line style="stroke:#181818;stroke-width:0.25;" x1="1627.75" x2="1866.25" y1="283.6885" y2="283.6885"/><ellipse cx="1632.75" cy="291.0938" fill="#84BE84" rx="1.5" ry="1.5" style="stroke:#038048;stroke-width:0.5;"/><text fill="#000000" font-family="sans-serif" font-size="7" lengthAdjust="spacing" textLength="226.5" x="1637.25" y="293.2422">AddAnimal(kind : string, animalType : AnimalType, aviary : Aviary) : bool</text><ellipse cx="1632.75" cy="300.4043" fill="#84BE84" rx="1.5" ry="1.5" style="stroke:#038048;stroke-width:0.5;"/><text fill="#000000" font-family="sans-serif" font-size="7" lengthAdjust="spacing" textLength="213" x="1637.25" y="302.5527">AddAviary(name : string, count : int, aviaryType : AviaryType) : bool</text></g><!--reverse link Animal to Bird--><g id="link_Animal_Bird"><path codeLine="23" d="M453.2968,83.847 C461.1118,91.472 463.835,94.5468 471.5,103.5068 C481.395,115.0768 491.52,128.8068 499.345,139.9218 " fill="none" id="Animal-backto-Bird" style="stroke:#181818;stroke-width:0.5;"/><polygon fill="none" points="446.855,77.5618,451.2017,85.9943,455.3918,81.6997,446.855,77.5618" style="stroke:#181818;stroke-width:0.5;"/></g><!--reverse link IFlying to Bird--><g id="link_IFlying_Bird"><path codeLine="24" d="M839.3351,83.0136 C833.1101,87.7186 832.99,86.8618 825.5,89.5068 C768.845,109.5068 608.375,74.9768 555.5,103.5068 C540.8,111.4368 529.895,127.0118 522.885,139.9168 " fill="none" id="IFlying-backto-Bird" style="stroke:#181818;stroke-width:0.5;stroke-dasharray:7.0,7.0;"/><polygon fill="none" points="846.515,77.5868,837.5262,80.6203,841.144,85.4069,846.515,77.5868" style="stroke:#181818;stroke-width:0.5;"/></g><!--reverse link IWalking to Bird--><g id="link_IWalking_Bird"><path codeLine="25" d="M755.5326,82.7314 C748.7876,87.3764 748.375,86.8018 740.5,89.5068 C701.51,102.9068 591.55,83.4968 555.5,103.5068 C540.95,111.5818 530.065,127.0618 523.025,139.8918 " fill="none" id="IWalking-backto-Bird" style="stroke:#181818;stroke-width:0.5;stroke-dasharray:7.0,7.0;"/><polygon fill="none" points="762.945,77.6268,753.8311,80.2606,757.2342,85.2022,762.945,77.6268" style="stroke:#181818;stroke-width:0.5;"/></g><!--reverse link Animal to Fish--><g id="link_Animal_Fish"><path codeLine="31" d="M405.8606,83.9899 C398.0756,91.6399 395.315,94.6768 387.5,103.5068 C375.77,116.7618 363.415,132.6418 354.62,144.3118 " fill="none" id="Animal-backto-Fish" style="stroke:#181818;stroke-width:0.5;"/><polygon fill="none" points="412.28,77.6818,403.7579,81.8501,407.9633,86.1297,412.28,77.6818" style="stroke:#181818;stroke-width:0.5;"/></g><!--reverse link ISwimming to Fish--><g id="link_ISwimming_Fish"><path codeLine="32" d="M660.5241,81.6926 C651.4541,86.3926 649.07,86.8318 639,89.5068 C584.9,103.8768 437.145,77.6518 387.5,103.5068 C370.455,112.3818 357.79,130.9018 350.31,144.4818 " fill="none" id="ISwimming-backto-Fish" style="stroke:#181818;stroke-width:0.5;stroke-dasharray:7.0,7.0;"/><polygon fill="none" points="668.515,77.5518,659.1439,79.029,661.9044,84.3563,668.515,77.5518" style="stroke:#181818;stroke-width:0.5;"/></g><!--reverse link Animal to Mammalia--><g id="link_Animal_Mammalia"><path codeLine="37" d="M429.5,86.6868 C429.5,105.1768 429.5,126.0368 429.5,144.4668 " fill="none" id="Animal-backto-Mammalia" style="stroke:#181818;stroke-width:0.5;"/><polygon fill="none" points="429.5,77.6868,426.5,86.6868,432.5,86.6868,429.5,77.6868" style="stroke:#181818;stroke-width:0.5;"/></g><!--reverse link IWalking to Mammalia--><g id="link_IWalking_Mammalia"><path codeLine="38" d="M755.7974,82.7128 C749.0074,87.4178 748.49,86.8668 740.5,89.5068 C683.665,108.2968 524.175,75.0768 471.5,103.5068 C455.01,112.4068 443.295,130.9218 436.5,144.4968 " fill="none" id="IWalking-backto-Mammalia" style="stroke:#181818;stroke-width:0.5;stroke-dasharray:7.0,7.0;"/><polygon fill="none" points="763.195,77.5868,754.0888,80.247,757.5061,85.1787,763.195,77.5868" style="stroke:#181818;stroke-width:0.5;"/></g><!--reverse link Animal to Insect--><g id="link_Animal_Insect"><path codeLine="43" d="M463.1379,66.6146 C490.1479,71.6446 524.755,81.0568 555.5,103.5068 C568.54,113.0318 579.235,127.7968 586.565,139.9468 " fill="none" id="Animal-backto-Insect" style="stroke:#181818;stroke-width:0.5;"/><polygon fill="none" points="454.29,64.9668,462.5886,69.5638,463.6871,63.6653,454.29,64.9668" style="stroke:#181818;stroke-width:0.5;"/></g><!--reverse link IFlying to Insect--><g id="link_IFlying_Insect"><path codeLine="44" d="M837.3841,82.831 C831.4691,87.146 832.075,86.2068 825.5,89.5068 C760.07,122.3218 676.485,143.7568 630.88,153.9068 " fill="none" id="IFlying-backto-Insect" style="stroke:#181818;stroke-width:0.5;stroke-dasharray:7.0,7.0;"/><polygon fill="none" points="844.655,77.5268,835.616,80.4073,839.1521,85.2546,844.655,77.5268" style="stroke:#181818;stroke-width:0.5;"/></g><!--reverse link IWalking to Insect--><g id="link_IWalking_Insect"><path codeLine="45" d="M752.0005,82.595 C745.9055,86.63 746.79,85.8668 740.5,89.5068 C703.885,110.6868 660.15,131.9168 630.77,145.6218 " fill="none" id="IWalking-backto-Insect" style="stroke:#181818;stroke-width:0.5;stroke-dasharray:7.0,7.0;"/><polygon fill="none" points="759.505,77.6268,750.3444,80.0935,753.6565,85.0965,759.505,77.6268" style="stroke:#181818;stroke-width:0.5;"/></g><!--link Animal to Aviary--><g id="link_Animal_Aviary"><path codeLine="53" d="M401.6894,67.4833 C374.5544,74.0583 333.215,85.7318 298,103.5068 C285.625,109.7518 277.961,114.3445 266.596,122.4445 " fill="none" id="Animal-Aviary" style="stroke:#181818;stroke-width:0.5;"/><polygon fill="#181818" points="404.605,66.7768,399.7606,65.8928,402.1753,67.3656,400.7025,69.7803,404.605,66.7768" style="stroke:#181818;stroke-width:0.5;"/><polygon fill="none" points="261.71,125.9268,265.3138,125.8143,266.596,122.4445,262.9922,122.557,261.71,125.9268" style="stroke:#181818;stroke-width:0.5;"/></g><!--reverse link Aviary to AquaAviary--><g id="link_Aviary_AquaAviary"><path codeLine="63" d="M167.8805,202.237 C143.7155,221.557 121.84,239.0468 102.87,254.2168 " fill="none" id="Aviary-backto-AquaAviary" style="stroke:#181818;stroke-width:0.5;"/><polygon fill="none" points="174.91,196.6168,166.0071,199.8938,169.7539,204.5801,174.91,196.6168" style="stroke:#181818;stroke-width:0.5;"/></g><!--reverse link Animal to AquaAviary--><g id="link_Animal_AquaAviary"><path codeLine="64" d="M401.6851,61.3143 C336.7651,61.9093 167.085,66.9518 126,103.5068 C81.905,142.7418 79.915,220.4868 81.34,254.2368 " fill="none" id="Animal-backto-AquaAviary" style="stroke:#181818;stroke-width:0.5;"/><polygon fill="#181818" points="404.685,61.2868,400.1669,59.3282,402.1851,61.3097,400.2035,63.328,404.685,61.2868" style="stroke:#181818;stroke-width:0.5;"/></g><!--reverse link Aviary to LandAviary--><g id="link_Aviary_LandAviary"><path codeLine="70" d="M218.5,205.6168 C218.5,224.9368 218.5,239.0468 218.5,254.2168 " fill="none" id="Aviary-backto-LandAviary" style="stroke:#181818;stroke-width:0.5;"/><polygon fill="none" points="218.5,196.6168,215.5,205.6168,221.5,205.6168,218.5,196.6168" style="stroke:#181818;stroke-width:0.5;"/></g><!--reverse link Animal to LandAviary--><g id="link_Animal_LandAviary"><path codeLine="71" d="M401.59,61.0946 C339.455,61.2546 183.24,65.4368 150.5,103.5068 C117.39,142.0068 128.16,172.1568 150.5,217.7568 C158.06,233.1868 172.55,245.3968 186.215,254.1718 " fill="none" id="Animal-backto-LandAviary" style="stroke:#181818;stroke-width:0.5;"/><polygon fill="#181818" points="404.59,61.0868,400.0849,59.0984,402.09,61.0933,400.0952,63.0984,404.59,61.0868" style="stroke:#181818;stroke-width:0.5;"/></g><!--reverse link ILogger to LogToConsole--><g id="link_ILogger_LogToConsole"><path codeLine="86" d="M1981,95.8818 C1981,109.2368 1981,116.6618 1981,130.6268 " fill="none" id="ILogger-backto-LogToConsole" style="stroke:#181818;stroke-width:0.5;stroke-dasharray:7.0,7.0;"/><polygon fill="none" points="1981,86.8818,1978,95.8818,1984,95.8818,1981,86.8818" style="stroke:#181818;stroke-width:0.5;"/></g><!--reverse link ILogger to LogToFile--><g id="link_ILogger_LogToFile"><path codeLine="94" d="M2046.8465,87.4068 C2059.5115,93.2118 2064.41,96.1668 2076,103.5068 C2082.24,107.4618 2088.505,111.9718 2094.56,116.6868 " fill="none" id="ILogger-backto-LogToFile" style="stroke:#181818;stroke-width:0.5;stroke-dasharray:7.0,7.0;"/><polygon fill="none" points="2038.665,83.6568,2045.5965,90.134,2048.0965,84.6797,2038.665,83.6568" style="stroke:#181818;stroke-width:0.5;"/></g><!--link ILogger to ICreator--><g id="link_ILogger_ICreator"><path codeLine="108" d="M1920.4693,66.9497 C1848.9143,73.9697 1726.095,87.0118 1619,103.5068 C1521.865,118.4718 1413.9379,140.7096 1359.1379,152.4046 " fill="none" id="ILogger-ICreator" style="stroke:#181818;stroke-width:0.5;"/><polygon fill="#181818" points="1923.455,66.6568,1918.7812,65.1058,1920.9669,66.9009,1919.1718,69.0866,1923.455,66.6568" style="stroke:#181818;stroke-width:0.5;"/><polygon fill="#181818" points="1353.27,153.6568,1356.6214,154.9867,1359.1379,152.4046,1355.7865,151.0747,1353.27,153.6568" style="stroke:#181818;stroke-width:0.5;"/></g><!--reverse link ICreator to AnimalCreator--><g id="link_ICreator_AnimalCreator"><path codeLine="114" d="M1320.5,194.7568 C1320.5,213.8968 1320.5,231.4318 1320.5,249.6818 " fill="none" id="ICreator-backto-AnimalCreator" style="stroke:#181818;stroke-width:0.5;stroke-dasharray:7.0,7.0;"/><polygon fill="none" points="1320.5,185.7568,1317.5,194.7568,1323.5,194.7568,1320.5,185.7568" style="stroke:#181818;stroke-width:0.5;"/></g><!--link Animal to AnimalCreator--><g id="link_Animal_AnimalCreator"><path codeLine="115" d="M457.2811,65.6232 C496.8361,72.0532 573.475,85.5418 639.5,103.5068 C789.465,144.3168 817.145,189.6618 970,217.7568 C1003.785,223.9668 1090.465,217.8668 1124.5,222.5068 C1182.555,230.4168 1242.6616,246.7626 1281.3466,258.3326 " fill="none" id="Animal-AnimalCreator" style="stroke:#181818;stroke-width:0.5;"/><polygon fill="#181818" points="454.32,65.1418,458.4408,67.838,456.7876,65.543,459.0826,63.8898,454.32,65.1418" style="stroke:#181818;stroke-width:0.5;"/><polygon fill="none" points="1287.095,260.0518,1284.7939,257.2761,1281.3466,258.3326,1283.6477,261.1083,1287.095,260.0518" style="stroke:#181818;stroke-width:0.5;"/></g><!--reverse link AnimalCreator to BirdCreator--><g id="link_AnimalCreator_BirdCreator"><path codeLine="122" d="M1353.2162,297.9884 C1369.3612,311.0534 1383.295,322.3318 1400.44,336.2118 " fill="none" id="AnimalCreator-backto-BirdCreator" style="stroke:#181818;stroke-width:0.5;"/><polygon fill="none" points="1346.22,292.3268,1351.329,300.3204,1355.1034,295.6563,1346.22,292.3268" style="stroke:#181818;stroke-width:0.5;"/></g><!--reverse link AnimalCreator to FishCreator--><g id="link_AnimalCreator_FishCreator"><path codeLine="130" d="M1362.2957,287.0402 C1395.8957,299.6552 1440.67,316.9018 1486,336.2568 C1488.905,337.4968 1491.88,338.7968 1494.88,340.1218 " fill="none" id="AnimalCreator-backto-FishCreator" style="stroke:#181818;stroke-width:0.5;"/><polygon fill="none" points="1353.87,283.8768,1361.2413,289.8488,1363.3502,284.2317,1353.87,283.8768" style="stroke:#181818;stroke-width:0.5;"/></g><!--reverse link AnimalCreator to MammaliaCreator--><g id="link_AnimalCreator_MammaliaCreator"><path codeLine="138" d="M1285.3752,297.707 C1267.8552,310.772 1252.355,322.3318 1233.75,336.2118 " fill="none" id="AnimalCreator-backto-MammaliaCreator" style="stroke:#181818;stroke-width:0.5;"/><polygon fill="none" points="1292.59,292.3268,1283.5818,295.3021,1287.1686,300.112,1292.59,292.3268" style="stroke:#181818;stroke-width:0.5;"/></g><!--reverse link AnimalCreator to InsectCreator--><g id="link_AnimalCreator_InsectCreator"><path codeLine="146" d="M1320.5,301.4368 C1320.5,314.4568 1320.5,322.2868 1320.5,336.1068 " fill="none" id="AnimalCreator-backto-InsectCreator" style="stroke:#181818;stroke-width:0.5;"/><polygon fill="none" points="1320.5,292.4368,1317.5,301.4368,1323.5,301.4368,1320.5,292.4368" style="stroke:#181818;stroke-width:0.5;"/></g><!--reverse link ICreator to AviaryCreator--><g id="link_ICreator_AviaryCreator"><path codeLine="156" d="M1279.0814,173.964 C1241.9764,185.124 1188.545,202.0368 1136.5,222.5068 C1111.885,232.1918 1084.755,244.7068 1064.31,254.5318 " fill="none" id="ICreator-backto-AviaryCreator" style="stroke:#181818;stroke-width:0.5;stroke-dasharray:7.0,7.0;"/><polygon fill="none" points="1287.7,171.3718,1278.2173,171.0912,1279.9455,176.8369,1287.7,171.3718" style="stroke:#181818;stroke-width:0.5;"/></g><!--link Aviary to AviaryCreator--><g id="link_Aviary_AviaryCreator"><path codeLine="157" d="M261.47,198.3181 C273.315,206.6881 284.325,212.8768 298,217.7568 C430.06,264.8768 869.275,269.9479 993.545,270.4429 " fill="none" id="Aviary-AviaryCreator" style="stroke:#181818;stroke-width:0.5;"/><polygon fill="#181818" points="259.02,196.5868,261.5409,200.8171,261.0617,198.0296,263.8492,197.5504,259.02,196.5868" style="stroke:#181818;stroke-width:0.5;"/><polygon fill="none" points="999.545,270.4668,996.553,268.4549,993.545,270.4429,996.5371,272.4549,999.545,270.4668" style="stroke:#181818;stroke-width:0.5;"/></g><!--reverse link AviaryCreator to LandAviaryCreator--><g id="link_AviaryCreator_LandAviaryCreator"><path codeLine="166" d="M1014.499,305.1098 C1006.414,320.6398 1000.495,332.0018 993.485,345.4618 " fill="none" id="AviaryCreator-backto-LandAviaryCreator" style="stroke:#181818;stroke-width:0.5;"/><polygon fill="none" points="1018.655,297.1268,1011.838,303.7245,1017.16,306.4951,1018.655,297.1268" style="stroke:#181818;stroke-width:0.5;"/></g><!--reverse link AviaryCreator to AquaAviaryCreator--><g id="link_AviaryCreator_AquaAviaryCreator"><path codeLine="173" d="M1049.3215,305.1277 C1057.3215,320.6577 1063.17,332.0018 1070.105,345.4618 " fill="none" id="AviaryCreator-backto-AquaAviaryCreator" style="stroke:#181818;stroke-width:0.5;"/><polygon fill="none" points="1045.2,297.1268,1046.6545,306.5015,1051.9884,303.7538,1045.2,297.1268" style="stroke:#181818;stroke-width:0.5;"/></g><!--link Aviary to Zoo--><g id="link_Aviary_Zoo"><path codeLine="197" d="M260.4317,198.3649 C272.4717,206.9599 283.845,213.2418 298,217.7568 C315.165,223.2268 1577.2,219.7318 1595,222.5068 C1613.8,225.4418 1627.7023,228.5689 1646.4123,234.0539 " fill="none" id="Aviary-Zoo" style="stroke:#181818;stroke-width:0.5;"/><polygon fill="#181818" points="257.99,196.6218,260.4905,200.8642,260.0247,198.0744,262.8145,197.6086,257.99,196.6218" style="stroke:#181818;stroke-width:0.5;"/><polygon fill="none" points="1652.17,235.7418,1649.8538,232.9786,1646.4123,234.0539,1648.7285,236.8171,1652.17,235.7418" style="stroke:#181818;stroke-width:0.5;"/></g><!--link Animal to Zoo--><g id="link_Animal_Zoo"><path codeLine="198" d="M457.2875,65.8199 C498.1525,72.3449 579.27,84.4218 651,89.5068 C677.49,91.3818 1583.905,90.3968 1607,103.5068 C1658.89,132.9618 1637.39,173.5818 1677.5,217.7568 C1683.2,224.0368 1685.133,226.242 1691.863,231.872 " fill="none" id="Animal-Zoo" style="stroke:#181818;stroke-width:0.5;"/><polygon fill="#181818" points="454.325,65.3468,458.4534,68.0314,456.7937,65.741,459.0841,64.0814,454.325,65.3468" style="stroke:#181818;stroke-width:0.5;"/><polygon fill="none" points="1696.465,235.7218,1695.4473,232.2629,1691.863,231.872,1692.8807,235.3309,1696.465,235.7218" style="stroke:#181818;stroke-width:0.5;"/></g><!--reverse link AnimalType to Zoo--><g id="link_AnimalType_Zoo"><path codeLine="199" d="M1769.8605,199.4725 C1765.8405,211.9575 1762.235,223.1718 1758.215,235.6618 " fill="none" id="AnimalType-backto-Zoo" style="stroke:#181818;stroke-width:0.5;"/><polygon fill="#181818" points="1770.78,196.6168,1767.497,200.2873,1770.0138,198.9965,1771.3045,201.5132,1770.78,196.6168" style="stroke:#181818;stroke-width:0.5;"/></g><!--reverse link AviaryType to Zoo--><g id="link_AviaryType_Zoo"><path codeLine="200" d="M1721.1694,190.2475 C1725.7994,204.6275 1730.72,219.9168 1735.76,235.5768 " fill="none" id="AviaryType-backto-Zoo" style="stroke:#181818;stroke-width:0.5;"/><polygon fill="#181818" points="1720.25,187.3918,1719.7254,192.2882,1721.0162,189.7715,1723.5329,191.0623,1720.25,187.3918" style="stroke:#181818;stroke-width:0.5;"/></g><!--SRC=[nLTTQzim57tthz1Rt3LktuCfP661G0U3PXGszg3QRcfgMvdjj6Hf_llqOKbN7qwSfcnv2BQET7NElP9yD7fgstKpkRvU5xXgDsLnbP3oEYbmqqHfZbSrBeDWZPDdlCfGITAiQD0kGFGd6_EgpUf7d6GIO3_LY1RpOfjNAu2ntoNQuOUchN7Ixf7e4LwW2Q9Dz55rtQidN-IxrxmiZyIMVKwFVe-BvoF1koxziSM_aIvSvIKkOAvaFCIpZgQyWpCjdIWT9A4R7xz54VgSrwa2P2NYjwih2v5QNKXmOare1mbPxFfBAF2ZcUgLCC-R9qrKbPmpDJ31b3KvkJjn4S3fl-AIFkUu9rSEB5Z8PeV9-_Emg9eiQVt5j363eWKAWgBHeNTs6NqB_YN7TMwS3b9N514qPV2sTpDmrE5PuJBhuzYI5XSpigbQseFkPmkM-s_IiVZvApYmhi5cdwQf616A42e2IyO38OKrTD7CwomB7THNPw6IrtdwUuEjdEXq-T0Hs1Iqt9uUNIeLuAHpkBGZv6znbVQJzw0ZlLOfTqy7mLq3PtFV1tlzGIl8QfNLScc2m_-M0tekOoKigaSIbbdJi11o5RBfNaYU-eTygMjIdpZcRfFGZsfpU1JOS1rfiUlfyvBCIDMG8Wj08a4pI6M4lj78hJFL62Ma83LzxyRCsAk7zj2K3Cx3-UBdkQkSjHcorxXzSWyIm4CD2usk5u7HBqBtTTvcGuJzhqo1LP_K6Mw9MlOgTL7q2Irc0hGtHDUCudXvSuDsPeROw8cC0o0-I1o1Ir2mVYkafs5b5FiO4d8-7juUNaCb8m_pLOS_1K2N27xy8ww5TRRC9ZtY7Ylk_9UDQXlMfmDWeQ7fuf2eSvKmk-KeuHuixloPNmb0N1EYiN-eH5esHutoSZ7mUtvL5keei_0-TH-iJ7WzHrTd0MDb4VsQ3CnHPA0Vf6UOXxIE2cuEdAEYioRQPnuxAhoTJd6VIO_n77QOcDwdrsmPvTNUo2ani4sclVANkX_V7IZXUpXhB-fm1ZRLjBD-pltugPoDJ-GVGhe0MRKfktMwtAwXU_XUFLVajLBlnhtPlBQQLp3ZqaWdrTDmNaUcOOhL2oiP30DN_0z20lk3QRRncPWpLysQ06mUMIMaTT6GUU00I1I8la6tm6zdKxcTpNrogVUvh16udHsykWM-2u5n78sxuLpS12HWB6RTgZcTYuE8oR7GsFjZkDrb73c1UZ7YiLNs5m00]--></g></svg>