<?xml version="1.0" encoding="us-ascii" standalone="no"?><svg xmlns="http://www.w3.org/2000/svg" xmlns:xlink="http://www.w3.org/1999/xlink" contentStyleType="text/css" height="718px" preserveAspectRatio="none" style="width:3350px;height:718px;background:#FFFFFF;" version="1.1" viewBox="0 0 3350 718" width="3350px" zoomAndPan="magnify"><defs/><g><!--cluster interfaces--><g id="cluster_interfaces"><path d="M2841.5,15.0137 L2913.5,15.0137 A3.75,3.75 0 0 1 2916,17.5137 L2923,39.6348 L3340.5,39.6348 A2.5,2.5 0 0 1 3343,42.1348 L3343,132.5137 A2.5,2.5 0 0 1 3340.5,135.0137 L2841.5,135.0137 A2.5,2.5 0 0 1 2839,132.5137 L2839,17.5137 A2.5,2.5 0 0 1 2841.5,15.0137 " fill="none" style="stroke:#000000;stroke-width:1.5;"/><line style="stroke:#000000;stroke-width:1.5;" x1="2839" x2="2923" y1="39.6348" y2="39.6348"/><text fill="#000000" font-family="sans-serif" font-size="14" font-weight="bold" lengthAdjust="spacing" textLength="71" x="2843" y="32.1211">interfaces</text></g><!--cluster animals--><g id="cluster_animals"><path d="M2082.5,6.0137 L2136.5,6.0137 A3.75,3.75 0 0 1 2139,8.5137 L2146,30.6348 L2812.5,30.6348 A2.5,2.5 0 0 1 2815,33.1348 L2815,350.5137 A2.5,2.5 0 0 1 2812.5,353.0137 L2082.5,353.0137 A2.5,2.5 0 0 1 2080,350.5137 L2080,8.5137 A2.5,2.5 0 0 1 2082.5,6.0137 " fill="none" style="stroke:#000000;stroke-width:1.5;"/><line style="stroke:#000000;stroke-width:1.5;" x1="2080" x2="2146" y1="30.6348" y2="30.6348"/><text fill="#000000" font-family="sans-serif" font-size="14" font-weight="bold" lengthAdjust="spacing" textLength="53" x="2084" y="23.1211">animals</text></g><!--cluster aviaries--><g id="cluster_aviaries"><path d="M1516.5,159.0137 L1573.5,159.0137 A3.75,3.75 0 0 1 1576,161.5137 L1583,183.6348 L2053.5,183.6348 A2.5,2.5 0 0 1 2056,186.1348 L2056,558.0137 A2.5,2.5 0 0 1 2053.5,560.5137 L1516.5,560.5137 A2.5,2.5 0 0 1 1514,558.0137 L1514,161.5137 A2.5,2.5 0 0 1 1516.5,159.0137 " fill="none" style="stroke:#000000;stroke-width:1.5;"/><line style="stroke:#000000;stroke-width:1.5;" x1="1514" x2="1583" y1="183.6348" y2="183.6348"/><text fill="#000000" font-family="sans-serif" font-size="14" font-weight="bold" lengthAdjust="spacing" textLength="56" x="1518" y="176.1211">aviaries</text></g><!--cluster creators--><g id="cluster_creators"><path d="M8.5,377.0137 L68.5,377.0137 A3.75,3.75 0 0 1 71,379.5137 L78,401.6348 L1487.5,401.6348 A2.5,2.5 0 0 1 1490,404.1348 L1490,709.0137 A2.5,2.5 0 0 1 1487.5,711.5137 L8.5,711.5137 A2.5,2.5 0 0 1 6,709.0137 L6,379.5137 A2.5,2.5 0 0 1 8.5,377.0137 " fill="none" style="stroke:#000000;stroke-width:1.5;"/><line style="stroke:#000000;stroke-width:1.5;" x1="6" x2="78" y1="401.6348" y2="401.6348"/><text fill="#000000" font-family="sans-serif" font-size="14" font-weight="bold" lengthAdjust="spacing" textLength="59" x="10" y="394.1211">creators</text></g><!--cluster animals--><g id="cluster_animals"><path d="M507.5,422.0137 L561.5,422.0137 A3.75,3.75 0 0 1 564,424.5137 L571,446.6348 L1463.5,446.6348 A2.5,2.5 0 0 1 1466,449.1348 L1466,685.0137 A2.5,2.5 0 0 1 1463.5,687.5137 L507.5,687.5137 A2.5,2.5 0 0 1 505,685.0137 L505,424.5137 A2.5,2.5 0 0 1 507.5,422.0137 " fill="none" style="stroke:#000000;stroke-width:1.5;"/><line style="stroke:#000000;stroke-width:1.5;" x1="505" x2="571" y1="446.6348" y2="446.6348"/><text fill="#000000" font-family="sans-serif" font-size="14" font-weight="bold" lengthAdjust="spacing" textLength="53" x="509" y="439.1211">animals</text></g><!--cluster aviaries--><g id="cluster_aviaries"><path d="M32.5,422.0137 L89.5,422.0137 A3.75,3.75 0 0 1 92,424.5137 L99,446.6348 L478.5,446.6348 A2.5,2.5 0 0 1 481,449.1348 L481,685.0137 A2.5,2.5 0 0 1 478.5,687.5137 L32.5,687.5137 A2.5,2.5 0 0 1 30,685.0137 L30,424.5137 A2.5,2.5 0 0 1 32.5,422.0137 " fill="none" style="stroke:#000000;stroke-width:1.5;"/><line style="stroke:#000000;stroke-width:1.5;" x1="30" x2="99" y1="446.6348" y2="446.6348"/><text fill="#000000" font-family="sans-serif" font-size="14" font-weight="bold" lengthAdjust="spacing" textLength="56" x="34" y="439.1211">aviaries</text></g><!--class IFlying--><g id="elem_IFlying"><rect codeLine="4" fill="#F1F1F1" height="66.6211" id="IFlying" rx="2.5" ry="2.5" style="stroke:#181818;stroke-width:0.5;" width="121" x="2855.5" y="52.0137"/><ellipse cx="2891.65" cy="68.0137" fill="#B4A7E5" rx="11" ry="11" style="stroke:#181818;stroke-width:1.0;"/><path d="M2892.6031,64.6543 L2892.6031,71.3105 L2894.3219,71.3105 Q2894.9313,71.3105 2895.1969,71.5449 Q2895.4625,71.7793 2895.4625,72.1699 Q2895.4625,72.5449 2895.1969,72.7793 Q2894.9313,73.0137 2894.3219,73.0137 L2889.1813,73.0137 Q2888.5719,73.0137 2888.3063,72.7793 Q2888.0406,72.5449 2888.0406,72.1543 Q2888.0406,71.7793 2888.3063,71.5449 Q2888.5719,71.3105 2889.1813,71.3105 L2890.9,71.3105 L2890.9,64.6543 L2889.1813,64.6543 Q2888.5719,64.6543 2888.3063,64.4199 Q2888.0406,64.1855 2888.0406,63.7949 Q2888.0406,63.4199 2888.3063,63.1855 Q2888.5719,62.9512 2889.1813,62.9512 L2894.3219,62.9512 Q2894.9313,62.9512 2895.1969,63.1855 Q2895.4625,63.4199 2895.4625,63.7949 Q2895.4625,64.1855 2895.1969,64.4199 Q2894.9313,64.6543 2894.3219,64.6543 L2892.6031,64.6543 Z " fill="#000000"/><text fill="#000000" font-family="sans-serif" font-size="14" font-style="italic" lengthAdjust="spacing" textLength="42" x="2910.35" y="73.8105">IFlying</text><line style="stroke:#181818;stroke-width:0.5;" x1="2856.5" x2="2975.5" y1="84.0137" y2="84.0137"/><line style="stroke:#181818;stroke-width:0.5;" x1="2856.5" x2="2975.5" y1="92.0137" y2="92.0137"/><ellipse cx="2866.5" cy="106.8242" fill="#84BE84" rx="3" ry="3" style="stroke:#038048;stroke-width:1.0;"/><text fill="#000000" font-family="sans-serif" font-size="14" font-style="italic" lengthAdjust="spacing" textLength="95" x="2875.5" y="111.1211">Flying() : string</text></g><!--class ISwimming--><g id="elem_ISwimming"><rect codeLine="8" fill="#F1F1F1" height="66.6211" id="ISwimming" rx="2.5" ry="2.5" style="stroke:#181818;stroke-width:0.5;" width="145" x="3181.5" y="52.0137"/><ellipse cx="3217.65" cy="68.0137" fill="#B4A7E5" rx="11" ry="11" style="stroke:#181818;stroke-width:1.0;"/><path d="M3218.6031,64.6543 L3218.6031,71.3105 L3220.3219,71.3105 Q3220.9313,71.3105 3221.1969,71.5449 Q3221.4625,71.7793 3221.4625,72.1699 Q3221.4625,72.5449 3221.1969,72.7793 Q3220.9313,73.0137 3220.3219,73.0137 L3215.1813,73.0137 Q3214.5719,73.0137 3214.3063,72.7793 Q3214.0406,72.5449 3214.0406,72.1543 Q3214.0406,71.7793 3214.3063,71.5449 Q3214.5719,71.3105 3215.1813,71.3105 L3216.9,71.3105 L3216.9,64.6543 L3215.1813,64.6543 Q3214.5719,64.6543 3214.3063,64.4199 Q3214.0406,64.1855 3214.0406,63.7949 Q3214.0406,63.4199 3214.3063,63.1855 Q3214.5719,62.9512 3215.1813,62.9512 L3220.3219,62.9512 Q3220.9313,62.9512 3221.1969,63.1855 Q3221.4625,63.4199 3221.4625,63.7949 Q3221.4625,64.1855 3221.1969,64.4199 Q3220.9313,64.6543 3220.3219,64.6543 L3218.6031,64.6543 Z " fill="#000000"/><text fill="#000000" font-family="sans-serif" font-size="14" font-style="italic" lengthAdjust="spacing" textLength="66" x="3236.35" y="73.8105">ISwimming</text><line style="stroke:#181818;stroke-width:0.5;" x1="3182.5" x2="3325.5" y1="84.0137" y2="84.0137"/><line style="stroke:#181818;stroke-width:0.5;" x1="3182.5" x2="3325.5" y1="92.0137" y2="92.0137"/><ellipse cx="3192.5" cy="106.8242" fill="#84BE84" rx="3" ry="3" style="stroke:#038048;stroke-width:1.0;"/><text fill="#000000" font-family="sans-serif" font-size="14" font-style="italic" lengthAdjust="spacing" textLength="119" x="3201.5" y="111.1211">Swimming() : string</text></g><!--class IWalking--><g id="elem_IWalking"><rect codeLine="12" fill="#F1F1F1" height="66.6211" id="IWalking" rx="2.5" ry="2.5" style="stroke:#181818;stroke-width:0.5;" width="135" x="3011.5" y="52.0137"/><ellipse cx="3047.65" cy="68.0137" fill="#B4A7E5" rx="11" ry="11" style="stroke:#181818;stroke-width:1.0;"/><path d="M3048.6031,64.6543 L3048.6031,71.3105 L3050.3219,71.3105 Q3050.9313,71.3105 3051.1969,71.5449 Q3051.4625,71.7793 3051.4625,72.1699 Q3051.4625,72.5449 3051.1969,72.7793 Q3050.9313,73.0137 3050.3219,73.0137 L3045.1813,73.0137 Q3044.5719,73.0137 3044.3063,72.7793 Q3044.0406,72.5449 3044.0406,72.1543 Q3044.0406,71.7793 3044.3063,71.5449 Q3044.5719,71.3105 3045.1813,71.3105 L3046.9,71.3105 L3046.9,64.6543 L3045.1813,64.6543 Q3044.5719,64.6543 3044.3063,64.4199 Q3044.0406,64.1855 3044.0406,63.7949 Q3044.0406,63.4199 3044.3063,63.1855 Q3044.5719,62.9512 3045.1813,62.9512 L3050.3219,62.9512 Q3050.9313,62.9512 3051.1969,63.1855 Q3051.4625,63.4199 3051.4625,63.7949 Q3051.4625,64.1855 3051.1969,64.4199 Q3050.9313,64.6543 3050.3219,64.6543 L3048.6031,64.6543 Z " fill="#000000"/><text fill="#000000" font-family="sans-serif" font-size="14" font-style="italic" lengthAdjust="spacing" textLength="56" x="3066.35" y="73.8105">IWalking</text><line style="stroke:#181818;stroke-width:0.5;" x1="3012.5" x2="3145.5" y1="84.0137" y2="84.0137"/><line style="stroke:#181818;stroke-width:0.5;" x1="3012.5" x2="3145.5" y1="92.0137" y2="92.0137"/><ellipse cx="3022.5" cy="106.8242" fill="#84BE84" rx="3" ry="3" style="stroke:#038048;stroke-width:1.0;"/><text fill="#000000" font-family="sans-serif" font-size="14" font-style="italic" lengthAdjust="spacing" textLength="109" x="3031.5" y="111.1211">Walking() : string</text></g><!--class Animal--><g id="elem_Animal"><rect codeLine="18" fill="#F1F1F1" height="85.2422" id="Animal" rx="2.5" ry="2.5" style="stroke:#181818;stroke-width:0.5;" width="151" x="2096.5" y="43.0137"/><ellipse cx="2146.75" cy="59.0137" fill="#A9DCDF" rx="11" ry="11" style="stroke:#181818;stroke-width:1.0;"/><path d="M2148.9375,60.7793 L2144.7969,60.7793 L2144.375,61.8105 L2144.7969,61.8105 Q2145.4063,61.8105 2145.6719,62.0449 Q2145.9375,62.2793 2145.9375,62.6699 Q2145.9375,63.0449 2145.6719,63.2793 Q2145.4063,63.5137 2144.7969,63.5137 L2142.5,63.5137 Q2141.8906,63.5137 2141.6406,63.2793 Q2141.375,63.0449 2141.375,62.6543 Q2141.375,62.2793 2141.6563,62.0449 Q2141.9219,61.7949 2142.5469,61.8105 L2145.2188,55.1543 L2144.1094,55.1543 Q2143.5,55.1543 2143.2344,54.9199 Q2142.9688,54.6855 2142.9688,54.2949 Q2142.9688,53.9199 2143.2344,53.6855 Q2143.5,53.4512 2144.1094,53.4512 L2147.7813,53.4512 L2151.1719,61.8105 Q2151.7656,61.8105 2151.9531,61.9512 Q2152.3438,62.2168 2152.3438,62.6699 Q2152.3438,63.0449 2152.0781,63.2793 Q2151.8281,63.5137 2151.2188,63.5137 L2148.9219,63.5137 Q2148.3125,63.5137 2148.0469,63.2793 Q2147.7813,63.0449 2147.7813,62.6543 Q2147.7813,62.2793 2148.0469,62.0449 Q2148.3125,61.8105 2148.9219,61.8105 L2149.3438,61.8105 L2148.9375,60.7793 Z M2148.2188,59.0762 L2146.8594,55.7012 L2145.4844,59.0762 L2148.2188,59.0762 Z " fill="#000000"/><text fill="#000000" font-family="sans-serif" font-size="14" font-style="italic" lengthAdjust="spacing" textLength="42" x="2167.25" y="64.8105">Animal</text><line style="stroke:#181818;stroke-width:0.5;" x1="2097.5" x2="2246.5" y1="75.0137" y2="75.0137"/><ellipse cx="2107.5" cy="89.8242" fill="none" rx="3" ry="3" style="stroke:#038048;stroke-width:1.0;"/><text fill="#000000" font-family="sans-serif" font-size="14" lengthAdjust="spacing" textLength="73" x="2116.5" y="94.1211">kind : string</text><line style="stroke:#181818;stroke-width:0.5;" x1="2097.5" x2="2246.5" y1="101.6348" y2="101.6348"/><polygon fill="#FFFF44" points="2107.5,111.4453,2111.5,115.4453,2107.5,119.4453,2103.5,115.4453" style="stroke:#B38D22;stroke-width:1.0;"/><text fill="#000000" font-family="sans-serif" font-size="14" lengthAdjust="spacing" textLength="125" x="2116.5" y="120.7422">Animal(kind : string)</text></g><!--class Bird--><g id="elem_Bird"><rect codeLine="27" fill="#F1F1F1" height="122.4844" id="Bird" rx="2.5" ry="2.5" style="stroke:#181818;stroke-width:0.5;" width="134" x="2096" y="215.0137"/><ellipse cx="2146.25" cy="231.0137" fill="#ADD1B2" rx="11" ry="11" style="stroke:#181818;stroke-width:1.0;"/><path d="M2149.0156,226.8887 Q2149.1719,226.6699 2149.3594,226.5605 Q2149.5469,226.4512 2149.7656,226.4512 Q2150.1406,226.4512 2150.375,226.7168 Q2150.6094,226.9668 2150.6094,227.5762 L2150.6094,229.0293 Q2150.6094,229.6387 2150.375,229.9043 Q2150.1406,230.1699 2149.7656,230.1699 Q2149.4219,230.1699 2149.2188,229.9668 Q2149.0156,229.7793 2148.9063,229.2637 Q2148.8594,228.9043 2148.6719,228.7168 Q2148.3438,228.3418 2147.7344,228.123 Q2147.125,227.9043 2146.5,227.9043 Q2145.7344,227.9043 2145.0938,228.2324 Q2144.4688,228.5605 2143.9688,229.3105 Q2143.4844,230.0605 2143.4844,231.0918 L2143.4844,232.1855 Q2143.4844,233.4199 2144.375,234.248 Q2145.2656,235.0605 2146.8594,235.0605 Q2147.7969,235.0605 2148.4531,234.8105 Q2148.8438,234.6543 2149.2656,234.2168 Q2149.5313,233.9512 2149.6719,233.873 Q2149.8281,233.7949 2150.0313,233.7949 Q2150.3594,233.7949 2150.6094,234.0605 Q2150.875,234.3105 2150.875,234.6543 Q2150.875,234.998 2150.5313,235.4043 Q2150.0313,235.9824 2149.2344,236.3105 Q2148.1563,236.7637 2146.8594,236.7637 Q2145.3438,236.7637 2144.1406,236.1387 Q2143.1563,235.6387 2142.4688,234.5762 Q2141.7813,233.498 2141.7813,232.2168 L2141.7813,231.0605 Q2141.7813,229.7324 2142.3906,228.5918 Q2143.0156,227.4355 2144.1094,226.8262 Q2145.2031,226.2012 2146.4375,226.2012 Q2147.1719,226.2012 2147.8125,226.373 Q2148.4688,226.5293 2149.0156,226.8887 Z " fill="#000000"/><text fill="#000000" font-family="sans-serif" font-size="14" lengthAdjust="spacing" textLength="25" x="2166.75" y="236.8105">Bird</text><line style="stroke:#181818;stroke-width:0.5;" x1="2097" x2="2229" y1="247.0137" y2="247.0137"/><line style="stroke:#181818;stroke-width:0.5;" x1="2097" x2="2229" y1="255.0137" y2="255.0137"/><ellipse cx="2107" cy="269.8242" fill="#84BE84" rx="3" ry="3" style="stroke:#038048;stroke-width:1.0;"/><text fill="#000000" font-family="sans-serif" font-size="14" lengthAdjust="spacing" textLength="108" x="2116" y="274.1211">Bird(kind : string)</text><text fill="#000000" font-family="sans-serif" font-size="14" lengthAdjust="spacing" textLength="4" x="2116" y="292.7422">&#160;</text><ellipse cx="2107" cy="307.0664" fill="#84BE84" rx="3" ry="3" style="stroke:#038048;stroke-width:1.0;"/><text fill="#000000" font-family="sans-serif" font-size="14" lengthAdjust="spacing" textLength="95" x="2116" y="311.3633">Flying() : string</text><ellipse cx="2107" cy="325.6875" fill="#84BE84" rx="3" ry="3" style="stroke:#038048;stroke-width:1.0;"/><text fill="#000000" font-family="sans-serif" font-size="14" lengthAdjust="spacing" textLength="107" x="2116" y="329.9844">Walking() : string</text></g><!--class Fish--><g id="elem_Fish"><rect codeLine="36" fill="#F1F1F1" height="103.8633" id="Fish" rx="2.5" ry="2.5" style="stroke:#181818;stroke-width:0.5;" width="145" x="2653.5" y="224.0137"/><ellipse cx="2708.25" cy="240.0137" fill="#ADD1B2" rx="11" ry="11" style="stroke:#181818;stroke-width:1.0;"/><path d="M2711.0156,235.8887 Q2711.1719,235.6699 2711.3594,235.5605 Q2711.5469,235.4512 2711.7656,235.4512 Q2712.1406,235.4512 2712.375,235.7168 Q2712.6094,235.9668 2712.6094,236.5762 L2712.6094,238.0293 Q2712.6094,238.6387 2712.375,238.9043 Q2712.1406,239.1699 2711.7656,239.1699 Q2711.4219,239.1699 2711.2188,238.9668 Q2711.0156,238.7793 2710.9063,238.2637 Q2710.8594,237.9043 2710.6719,237.7168 Q2710.3438,237.3418 2709.7344,237.123 Q2709.125,236.9043 2708.5,236.9043 Q2707.7344,236.9043 2707.0938,237.2324 Q2706.4688,237.5605 2705.9688,238.3105 Q2705.4844,239.0605 2705.4844,240.0918 L2705.4844,241.1855 Q2705.4844,242.4199 2706.375,243.248 Q2707.2656,244.0605 2708.8594,244.0605 Q2709.7969,244.0605 2710.4531,243.8105 Q2710.8438,243.6543 2711.2656,243.2168 Q2711.5313,242.9512 2711.6719,242.873 Q2711.8281,242.7949 2712.0313,242.7949 Q2712.3594,242.7949 2712.6094,243.0605 Q2712.875,243.3105 2712.875,243.6543 Q2712.875,243.998 2712.5313,244.4043 Q2712.0313,244.9824 2711.2344,245.3105 Q2710.1563,245.7637 2708.8594,245.7637 Q2707.3438,245.7637 2706.1406,245.1387 Q2705.1563,244.6387 2704.4688,243.5762 Q2703.7813,242.498 2703.7813,241.2168 L2703.7813,240.0605 Q2703.7813,238.7324 2704.3906,237.5918 Q2705.0156,236.4355 2706.1094,235.8262 Q2707.2031,235.2012 2708.4375,235.2012 Q2709.1719,235.2012 2709.8125,235.373 Q2710.4688,235.5293 2711.0156,235.8887 Z " fill="#000000"/><text fill="#000000" font-family="sans-serif" font-size="14" lengthAdjust="spacing" textLength="27" x="2728.75" y="245.8105">Fish</text><line style="stroke:#181818;stroke-width:0.5;" x1="2654.5" x2="2797.5" y1="256.0137" y2="256.0137"/><line style="stroke:#181818;stroke-width:0.5;" x1="2654.5" x2="2797.5" y1="264.0137" y2="264.0137"/><ellipse cx="2664.5" cy="278.8242" fill="#84BE84" rx="3" ry="3" style="stroke:#038048;stroke-width:1.0;"/><text fill="#000000" font-family="sans-serif" font-size="14" lengthAdjust="spacing" textLength="110" x="2673.5" y="283.1211">Fish(kind : string)</text><text fill="#000000" font-family="sans-serif" font-size="14" lengthAdjust="spacing" textLength="4" x="2673.5" y="301.7422">&#160;</text><ellipse cx="2664.5" cy="316.0664" fill="#84BE84" rx="3" ry="3" style="stroke:#038048;stroke-width:1.0;"/><text fill="#000000" font-family="sans-serif" font-size="14" lengthAdjust="spacing" textLength="119" x="2673.5" y="320.3633">Swimming() : string</text></g><!--class Mammalia--><g id="elem_Mammalia"><rect codeLine="44" fill="#F1F1F1" height="103.8633" id="Mammalia" rx="2.5" ry="2.5" style="stroke:#181818;stroke-width:0.5;" width="172" x="2265" y="224.0137"/><ellipse cx="2315.25" cy="240.0137" fill="#ADD1B2" rx="11" ry="11" style="stroke:#181818;stroke-width:1.0;"/><path d="M2318.0156,235.8887 Q2318.1719,235.6699 2318.3594,235.5605 Q2318.5469,235.4512 2318.7656,235.4512 Q2319.1406,235.4512 2319.375,235.7168 Q2319.6094,235.9668 2319.6094,236.5762 L2319.6094,238.0293 Q2319.6094,238.6387 2319.375,238.9043 Q2319.1406,239.1699 2318.7656,239.1699 Q2318.4219,239.1699 2318.2188,238.9668 Q2318.0156,238.7793 2317.9063,238.2637 Q2317.8594,237.9043 2317.6719,237.7168 Q2317.3438,237.3418 2316.7344,237.123 Q2316.125,236.9043 2315.5,236.9043 Q2314.7344,236.9043 2314.0938,237.2324 Q2313.4688,237.5605 2312.9688,238.3105 Q2312.4844,239.0605 2312.4844,240.0918 L2312.4844,241.1855 Q2312.4844,242.4199 2313.375,243.248 Q2314.2656,244.0605 2315.8594,244.0605 Q2316.7969,244.0605 2317.4531,243.8105 Q2317.8438,243.6543 2318.2656,243.2168 Q2318.5313,242.9512 2318.6719,242.873 Q2318.8281,242.7949 2319.0313,242.7949 Q2319.3594,242.7949 2319.6094,243.0605 Q2319.875,243.3105 2319.875,243.6543 Q2319.875,243.998 2319.5313,244.4043 Q2319.0313,244.9824 2318.2344,245.3105 Q2317.1563,245.7637 2315.8594,245.7637 Q2314.3438,245.7637 2313.1406,245.1387 Q2312.1563,244.6387 2311.4688,243.5762 Q2310.7813,242.498 2310.7813,241.2168 L2310.7813,240.0605 Q2310.7813,238.7324 2311.3906,237.5918 Q2312.0156,236.4355 2313.1094,235.8262 Q2314.2031,235.2012 2315.4375,235.2012 Q2316.1719,235.2012 2316.8125,235.373 Q2317.4688,235.5293 2318.0156,235.8887 Z " fill="#000000"/><text fill="#000000" font-family="sans-serif" font-size="14" lengthAdjust="spacing" textLength="63" x="2335.75" y="245.8105">Mammalia</text><line style="stroke:#181818;stroke-width:0.5;" x1="2266" x2="2436" y1="256.0137" y2="256.0137"/><line style="stroke:#181818;stroke-width:0.5;" x1="2266" x2="2436" y1="264.0137" y2="264.0137"/><ellipse cx="2276" cy="278.8242" fill="#84BE84" rx="3" ry="3" style="stroke:#038048;stroke-width:1.0;"/><text fill="#000000" font-family="sans-serif" font-size="14" lengthAdjust="spacing" textLength="146" x="2285" y="283.1211">Mammalia(kind : string)</text><text fill="#000000" font-family="sans-serif" font-size="14" lengthAdjust="spacing" textLength="4" x="2285" y="301.7422">&#160;</text><ellipse cx="2276" cy="316.0664" fill="#84BE84" rx="3" ry="3" style="stroke:#038048;stroke-width:1.0;"/><text fill="#000000" font-family="sans-serif" font-size="14" lengthAdjust="spacing" textLength="107" x="2285" y="320.3633">Walking() : string</text></g><!--class Insect--><g id="elem_Insect"><rect codeLine="53" fill="#F1F1F1" height="122.4844" id="Insect" rx="2.5" ry="2.5" style="stroke:#181818;stroke-width:0.5;" width="146" x="2472" y="215.0137"/><ellipse cx="2522.25" cy="231.0137" fill="#ADD1B2" rx="11" ry="11" style="stroke:#181818;stroke-width:1.0;"/><path d="M2525.0156,226.8887 Q2525.1719,226.6699 2525.3594,226.5605 Q2525.5469,226.4512 2525.7656,226.4512 Q2526.1406,226.4512 2526.375,226.7168 Q2526.6094,226.9668 2526.6094,227.5762 L2526.6094,229.0293 Q2526.6094,229.6387 2526.375,229.9043 Q2526.1406,230.1699 2525.7656,230.1699 Q2525.4219,230.1699 2525.2188,229.9668 Q2525.0156,229.7793 2524.9063,229.2637 Q2524.8594,228.9043 2524.6719,228.7168 Q2524.3438,228.3418 2523.7344,228.123 Q2523.125,227.9043 2522.5,227.9043 Q2521.7344,227.9043 2521.0938,228.2324 Q2520.4688,228.5605 2519.9688,229.3105 Q2519.4844,230.0605 2519.4844,231.0918 L2519.4844,232.1855 Q2519.4844,233.4199 2520.375,234.248 Q2521.2656,235.0605 2522.8594,235.0605 Q2523.7969,235.0605 2524.4531,234.8105 Q2524.8438,234.6543 2525.2656,234.2168 Q2525.5313,233.9512 2525.6719,233.873 Q2525.8281,233.7949 2526.0313,233.7949 Q2526.3594,233.7949 2526.6094,234.0605 Q2526.875,234.3105 2526.875,234.6543 Q2526.875,234.998 2526.5313,235.4043 Q2526.0313,235.9824 2525.2344,236.3105 Q2524.1563,236.7637 2522.8594,236.7637 Q2521.3438,236.7637 2520.1406,236.1387 Q2519.1563,235.6387 2518.4688,234.5762 Q2517.7813,233.498 2517.7813,232.2168 L2517.7813,231.0605 Q2517.7813,229.7324 2518.3906,228.5918 Q2519.0156,227.4355 2520.1094,226.8262 Q2521.2031,226.2012 2522.4375,226.2012 Q2523.1719,226.2012 2523.8125,226.373 Q2524.4688,226.5293 2525.0156,226.8887 Z " fill="#000000"/><text fill="#000000" font-family="sans-serif" font-size="14" lengthAdjust="spacing" textLength="37" x="2542.75" y="236.8105">Insect</text><line style="stroke:#181818;stroke-width:0.5;" x1="2473" x2="2617" y1="247.0137" y2="247.0137"/><line style="stroke:#181818;stroke-width:0.5;" x1="2473" x2="2617" y1="255.0137" y2="255.0137"/><ellipse cx="2483" cy="269.8242" fill="#84BE84" rx="3" ry="3" style="stroke:#038048;stroke-width:1.0;"/><text fill="#000000" font-family="sans-serif" font-size="14" lengthAdjust="spacing" textLength="120" x="2492" y="274.1211">Insect(kind : string)</text><text fill="#000000" font-family="sans-serif" font-size="14" lengthAdjust="spacing" textLength="4" x="2492" y="292.7422">&#160;</text><ellipse cx="2483" cy="307.0664" fill="#84BE84" rx="3" ry="3" style="stroke:#038048;stroke-width:1.0;"/><text fill="#000000" font-family="sans-serif" font-size="14" lengthAdjust="spacing" textLength="95" x="2492" y="311.3633">Flying() : string</text><ellipse cx="2483" cy="325.6875" fill="#84BE84" rx="3" ry="3" style="stroke:#038048;stroke-width:1.0;"/><text fill="#000000" font-family="sans-serif" font-size="14" lengthAdjust="spacing" textLength="107" x="2492" y="329.9844">Walking() : string</text></g><!--class Aviary--><g id="elem_Aviary"><rect codeLine="63" fill="#F1F1F1" height="159.7266" id="Aviary" rx="2.5" ry="2.5" style="stroke:#181818;stroke-width:0.5;" width="237" x="1537.5" y="196.0137"/><ellipse cx="1632.75" cy="212.0137" fill="#A9DCDF" rx="11" ry="11" style="stroke:#181818;stroke-width:1.0;"/><path d="M1634.9375,213.7793 L1630.7969,213.7793 L1630.375,214.8105 L1630.7969,214.8105 Q1631.4063,214.8105 1631.6719,215.0449 Q1631.9375,215.2793 1631.9375,215.6699 Q1631.9375,216.0449 1631.6719,216.2793 Q1631.4063,216.5137 1630.7969,216.5137 L1628.5,216.5137 Q1627.8906,216.5137 1627.6406,216.2793 Q1627.375,216.0449 1627.375,215.6543 Q1627.375,215.2793 1627.6563,215.0449 Q1627.9219,214.7949 1628.5469,214.8105 L1631.2188,208.1543 L1630.1094,208.1543 Q1629.5,208.1543 1629.2344,207.9199 Q1628.9688,207.6855 1628.9688,207.2949 Q1628.9688,206.9199 1629.2344,206.6855 Q1629.5,206.4512 1630.1094,206.4512 L1633.7813,206.4512 L1637.1719,214.8105 Q1637.7656,214.8105 1637.9531,214.9512 Q1638.3438,215.2168 1638.3438,215.6699 Q1638.3438,216.0449 1638.0781,216.2793 Q1637.8281,216.5137 1637.2188,216.5137 L1634.9219,216.5137 Q1634.3125,216.5137 1634.0469,216.2793 Q1633.7813,216.0449 1633.7813,215.6543 Q1633.7813,215.2793 1634.0469,215.0449 Q1634.3125,214.8105 1634.9219,214.8105 L1635.3438,214.8105 L1634.9375,213.7793 Z M1634.2188,212.0762 L1632.8594,208.7012 L1631.4844,212.0762 L1634.2188,212.0762 Z " fill="#000000"/><text fill="#000000" font-family="sans-serif" font-size="14" font-style="italic" lengthAdjust="spacing" textLength="38" x="1653.25" y="217.8105">Aviary</text><line style="stroke:#181818;stroke-width:0.5;" x1="1538.5" x2="1773.5" y1="228.0137" y2="228.0137"/><ellipse cx="1548.5" cy="242.8242" fill="none" rx="3" ry="3" style="stroke:#038048;stroke-width:1.0;"/><text fill="#000000" font-family="sans-serif" font-size="14" lengthAdjust="spacing" textLength="92" x="1557.5" y="247.1211">totalCount : int</text><ellipse cx="1548.5" cy="261.4453" fill="none" rx="3" ry="3" style="stroke:#038048;stroke-width:1.0;"/><text fill="#000000" font-family="sans-serif" font-size="14" lengthAdjust="spacing" textLength="110" x="1557.5" y="265.7422">animals : Animal[]</text><line style="stroke:#181818;stroke-width:0.5;" x1="1538.5" x2="1773.5" y1="273.2559" y2="273.2559"/><polygon fill="#FFFF44" points="1548.5,283.0664,1552.5,287.0664,1548.5,291.0664,1544.5,287.0664" style="stroke:#B38D22;stroke-width:1.0;"/><text fill="#000000" font-family="sans-serif" font-size="14" lengthAdjust="spacing" textLength="111" x="1557.5" y="292.3633">Aviary(count : int)</text><text fill="#000000" font-family="sans-serif" font-size="14" lengthAdjust="spacing" textLength="4" x="1557.5" y="310.9844">&#160;</text><ellipse cx="1548.5" cy="325.3086" fill="#84BE84" rx="3" ry="3" style="stroke:#038048;stroke-width:1.0;"/><text fill="#000000" font-family="sans-serif" font-size="14" font-style="italic" lengthAdjust="spacing" textLength="211" x="1557.5" y="329.6055">AddAnimal(animal : Animal) : bool</text><polygon fill="#FFFF44" points="1548.5,338.9297,1552.5,342.9297,1548.5,346.9297,1544.5,342.9297" style="stroke:#B38D22;stroke-width:1.0;"/><text fill="#000000" font-family="sans-serif" font-size="14" lengthAdjust="spacing" textLength="89" x="1557.5" y="348.2266">IsFree() : bool</text></g><!--class AquaAviary--><g id="elem_AquaAviary"><rect codeLine="76" fill="#F1F1F1" height="103.8633" id="AquaAviary" rx="2.5" ry="2.5" style="stroke:#181818;stroke-width:0.5;" width="237" x="1802.5" y="440.5137"/><ellipse cx="1880.75" cy="456.5137" fill="#ADD1B2" rx="11" ry="11" style="stroke:#181818;stroke-width:1.0;"/><path d="M1883.5156,452.3887 Q1883.6719,452.1699 1883.8594,452.0605 Q1884.0469,451.9512 1884.2656,451.9512 Q1884.6406,451.9512 1884.875,452.2168 Q1885.1094,452.4668 1885.1094,453.0762 L1885.1094,454.5293 Q1885.1094,455.1387 1884.875,455.4043 Q1884.6406,455.6699 1884.2656,455.6699 Q1883.9219,455.6699 1883.7188,455.4668 Q1883.5156,455.2793 1883.4063,454.7637 Q1883.3594,454.4043 1883.1719,454.2168 Q1882.8438,453.8418 1882.2344,453.623 Q1881.625,453.4043 1881,453.4043 Q1880.2344,453.4043 1879.5938,453.7324 Q1878.9688,454.0605 1878.4688,454.8105 Q1877.9844,455.5605 1877.9844,456.5918 L1877.9844,457.6855 Q1877.9844,458.9199 1878.875,459.748 Q1879.7656,460.5605 1881.3594,460.5605 Q1882.2969,460.5605 1882.9531,460.3105 Q1883.3438,460.1543 1883.7656,459.7168 Q1884.0313,459.4512 1884.1719,459.373 Q1884.3281,459.2949 1884.5313,459.2949 Q1884.8594,459.2949 1885.1094,459.5605 Q1885.375,459.8105 1885.375,460.1543 Q1885.375,460.498 1885.0313,460.9043 Q1884.5313,461.4824 1883.7344,461.8105 Q1882.6563,462.2637 1881.3594,462.2637 Q1879.8438,462.2637 1878.6406,461.6387 Q1877.6563,461.1387 1876.9688,460.0762 Q1876.2813,458.998 1876.2813,457.7168 L1876.2813,456.5605 Q1876.2813,455.2324 1876.8906,454.0918 Q1877.5156,452.9355 1878.6094,452.3262 Q1879.7031,451.7012 1880.9375,451.7012 Q1881.6719,451.7012 1882.3125,451.873 Q1882.9688,452.0293 1883.5156,452.3887 Z " fill="#000000"/><text fill="#000000" font-family="sans-serif" font-size="14" lengthAdjust="spacing" textLength="72" x="1901.25" y="462.3105">AquaAviary</text><line style="stroke:#181818;stroke-width:0.5;" x1="1803.5" x2="2038.5" y1="472.5137" y2="472.5137"/><line style="stroke:#181818;stroke-width:0.5;" x1="1803.5" x2="2038.5" y1="480.5137" y2="480.5137"/><ellipse cx="1813.5" cy="495.3242" fill="#84BE84" rx="3" ry="3" style="stroke:#038048;stroke-width:1.0;"/><text fill="#000000" font-family="sans-serif" font-size="14" lengthAdjust="spacing" textLength="174" x="1822.5" y="499.6211">AquaAviary(totalCount : int)</text><text fill="#000000" font-family="sans-serif" font-size="14" lengthAdjust="spacing" textLength="4" x="1822.5" y="518.2422">&#160;</text><ellipse cx="1813.5" cy="532.5664" fill="#84BE84" rx="3" ry="3" style="stroke:#038048;stroke-width:1.0;"/><text fill="#000000" font-family="sans-serif" font-size="14" lengthAdjust="spacing" textLength="211" x="1822.5" y="536.8633">AddAnimal(animal : Animal) : bool</text></g><!--class LandAviary--><g id="elem_LandAviary"><rect codeLine="85" fill="#F1F1F1" height="85.2422" id="LandAviary" rx="2.5" ry="2.5" style="stroke:#181818;stroke-width:0.5;" width="237" x="1530.5" y="450.0137"/><ellipse cx="1609.25" cy="466.0137" fill="#ADD1B2" rx="11" ry="11" style="stroke:#181818;stroke-width:1.0;"/><path d="M1612.0156,461.8887 Q1612.1719,461.6699 1612.3594,461.5605 Q1612.5469,461.4512 1612.7656,461.4512 Q1613.1406,461.4512 1613.375,461.7168 Q1613.6094,461.9668 1613.6094,462.5762 L1613.6094,464.0293 Q1613.6094,464.6387 1613.375,464.9043 Q1613.1406,465.1699 1612.7656,465.1699 Q1612.4219,465.1699 1612.2188,464.9668 Q1612.0156,464.7793 1611.9063,464.2637 Q1611.8594,463.9043 1611.6719,463.7168 Q1611.3438,463.3418 1610.7344,463.123 Q1610.125,462.9043 1609.5,462.9043 Q1608.7344,462.9043 1608.0938,463.2324 Q1607.4688,463.5605 1606.9688,464.3105 Q1606.4844,465.0605 1606.4844,466.0918 L1606.4844,467.1855 Q1606.4844,468.4199 1607.375,469.248 Q1608.2656,470.0605 1609.8594,470.0605 Q1610.7969,470.0605 1611.4531,469.8105 Q1611.8438,469.6543 1612.2656,469.2168 Q1612.5313,468.9512 1612.6719,468.873 Q1612.8281,468.7949 1613.0313,468.7949 Q1613.3594,468.7949 1613.6094,469.0605 Q1613.875,469.3105 1613.875,469.6543 Q1613.875,469.998 1613.5313,470.4043 Q1613.0313,470.9824 1612.2344,471.3105 Q1611.1563,471.7637 1609.8594,471.7637 Q1608.3438,471.7637 1607.1406,471.1387 Q1606.1563,470.6387 1605.4688,469.5762 Q1604.7813,468.498 1604.7813,467.2168 L1604.7813,466.0605 Q1604.7813,464.7324 1605.3906,463.5918 Q1606.0156,462.4355 1607.1094,461.8262 Q1608.2031,461.2012 1609.4375,461.2012 Q1610.1719,461.2012 1610.8125,461.373 Q1611.4688,461.5293 1612.0156,461.8887 Z " fill="#000000"/><text fill="#000000" font-family="sans-serif" font-size="14" lengthAdjust="spacing" textLength="71" x="1629.75" y="471.8105">LandAviary</text><line style="stroke:#181818;stroke-width:0.5;" x1="1531.5" x2="1766.5" y1="482.0137" y2="482.0137"/><line style="stroke:#181818;stroke-width:0.5;" x1="1531.5" x2="1766.5" y1="490.0137" y2="490.0137"/><ellipse cx="1541.5" cy="504.8242" fill="#84BE84" rx="3" ry="3" style="stroke:#038048;stroke-width:1.0;"/><text fill="#000000" font-family="sans-serif" font-size="14" lengthAdjust="spacing" textLength="173" x="1550.5" y="509.1211">LandAviary(totalCount : int)</text><ellipse cx="1541.5" cy="523.4453" fill="#84BE84" rx="3" ry="3" style="stroke:#038048;stroke-width:1.0;"/><text fill="#000000" font-family="sans-serif" font-size="14" lengthAdjust="spacing" textLength="211" x="1550.5" y="527.7422">AddAnimal(animal : Animal) : bool</text></g><!--class AnimalCreator--><g id="elem_AnimalCreator"><rect codeLine="95" fill="#F1F1F1" height="66.6211" id="AnimalCreator" rx="2.5" ry="2.5" style="stroke:#181818;stroke-width:0.5;" width="207" x="1002.5" y="459.0137"/><ellipse cx="1056.75" cy="475.0137" fill="#A9DCDF" rx="11" ry="11" style="stroke:#181818;stroke-width:1.0;"/><path d="M1058.9375,476.7793 L1054.7969,476.7793 L1054.375,477.8105 L1054.7969,477.8105 Q1055.4063,477.8105 1055.6719,478.0449 Q1055.9375,478.2793 1055.9375,478.6699 Q1055.9375,479.0449 1055.6719,479.2793 Q1055.4063,479.5137 1054.7969,479.5137 L1052.5,479.5137 Q1051.8906,479.5137 1051.6406,479.2793 Q1051.375,479.0449 1051.375,478.6543 Q1051.375,478.2793 1051.6563,478.0449 Q1051.9219,477.7949 1052.5469,477.8105 L1055.2188,471.1543 L1054.1094,471.1543 Q1053.5,471.1543 1053.2344,470.9199 Q1052.9688,470.6855 1052.9688,470.2949 Q1052.9688,469.9199 1053.2344,469.6855 Q1053.5,469.4512 1054.1094,469.4512 L1057.7813,469.4512 L1061.1719,477.8105 Q1061.7656,477.8105 1061.9531,477.9512 Q1062.3438,478.2168 1062.3438,478.6699 Q1062.3438,479.0449 1062.0781,479.2793 Q1061.8281,479.5137 1061.2188,479.5137 L1058.9219,479.5137 Q1058.3125,479.5137 1058.0469,479.2793 Q1057.7813,479.0449 1057.7813,478.6543 Q1057.7813,478.2793 1058.0469,478.0449 Q1058.3125,477.8105 1058.9219,477.8105 L1059.3438,477.8105 L1058.9375,476.7793 Z M1058.2188,475.0762 L1056.8594,471.7012 L1055.4844,475.0762 L1058.2188,475.0762 Z " fill="#000000"/><text fill="#000000" font-family="sans-serif" font-size="14" font-style="italic" lengthAdjust="spacing" textLength="90" x="1077.25" y="480.8105">AnimalCreator</text><line style="stroke:#181818;stroke-width:0.5;" x1="1003.5" x2="1208.5" y1="491.0137" y2="491.0137"/><line style="stroke:#181818;stroke-width:0.5;" x1="1003.5" x2="1208.5" y1="499.0137" y2="499.0137"/><ellipse cx="1013.5" cy="513.8242" fill="#84BE84" rx="3" ry="3" style="stroke:#038048;stroke-width:1.0;"/><text fill="#000000" font-family="sans-serif" font-size="14" font-style="italic" lengthAdjust="spacing" textLength="181" x="1022.5" y="518.1211">Create(kind : string) : Animal</text></g><!--class BirdCreator--><g id="elem_BirdCreator"><rect codeLine="102" fill="#F1F1F1" height="66.6211" id="BirdCreator" rx="2.5" ry="2.5" style="stroke:#181818;stroke-width:0.5;" width="206" x="521" y="604.5137"/><ellipse cx="583.25" cy="620.5137" fill="#ADD1B2" rx="11" ry="11" style="stroke:#181818;stroke-width:1.0;"/><path d="M586.0156,616.3887 Q586.1719,616.1699 586.3594,616.0605 Q586.5469,615.9512 586.7656,615.9512 Q587.1406,615.9512 587.375,616.2168 Q587.6094,616.4668 587.6094,617.0762 L587.6094,618.5293 Q587.6094,619.1387 587.375,619.4043 Q587.1406,619.6699 586.7656,619.6699 Q586.4219,619.6699 586.2188,619.4668 Q586.0156,619.2793 585.9063,618.7637 Q585.8594,618.4043 585.6719,618.2168 Q585.3438,617.8418 584.7344,617.623 Q584.125,617.4043 583.5,617.4043 Q582.7344,617.4043 582.0938,617.7324 Q581.4688,618.0605 580.9688,618.8105 Q580.4844,619.5605 580.4844,620.5918 L580.4844,621.6855 Q580.4844,622.9199 581.375,623.748 Q582.2656,624.5605 583.8594,624.5605 Q584.7969,624.5605 585.4531,624.3105 Q585.8438,624.1543 586.2656,623.7168 Q586.5313,623.4512 586.6719,623.373 Q586.8281,623.2949 587.0313,623.2949 Q587.3594,623.2949 587.6094,623.5605 Q587.875,623.8105 587.875,624.1543 Q587.875,624.498 587.5313,624.9043 Q587.0313,625.4824 586.2344,625.8105 Q585.1563,626.2637 583.8594,626.2637 Q582.3438,626.2637 581.1406,625.6387 Q580.1563,625.1387 579.4688,624.0762 Q578.7813,622.998 578.7813,621.7168 L578.7813,620.5605 Q578.7813,619.2324 579.3906,618.0918 Q580.0156,616.9355 581.1094,616.3262 Q582.2031,615.7012 583.4375,615.7012 Q584.1719,615.7012 584.8125,615.873 Q585.4688,616.0293 586.0156,616.3887 Z " fill="#000000"/><text fill="#000000" font-family="sans-serif" font-size="14" lengthAdjust="spacing" textLength="73" x="603.75" y="626.3105">BirdCreator</text><line style="stroke:#181818;stroke-width:0.5;" x1="522" x2="726" y1="636.5137" y2="636.5137"/><line style="stroke:#181818;stroke-width:0.5;" x1="522" x2="726" y1="644.5137" y2="644.5137"/><ellipse cx="532" cy="659.3242" fill="#84BE84" rx="3" ry="3" style="stroke:#038048;stroke-width:1.0;"/><text fill="#000000" font-family="sans-serif" font-size="14" lengthAdjust="spacing" textLength="180" x="541" y="663.6211">Create(kind : string) : Animal</text></g><!--class FishCreator--><g id="elem_FishCreator"><rect codeLine="108" fill="#F1F1F1" height="66.6211" id="FishCreator" rx="2.5" ry="2.5" style="stroke:#181818;stroke-width:0.5;" width="206" x="1244" y="604.5137"/><ellipse cx="1305.25" cy="620.5137" fill="#ADD1B2" rx="11" ry="11" style="stroke:#181818;stroke-width:1.0;"/><path d="M1308.0156,616.3887 Q1308.1719,616.1699 1308.3594,616.0605 Q1308.5469,615.9512 1308.7656,615.9512 Q1309.1406,615.9512 1309.375,616.2168 Q1309.6094,616.4668 1309.6094,617.0762 L1309.6094,618.5293 Q1309.6094,619.1387 1309.375,619.4043 Q1309.1406,619.6699 1308.7656,619.6699 Q1308.4219,619.6699 1308.2188,619.4668 Q1308.0156,619.2793 1307.9063,618.7637 Q1307.8594,618.4043 1307.6719,618.2168 Q1307.3438,617.8418 1306.7344,617.623 Q1306.125,617.4043 1305.5,617.4043 Q1304.7344,617.4043 1304.0938,617.7324 Q1303.4688,618.0605 1302.9688,618.8105 Q1302.4844,619.5605 1302.4844,620.5918 L1302.4844,621.6855 Q1302.4844,622.9199 1303.375,623.748 Q1304.2656,624.5605 1305.8594,624.5605 Q1306.7969,624.5605 1307.4531,624.3105 Q1307.8438,624.1543 1308.2656,623.7168 Q1308.5313,623.4512 1308.6719,623.373 Q1308.8281,623.2949 1309.0313,623.2949 Q1309.3594,623.2949 1309.6094,623.5605 Q1309.875,623.8105 1309.875,624.1543 Q1309.875,624.498 1309.5313,624.9043 Q1309.0313,625.4824 1308.2344,625.8105 Q1307.1563,626.2637 1305.8594,626.2637 Q1304.3438,626.2637 1303.1406,625.6387 Q1302.1563,625.1387 1301.4688,624.0762 Q1300.7813,622.998 1300.7813,621.7168 L1300.7813,620.5605 Q1300.7813,619.2324 1301.3906,618.0918 Q1302.0156,616.9355 1303.1094,616.3262 Q1304.2031,615.7012 1305.4375,615.7012 Q1306.1719,615.7012 1306.8125,615.873 Q1307.4688,616.0293 1308.0156,616.3887 Z " fill="#000000"/><text fill="#000000" font-family="sans-serif" font-size="14" lengthAdjust="spacing" textLength="75" x="1325.75" y="626.3105">FishCreator</text><line style="stroke:#181818;stroke-width:0.5;" x1="1245" x2="1449" y1="636.5137" y2="636.5137"/><line style="stroke:#181818;stroke-width:0.5;" x1="1245" x2="1449" y1="644.5137" y2="644.5137"/><ellipse cx="1255" cy="659.3242" fill="#84BE84" rx="3" ry="3" style="stroke:#038048;stroke-width:1.0;"/><text fill="#000000" font-family="sans-serif" font-size="14" lengthAdjust="spacing" textLength="180" x="1264" y="663.6211">Create(kind : string) : Animal</text></g><!--class MammaliaCreator--><g id="elem_MammaliaCreator"><rect codeLine="114" fill="#F1F1F1" height="66.6211" id="MammaliaCreator" rx="2.5" ry="2.5" style="stroke:#181818;stroke-width:0.5;" width="206" x="762" y="604.5137"/><ellipse cx="805.35" cy="620.5137" fill="#ADD1B2" rx="11" ry="11" style="stroke:#181818;stroke-width:1.0;"/><path d="M808.1156,616.3887 Q808.2719,616.1699 808.4594,616.0605 Q808.6469,615.9512 808.8656,615.9512 Q809.2406,615.9512 809.475,616.2168 Q809.7094,616.4668 809.7094,617.0762 L809.7094,618.5293 Q809.7094,619.1387 809.475,619.4043 Q809.2406,619.6699 808.8656,619.6699 Q808.5219,619.6699 808.3188,619.4668 Q808.1156,619.2793 808.0063,618.7637 Q807.9594,618.4043 807.7719,618.2168 Q807.4438,617.8418 806.8344,617.623 Q806.225,617.4043 805.6,617.4043 Q804.8344,617.4043 804.1938,617.7324 Q803.5688,618.0605 803.0688,618.8105 Q802.5844,619.5605 802.5844,620.5918 L802.5844,621.6855 Q802.5844,622.9199 803.475,623.748 Q804.3656,624.5605 805.9594,624.5605 Q806.8969,624.5605 807.5531,624.3105 Q807.9438,624.1543 808.3656,623.7168 Q808.6313,623.4512 808.7719,623.373 Q808.9281,623.2949 809.1313,623.2949 Q809.4594,623.2949 809.7094,623.5605 Q809.975,623.8105 809.975,624.1543 Q809.975,624.498 809.6313,624.9043 Q809.1313,625.4824 808.3344,625.8105 Q807.2563,626.2637 805.9594,626.2637 Q804.4438,626.2637 803.2406,625.6387 Q802.2563,625.1387 801.5688,624.0762 Q800.8813,622.998 800.8813,621.7168 L800.8813,620.5605 Q800.8813,619.2324 801.4906,618.0918 Q802.1156,616.9355 803.2094,616.3262 Q804.3031,615.7012 805.5375,615.7012 Q806.2719,615.7012 806.9125,615.873 Q807.5688,616.0293 808.1156,616.3887 Z " fill="#000000"/><text fill="#000000" font-family="sans-serif" font-size="14" lengthAdjust="spacing" textLength="111" x="825.65" y="626.3105">MammaliaCreator</text><line style="stroke:#181818;stroke-width:0.5;" x1="763" x2="967" y1="636.5137" y2="636.5137"/><line style="stroke:#181818;stroke-width:0.5;" x1="763" x2="967" y1="644.5137" y2="644.5137"/><ellipse cx="773" cy="659.3242" fill="#84BE84" rx="3" ry="3" style="stroke:#038048;stroke-width:1.0;"/><text fill="#000000" font-family="sans-serif" font-size="14" lengthAdjust="spacing" textLength="180" x="782" y="663.6211">Create(kind : string) : Animal</text></g><!--class InsectCreator--><g id="elem_InsectCreator"><rect codeLine="120" fill="#F1F1F1" height="66.6211" id="InsectCreator" rx="2.5" ry="2.5" style="stroke:#181818;stroke-width:0.5;" width="206" x="1003" y="604.5137"/><ellipse cx="1059.25" cy="620.5137" fill="#ADD1B2" rx="11" ry="11" style="stroke:#181818;stroke-width:1.0;"/><path d="M1062.0156,616.3887 Q1062.1719,616.1699 1062.3594,616.0605 Q1062.5469,615.9512 1062.7656,615.9512 Q1063.1406,615.9512 1063.375,616.2168 Q1063.6094,616.4668 1063.6094,617.0762 L1063.6094,618.5293 Q1063.6094,619.1387 1063.375,619.4043 Q1063.1406,619.6699 1062.7656,619.6699 Q1062.4219,619.6699 1062.2188,619.4668 Q1062.0156,619.2793 1061.9063,618.7637 Q1061.8594,618.4043 1061.6719,618.2168 Q1061.3438,617.8418 1060.7344,617.623 Q1060.125,617.4043 1059.5,617.4043 Q1058.7344,617.4043 1058.0938,617.7324 Q1057.4688,618.0605 1056.9688,618.8105 Q1056.4844,619.5605 1056.4844,620.5918 L1056.4844,621.6855 Q1056.4844,622.9199 1057.375,623.748 Q1058.2656,624.5605 1059.8594,624.5605 Q1060.7969,624.5605 1061.4531,624.3105 Q1061.8438,624.1543 1062.2656,623.7168 Q1062.5313,623.4512 1062.6719,623.373 Q1062.8281,623.2949 1063.0313,623.2949 Q1063.3594,623.2949 1063.6094,623.5605 Q1063.875,623.8105 1063.875,624.1543 Q1063.875,624.498 1063.5313,624.9043 Q1063.0313,625.4824 1062.2344,625.8105 Q1061.1563,626.2637 1059.8594,626.2637 Q1058.3438,626.2637 1057.1406,625.6387 Q1056.1563,625.1387 1055.4688,624.0762 Q1054.7813,622.998 1054.7813,621.7168 L1054.7813,620.5605 Q1054.7813,619.2324 1055.3906,618.0918 Q1056.0156,616.9355 1057.1094,616.3262 Q1058.2031,615.7012 1059.4375,615.7012 Q1060.1719,615.7012 1060.8125,615.873 Q1061.4688,616.0293 1062.0156,616.3887 Z " fill="#000000"/><text fill="#000000" font-family="sans-serif" font-size="14" lengthAdjust="spacing" textLength="85" x="1079.75" y="626.3105">InsectCreator</text><line style="stroke:#181818;stroke-width:0.5;" x1="1004" x2="1208" y1="636.5137" y2="636.5137"/><line style="stroke:#181818;stroke-width:0.5;" x1="1004" x2="1208" y1="644.5137" y2="644.5137"/><ellipse cx="1014" cy="659.3242" fill="#84BE84" rx="3" ry="3" style="stroke:#038048;stroke-width:1.0;"/><text fill="#000000" font-family="sans-serif" font-size="14" lengthAdjust="spacing" textLength="180" x="1023" y="663.6211">Create(kind : string) : Animal</text></g><!--class AviaryCreator--><g id="elem_AviaryCreator"><rect codeLine="128" fill="#F1F1F1" height="66.6211" id="AviaryCreator" rx="2.5" ry="2.5" style="stroke:#181818;stroke-width:0.5;" width="191" x="273.5" y="459.0137"/><ellipse cx="321.75" cy="475.0137" fill="#A9DCDF" rx="11" ry="11" style="stroke:#181818;stroke-width:1.0;"/><path d="M323.9375,476.7793 L319.7969,476.7793 L319.375,477.8105 L319.7969,477.8105 Q320.4063,477.8105 320.6719,478.0449 Q320.9375,478.2793 320.9375,478.6699 Q320.9375,479.0449 320.6719,479.2793 Q320.4063,479.5137 319.7969,479.5137 L317.5,479.5137 Q316.8906,479.5137 316.6406,479.2793 Q316.375,479.0449 316.375,478.6543 Q316.375,478.2793 316.6563,478.0449 Q316.9219,477.7949 317.5469,477.8105 L320.2188,471.1543 L319.1094,471.1543 Q318.5,471.1543 318.2344,470.9199 Q317.9688,470.6855 317.9688,470.2949 Q317.9688,469.9199 318.2344,469.6855 Q318.5,469.4512 319.1094,469.4512 L322.7813,469.4512 L326.1719,477.8105 Q326.7656,477.8105 326.9531,477.9512 Q327.3438,478.2168 327.3438,478.6699 Q327.3438,479.0449 327.0781,479.2793 Q326.8281,479.5137 326.2188,479.5137 L323.9219,479.5137 Q323.3125,479.5137 323.0469,479.2793 Q322.7813,479.0449 322.7813,478.6543 Q322.7813,478.2793 323.0469,478.0449 Q323.3125,477.8105 323.9219,477.8105 L324.3438,477.8105 L323.9375,476.7793 Z M323.2188,475.0762 L321.8594,471.7012 L320.4844,475.0762 L323.2188,475.0762 Z " fill="#000000"/><text fill="#000000" font-family="sans-serif" font-size="14" font-style="italic" lengthAdjust="spacing" textLength="86" x="342.25" y="480.8105">AviaryCreator</text><line style="stroke:#181818;stroke-width:0.5;" x1="274.5" x2="463.5" y1="491.0137" y2="491.0137"/><line style="stroke:#181818;stroke-width:0.5;" x1="274.5" x2="463.5" y1="499.0137" y2="499.0137"/><ellipse cx="284.5" cy="513.8242" fill="#84BE84" rx="3" ry="3" style="stroke:#038048;stroke-width:1.0;"/><text fill="#000000" font-family="sans-serif" font-size="14" font-style="italic" lengthAdjust="spacing" textLength="165" x="293.5" y="518.1211">Create(count : int) : Aviary</text></g><!--class LandAviaryCreator--><g id="elem_LandAviaryCreator"><rect codeLine="135" fill="#F1F1F1" height="66.6211" id="LandAviaryCreator" rx="2.5" ry="2.5" style="stroke:#181818;stroke-width:0.5;" width="192" x="46" y="604.5137"/><ellipse cx="79.45" cy="620.5137" fill="#ADD1B2" rx="11" ry="11" style="stroke:#181818;stroke-width:1.0;"/><path d="M82.2156,616.3887 Q82.3719,616.1699 82.5594,616.0605 Q82.7469,615.9512 82.9656,615.9512 Q83.3406,615.9512 83.575,616.2168 Q83.8094,616.4668 83.8094,617.0762 L83.8094,618.5293 Q83.8094,619.1387 83.575,619.4043 Q83.3406,619.6699 82.9656,619.6699 Q82.6219,619.6699 82.4188,619.4668 Q82.2156,619.2793 82.1063,618.7637 Q82.0594,618.4043 81.8719,618.2168 Q81.5438,617.8418 80.9344,617.623 Q80.325,617.4043 79.7,617.4043 Q78.9344,617.4043 78.2938,617.7324 Q77.6688,618.0605 77.1688,618.8105 Q76.6844,619.5605 76.6844,620.5918 L76.6844,621.6855 Q76.6844,622.9199 77.575,623.748 Q78.4656,624.5605 80.0594,624.5605 Q80.9969,624.5605 81.6531,624.3105 Q82.0438,624.1543 82.4656,623.7168 Q82.7313,623.4512 82.8719,623.373 Q83.0281,623.2949 83.2313,623.2949 Q83.5594,623.2949 83.8094,623.5605 Q84.075,623.8105 84.075,624.1543 Q84.075,624.498 83.7313,624.9043 Q83.2313,625.4824 82.4344,625.8105 Q81.3563,626.2637 80.0594,626.2637 Q78.5438,626.2637 77.3406,625.6387 Q76.3563,625.1387 75.6688,624.0762 Q74.9813,622.998 74.9813,621.7168 L74.9813,620.5605 Q74.9813,619.2324 75.5906,618.0918 Q76.2156,616.9355 77.3094,616.3262 Q78.4031,615.7012 79.6375,615.7012 Q80.3719,615.7012 81.0125,615.873 Q81.6688,616.0293 82.2156,616.3887 Z " fill="#000000"/><text fill="#000000" font-family="sans-serif" font-size="14" lengthAdjust="spacing" textLength="119" x="97.55" y="626.3105">LandAviaryCreator</text><line style="stroke:#181818;stroke-width:0.5;" x1="47" x2="237" y1="636.5137" y2="636.5137"/><line style="stroke:#181818;stroke-width:0.5;" x1="47" x2="237" y1="644.5137" y2="644.5137"/><ellipse cx="57" cy="659.3242" fill="#84BE84" rx="3" ry="3" style="stroke:#038048;stroke-width:1.0;"/><text fill="#000000" font-family="sans-serif" font-size="14" lengthAdjust="spacing" textLength="166" x="66" y="663.6211">Create(count : int) : Aviary</text></g><!--class AquaAviaryCreator--><g id="elem_AquaAviaryCreator"><rect codeLine="142" fill="#F1F1F1" height="66.6211" id="AquaAviaryCreator" rx="2.5" ry="2.5" style="stroke:#181818;stroke-width:0.5;" width="192" x="273" y="604.5137"/><ellipse cx="306" cy="620.5137" fill="#ADD1B2" rx="11" ry="11" style="stroke:#181818;stroke-width:1.0;"/><path d="M308.7656,616.3887 Q308.9219,616.1699 309.1094,616.0605 Q309.2969,615.9512 309.5156,615.9512 Q309.8906,615.9512 310.125,616.2168 Q310.3594,616.4668 310.3594,617.0762 L310.3594,618.5293 Q310.3594,619.1387 310.125,619.4043 Q309.8906,619.6699 309.5156,619.6699 Q309.1719,619.6699 308.9688,619.4668 Q308.7656,619.2793 308.6563,618.7637 Q308.6094,618.4043 308.4219,618.2168 Q308.0938,617.8418 307.4844,617.623 Q306.875,617.4043 306.25,617.4043 Q305.4844,617.4043 304.8438,617.7324 Q304.2188,618.0605 303.7188,618.8105 Q303.2344,619.5605 303.2344,620.5918 L303.2344,621.6855 Q303.2344,622.9199 304.125,623.748 Q305.0156,624.5605 306.6094,624.5605 Q307.5469,624.5605 308.2031,624.3105 Q308.5938,624.1543 309.0156,623.7168 Q309.2813,623.4512 309.4219,623.373 Q309.5781,623.2949 309.7813,623.2949 Q310.1094,623.2949 310.3594,623.5605 Q310.625,623.8105 310.625,624.1543 Q310.625,624.498 310.2813,624.9043 Q309.7813,625.4824 308.9844,625.8105 Q307.9063,626.2637 306.6094,626.2637 Q305.0938,626.2637 303.8906,625.6387 Q302.9063,625.1387 302.2188,624.0762 Q301.5313,622.998 301.5313,621.7168 L301.5313,620.5605 Q301.5313,619.2324 302.1406,618.0918 Q302.7656,616.9355 303.8594,616.3262 Q304.9531,615.7012 306.1875,615.7012 Q306.9219,615.7012 307.5625,615.873 Q308.2188,616.0293 308.7656,616.3887 Z " fill="#000000"/><text fill="#000000" font-family="sans-serif" font-size="14" lengthAdjust="spacing" textLength="120" x="324" y="626.3105">AquaAviaryCreator</text><line style="stroke:#181818;stroke-width:0.5;" x1="274" x2="464" y1="636.5137" y2="636.5137"/><line style="stroke:#181818;stroke-width:0.5;" x1="274" x2="464" y1="644.5137" y2="644.5137"/><ellipse cx="284" cy="659.3242" fill="#84BE84" rx="3" ry="3" style="stroke:#038048;stroke-width:1.0;"/><text fill="#000000" font-family="sans-serif" font-size="14" lengthAdjust="spacing" textLength="166" x="293" y="663.6211">Create(count : int) : Aviary</text></g><!--reverse link Animal to Bird--><g id="link_Animal_Bird"><path codeLine="24" d="M2169.1428,146.3233 C2167.9328,171.7033 2167.22,186.5437 2165.88,214.7037 " fill="none" id="Animal-backto-Bird" style="stroke:#181818;stroke-width:1.0;"/><polygon fill="none" points="2170,128.3437,2163.1496,146.0375,2175.136,146.609,2170,128.3437" style="stroke:#181818;stroke-width:1.0;"/></g><!--reverse link IFlying to Bird--><g id="link_IFlying_Bird"><path codeLine="25" d="M2853.5137,128.2405 C2837.1637,137.8305 2833.73,137.9937 2815,143.0137 C2784.57,151.1737 2275.77,136.1337 2248,151.0137 C2222.12,164.8837 2202.57,190.5137 2188.79,214.8837 " fill="none" id="IFlying-backto-Bird" style="stroke:#181818;stroke-width:1.0;stroke-dasharray:7.0,7.0;"/><polygon fill="none" points="2869.04,119.1337,2850.4781,123.0651,2856.5493,133.4159,2869.04,119.1337" style="stroke:#181818;stroke-width:1.0;"/></g><!--reverse link IWalking to Bird--><g id="link_IWalking_Bird"><path codeLine="26" d="M3025.1891,129.575 C3011.5191,139.115 3010.26,138.0037 2994,143.0137 C2974.19,149.1137 2266.28,141.2537 2248,151.0137 C2222.1,164.8437 2202.54,190.4637 2188.76,214.8437 " fill="none" id="IWalking-backto-Bird" style="stroke:#181818;stroke-width:1.0;stroke-dasharray:7.0,7.0;"/><polygon fill="none" points="3039.95,119.2737,3021.7554,124.6547,3028.6229,134.4953,3039.95,119.2737" style="stroke:#181818;stroke-width:1.0;"/></g><!--reverse link Animal to Fish--><g id="link_Animal_Fish"><path codeLine="34" d="M2265.6129,90.8812 C2379.9029,97.1612 2572.11,112.6637 2636,151.0137 C2664.4,168.0537 2686.46,197.8537 2701.63,223.9637 " fill="none" id="Animal-backto-Fish" style="stroke:#181818;stroke-width:1.0;"/><polygon fill="none" points="2247.64,89.8937,2265.2837,96.8722,2265.9421,84.8903,2247.64,89.8937" style="stroke:#181818;stroke-width:1.0;"/></g><!--reverse link ISwimming to Fish--><g id="link_ISwimming_Fish"><path codeLine="35" d="M3194.3824,128.8362 C3180.3924,137.7762 3179.66,136.9737 3164,143.0137 C3145.05,150.3237 3138.73,146.1737 3119,151.0137 C3005.57,178.8637 2876.99,221.6237 2798.71,248.9437 " fill="none" id="ISwimming-backto-Fish" style="stroke:#181818;stroke-width:1.0;stroke-dasharray:7.0,7.0;"/><polygon fill="none" points="3209.55,119.1437,3191.1516,123.7803,3197.6133,133.892,3209.55,119.1437" style="stroke:#181818;stroke-width:1.0;"/></g><!--reverse link Animal to Mammalia--><g id="link_Animal_Mammalia"><path codeLine="42" d="M2237.2941,140.2435 C2245.6141,147.5635 2240.45,143.3837 2248,151.0137 C2270.44,173.6937 2293.32,200.7637 2311.8,223.8137 " fill="none" id="Animal-backto-Mammalia" style="stroke:#181818;stroke-width:1.0;"/><polygon fill="none" points="2223.78,128.3537,2233.3309,144.7482,2241.2574,135.7388,2223.78,128.3537" style="stroke:#181818;stroke-width:1.0;"/></g><!--reverse link IWalking to Mammalia--><g id="link_IWalking_Mammalia"><path codeLine="43" d="M3025.1691,129.535 C3011.4991,139.075 3010.25,137.9737 2994,143.0137 C2965.4,151.8837 2482.05,138.1537 2455,151.0137 C2422.77,166.3337 2396.93,196.9737 2379.06,223.9637 " fill="none" id="IWalking-backto-Mammalia" style="stroke:#181818;stroke-width:1.0;stroke-dasharray:7.0,7.0;"/><polygon fill="none" points="3039.93,119.2337,3021.7354,124.6147,3028.6029,134.4553,3039.93,119.2337" style="stroke:#181818;stroke-width:1.0;"/></g><!--reverse link Animal to Insect--><g id="link_Animal_Insect"><path codeLine="50" d="M2265.6066,90.9772 C2326.1166,96.4572 2392.87,109.9937 2455,151.0137 C2479.09,166.9137 2498.92,191.6137 2513.78,214.7937 " fill="none" id="Animal-backto-Insect" style="stroke:#181818;stroke-width:1.0;"/><polygon fill="none" points="2247.68,89.3537,2265.0655,96.9527,2266.1478,85.0016,2247.68,89.3537" style="stroke:#181818;stroke-width:1.0;"/></g><!--reverse link IFlying to Insect--><g id="link_IFlying_Insect"><path codeLine="51" d="M2852.8906,128.161 C2836.6506,137.631 2833.45,137.7637 2815,143.0137 C2776.7,153.9137 2671.11,132.2337 2636,151.0137 C2609.63,165.1237 2588.91,190.6137 2573.95,214.8437 " fill="none" id="IFlying-backto-Insect" style="stroke:#181818;stroke-width:1.0;stroke-dasharray:7.0,7.0;"/><polygon fill="none" points="2868.44,119.0937,2849.8682,122.9778,2855.913,133.3441,2868.44,119.0937" style="stroke:#181818;stroke-width:1.0;"/></g><!--reverse link IWalking to Insect--><g id="link_IWalking_Insect"><path codeLine="52" d="M3025.1441,129.4577 C3011.4741,138.9877 3010.23,137.9137 2994,143.0137 C2956.04,154.9437 2671.29,132.6437 2636,151.0137 C2609.35,164.8837 2588.55,190.5137 2573.61,214.8837 " fill="none" id="IWalking-backto-Insect" style="stroke:#181818;stroke-width:1.0;stroke-dasharray:7.0,7.0;"/><polygon fill="none" points="3039.91,119.1637,3021.7127,124.5357,3028.5754,134.3797,3039.91,119.1637" style="stroke:#181818;stroke-width:1.0;"/></g><!--link Animal to Aviary--><g id="link_Animal_Aviary"><path codeLine="62" d="M2090.2874,96.9608 C2028.2574,106.3408 1944.95,122.5737 1871,151.0137 C1838.52,163.5037 1815.5688,174.5173 1785.0888,191.8673 " fill="none" id="Animal-Aviary" style="stroke:#181818;stroke-width:1.0;"/><polygon fill="#181818" points="2096.22,96.0637,2086.7231,93.4543,2091.2762,96.8113,2087.9192,101.3644,2096.22,96.0637" style="stroke:#181818;stroke-width:1.0;"/><polygon fill="none" points="1774.66,197.8037,1781.8532,198.3118,1785.0888,191.8673,1777.8956,191.3592,1774.66,197.8037" style="stroke:#181818;stroke-width:1.0;"/></g><!--reverse link Aviary to AquaAviary--><g id="link_Aviary_AquaAviary"><path codeLine="73" d="M1782.7276,366.995 C1788.3676,371.325 1779.64,364.7137 1785,369.0137 C1812.88,391.3937 1842.52,417.7537 1866.99,440.2837 " fill="none" id="Aviary-backto-AquaAviary" style="stroke:#181818;stroke-width:1.0;"/><polygon fill="none" points="1768.45,356.0337,1779.0738,371.7542,1786.3814,362.2358,1768.45,356.0337" style="stroke:#181818;stroke-width:1.0;"/></g><!--reverse link Animal to AquaAviary--><g id="link_Animal_AquaAviary"><path codeLine="74" d="M2098.2269,131.8269 C2089.5469,138.8169 2085.96,142.7437 2079,151.0137 C2004.43,239.6537 1957.24,369.3537 1935.36,440.3637 " fill="none" id="Animal-backto-AquaAviary" style="stroke:#181818;stroke-width:1.0;"/><polygon fill="#181818" points="2102.9,128.0637,2093.3815,130.5931,2099.0057,131.1997,2098.3992,136.824,2102.9,128.0637" style="stroke:#181818;stroke-width:1.0;"/></g><!--reverse link ISwimming to AquaAviary--><g id="link_ISwimming_AquaAviary"><path codeLine="75" d="M3230.5834,124.2665 C3191.8534,183.9365 3104.02,304.4437 2991,361.0137 C2826.27,443.4637 2282.08,476.2837 2039.5,487.0437 " fill="none" id="ISwimming-backto-AquaAviary" style="stroke:#181818;stroke-width:1.0;stroke-dasharray:7.0,7.0;"/><polygon fill="#181818" points="3233.85,119.2337,3225.5948,124.6051,3231.1278,123.4277,3232.3052,128.9606,3233.85,119.2337" style="stroke:#181818;stroke-width:1.0;"/></g><!--reverse link Aviary to LandAviary--><g id="link_Aviary_LandAviary"><path codeLine="82" d="M1652.8264,374.2642 C1651.7964,406.0142 1651.23,423.2837 1650.36,449.8437 " fill="none" id="Aviary-backto-LandAviary" style="stroke:#181818;stroke-width:1.0;"/><polygon fill="none" points="1653.41,356.2737,1646.8295,374.0697,1658.8232,374.4588,1653.41,356.2737" style="stroke:#181818;stroke-width:1.0;"/></g><!--reverse link Animal to LandAviary--><g id="link_Animal_LandAviary"><path codeLine="83" d="M2090.4368,98.1119 C2045.9968,107.0119 1996.33,122.0137 1954,151.0137 C1856.76,217.6437 1871.84,274.2937 1792,361.0137 C1762.86,392.6637 1727.11,425.2937 1698.65,450.0037 " fill="none" id="Animal-backto-LandAviary" style="stroke:#181818;stroke-width:1.0;"/><polygon fill="#181818" points="2096.32,96.9337,2086.7097,94.7789,2091.4174,97.9155,2088.2807,102.6231,2096.32,96.9337" style="stroke:#181818;stroke-width:1.0;"/></g><!--reverse link IWalking to LandAviary--><g id="link_IWalking_LandAviary"><path codeLine="84" d="M3022.0487,122.7503 C3008.4687,132.2803 2999.15,139.7337 2987,151.0137 C2898.56,233.0737 2923.83,308.9537 2815,361.0137 C2789.19,373.3637 1811.67,358.6537 1785,369.0137 C1742.94,385.3537 1705.69,421.2537 1680.87,449.9937 " fill="none" id="IWalking-backto-LandAviary" style="stroke:#181818;stroke-width:1.0;stroke-dasharray:7.0,7.0;"/><polygon fill="#181818" points="3026.96,119.3037,3017.2953,121.1994,3022.8672,122.1758,3021.8908,127.7478,3026.96,119.3037" style="stroke:#181818;stroke-width:1.0;"/></g><!--link Animal to AnimalCreator--><g id="link_Animal_AnimalCreator"><path codeLine="94" d="M2090.4628,88.5362 C1940.6628,93.0962 1617.49,107.6737 1514,151.0137 C1344.65,221.9337 1199.7884,379.1722 1140.2284,449.7622 " fill="none" id="Animal-AnimalCreator" style="stroke:#181818;stroke-width:1.0;"/><polygon fill="#181818" points="2096.46,88.3537,2087.3425,84.6294,2091.4623,88.5058,2087.5859,92.6257,2096.46,88.3537" style="stroke:#181818;stroke-width:1.0;"/><polygon fill="none" points="1132.49,458.9337,1139.4164,456.9274,1140.2284,449.7622,1133.302,451.7684,1132.49,458.9337" style="stroke:#181818;stroke-width:1.0;"/></g><!--reverse link AnimalCreator to BirdCreator--><g id="link_AnimalCreator_BirdCreator"><path codeLine="100" d="M985.0485,529.5205 C903.7085,553.7405 808.3,582.1437 727.1,606.3137 " fill="none" id="AnimalCreator-backto-BirdCreator" style="stroke:#181818;stroke-width:1.0;"/><polygon fill="none" points="1002.3,524.3837,983.3363,523.77,986.7608,535.271,1002.3,524.3837" style="stroke:#181818;stroke-width:1.0;"/></g><!--reverse link Bird to BirdCreator--><g id="link_Bird_BirdCreator"><path codeLine="101" d="M2147.8824,342.9914 C2129.0224,419.9814 2094.41,540.9037 2056,568.5137 C1996.79,611.0737 816.14,593.9037 744,604.5137 C738.45,605.3337 732.79,606.3137 727.09,607.4237 " fill="none" id="Bird-backto-BirdCreator" style="stroke:#181818;stroke-width:1.0;stroke-dasharray:7.0,7.0;"/><polygon fill="#181818" points="2149.31,337.1637,2143.2835,344.9535,2148.1203,342.0201,2151.0537,346.8569,2149.31,337.1637" style="stroke:#181818;stroke-width:1.0;"/></g><!--reverse link AnimalCreator to FishCreator--><g id="link_AnimalCreator_FishCreator"><path codeLine="106" d="M1176.156,535.2825 C1215.456,558.6825 1252.77,580.9037 1292.11,604.3337 " fill="none" id="AnimalCreator-backto-FishCreator" style="stroke:#181818;stroke-width:1.0;"/><polygon fill="none" points="1160.69,526.0737,1173.0864,540.4378,1179.2256,530.1271,1160.69,526.0737" style="stroke:#181818;stroke-width:1.0;"/></g><!--reverse link Fish to FishCreator--><g id="link_Fish_FishCreator"><path codeLine="107" d="M2695.6476,333.3627 C2655.8176,401.9727 2577.83,516.0537 2471,568.5137 C2380.85,612.7837 1711.15,630.1237 1450.44,635.2337 " fill="none" id="Fish-backto-FishCreator" style="stroke:#181818;stroke-width:1.0;stroke-dasharray:7.0,7.0;"/><polygon fill="#181818" points="2698.66,328.1737,2690.6821,333.9489,2696.1497,332.4978,2697.6008,337.9654,2698.66,328.1737" style="stroke:#181818;stroke-width:1.0;"/></g><!--reverse link AnimalCreator to MammaliaCreator--><g id="link_AnimalCreator_MammaliaCreator"><path codeLine="112" d="M1035.844,535.2825 C996.544,558.6825 959.23,580.9037 919.89,604.3337 " fill="none" id="AnimalCreator-backto-MammaliaCreator" style="stroke:#181818;stroke-width:1.0;"/><polygon fill="none" points="1051.31,526.0737,1032.7744,530.1271,1038.9136,540.4378,1051.31,526.0737" style="stroke:#181818;stroke-width:1.0;"/></g><!--reverse link Mammalia to MammaliaCreator--><g id="link_Mammalia_MammaliaCreator"><path codeLine="113" d="M2316.915,333.1695 C2267.965,413.0495 2178.81,554.8437 2154,568.5137 C2040.19,631.2337 1113.54,585.3937 985,604.5137 C979.45,605.3437 973.79,606.3337 968.1,607.4537 " fill="none" id="Mammalia-backto-MammaliaCreator" style="stroke:#181818;stroke-width:1.0;stroke-dasharray:7.0,7.0;"/><polygon fill="#181818" points="2320.05,328.0537,2311.937,333.6375,2317.4375,332.3169,2318.7581,337.8174,2320.05,328.0537" style="stroke:#181818;stroke-width:1.0;"/></g><!--reverse link AnimalCreator to InsectCreator--><g id="link_AnimalCreator_InsectCreator"><path codeLine="118" d="M1106,544.0737 C1106,567.3937 1106,580.6837 1106,604.0837 " fill="none" id="AnimalCreator-backto-InsectCreator" style="stroke:#181818;stroke-width:1.0;"/><polygon fill="none" points="1106,526.0737,1100,544.0737,1112,544.0737,1106,526.0737" style="stroke:#181818;stroke-width:1.0;"/></g><!--reverse link Insect to InsectCreator--><g id="link_Insect_InsectCreator"><path codeLine="119" d="M2489.8536,341.9033 C2480.9236,352.4533 2475.62,358.7537 2467,369.0137 C2392.81,457.3437 2404.6,517.8037 2301,568.5137 C2193.76,621.0037 1345.1,586.9137 1227,604.5137 C1221.19,605.3837 1215.26,606.4237 1209.3,607.6037 " fill="none" id="Insect-backto-InsectCreator" style="stroke:#181818;stroke-width:1.0;stroke-dasharray:7.0,7.0;"/><polygon fill="#181818" points="2493.73,337.3237,2484.8622,341.6089,2490.4996,341.1401,2490.9685,346.7774,2493.73,337.3237" style="stroke:#181818;stroke-width:1.0;"/></g><!--link Aviary to AviaryCreator--><g id="link_Aviary_AviaryCreator"><path codeLine="127" d="M1531.4701,276.9659 C1276.0901,278.3359 688.21,290.1537 505,369.0137 C459.47,388.6137 426.6854,420.6565 401.9554,449.8565 " fill="none" id="Aviary-AviaryCreator" style="stroke:#181818;stroke-width:1.0;"/><polygon fill="#181818" points="1537.47,276.9337,1528.4487,272.982,1532.4701,276.9605,1528.4916,280.9819,1537.47,276.9337" style="stroke:#181818;stroke-width:1.0;"/><polygon fill="none" points="394.2,459.0137,401.1301,457.0202,401.9554,449.8565,395.0253,451.85,394.2,459.0137" style="stroke:#181818;stroke-width:1.0;"/></g><!--reverse link AviaryCreator to LandAviaryCreator--><g id="link_AviaryCreator_LandAviaryCreator"><path codeLine="133" d="M302.2747,535.6911 C265.2547,559.0911 230.76,580.9037 193.7,604.3337 " fill="none" id="AviaryCreator-backto-LandAviaryCreator" style="stroke:#181818;stroke-width:1.0;"/><polygon fill="none" points="317.49,526.0737,299.0689,530.6194,305.4805,540.7629,317.49,526.0737" style="stroke:#181818;stroke-width:1.0;"/></g><!--reverse link LandAviary to LandAviaryCreator--><g id="link_LandAviary_LandAviaryCreator"><path codeLine="134" d="M1559.8633,537.5561 C1529.3533,550.7561 1499.59,561.3737 1466,568.5137 C1202.65,624.4637 521.01,562.9837 255,604.5137 C249.45,605.3837 243.79,606.4337 238.11,607.6237 " fill="none" id="LandAviary-backto-LandAviaryCreator" style="stroke:#181818;stroke-width:1.0;stroke-dasharray:7.0,7.0;"/><polygon fill="#181818" points="1565.37,535.1737,1555.5216,535.0762,1560.7811,537.159,1558.6982,542.4185,1565.37,535.1737" style="stroke:#181818;stroke-width:1.0;"/></g><!--reverse link AviaryCreator to AquaAviaryCreator--><g id="link_AviaryCreator_AquaAviaryCreator"><path codeLine="140" d="M369,544.0737 C369,567.3937 369,580.6837 369,604.0837 " fill="none" id="AviaryCreator-backto-AquaAviaryCreator" style="stroke:#181818;stroke-width:1.0;"/><polygon fill="none" points="369,526.0737,363,544.0737,375,544.0737,369,526.0737" style="stroke:#181818;stroke-width:1.0;"/></g><!--reverse link AquaAviary to AquaAviaryCreator--><g id="link_AquaAviary_AquaAviaryCreator"><path codeLine="141" d="M1837.8648,547.4164 C1819.4848,557.1264 1804.77,563.1237 1785,568.5137 C1510.45,643.3237 787.11,567.2437 505,604.5137 C492,606.2337 478.44,608.6737 465.12,611.4437 " fill="none" id="AquaAviary-backto-AquaAviaryCreator" style="stroke:#181818;stroke-width:1.0;stroke-dasharray:7.0,7.0;"/><polygon fill="#181818" points="1843.17,544.6137,1833.3438,545.2809,1838.749,546.9492,1837.0807,552.3545,1843.17,544.6137" style="stroke:#181818;stroke-width:1.0;"/></g><!--SRC=[jLKzRzim4DtzAmXqg890zcveSGCOCD1E7Je46IwIuX3HXolHBGB7_ptYD-zCEGeSQp3azwZZUqVUtVTd8NRzSh7OLT28VLtDyxPUv1NqVLfms7PGpsOxo5zWMpBUYB9xWhpisM76XiS1RBEkNdcpDRXyRja17dlHGIwEJBF93Lko0HfUrRAZ-gMHVl_dTNqcbkMdHVi3rSkPO8O-ZNNqjg7XDLJMi_sMgIInbI9H-25WWSCvOVBvPhv9qBeRwi44pjxIbFtWNQ50c-RiRJuFK6iImrgW_8laII2sDn9vEt9acXlDMbJzclVFMgSxMYNKuLge_8k4Ic22q0dt8LJp2-hXdKCaSuZIeYo4X5bmWhZFPMhJz6KkJaywn97YWD1wDO3KQkXQ9nxMoJyE7NVDmHfBqvQj9FKQhH_58C6Y5L3TjVj639iDfHnGjXIN9lhzGxI-LCmazo6YVeCsi2eAKvHw1xU1zFlOjbKGVTElkx9C41EUfpQapdFrTm-1TPyHoWILCPmg8KsY78YIvU64vYrgUfhJ4Jy_eIdYVWZZR-bWXt3QZWUH7G-ViNE1hU2wvbq9ektiTOrt-vEBhDxlzATkHNGcq4K7f1zTFxMq92NgBBZlZgS7YhRomuBkhOP0PeO39VsSi76er2_L9ziwbQ1wVsPcGbnVm5nNd-tkL8OR1LamAk9Q2NjTlRg_Ko5c46HkICIL8kuodK7F69a8teNfANuqV5HHqKKVLrGu0gHktuN6yXjkH9iUtJ_eORZFnNCzpe_a_IlK-_b0Dmq62XuwSVNZ_0NgPKD-1m00]--></g></svg>